<svg width="46" height="46" viewBox="0 0 46 46" fill="none" xmlns="http://www.w3.org/2000/svg">
<circle cx="23" cy="23" r="23" fill="white"/>
<path d="M17.54 16C17.6 16.89 17.75 17.76 17.99 18.59L16.79 19.79C16.38 18.59 16.12 17.32 16.03 16H17.54ZM27.4 28.02C28.25 28.26 29.12 28.41 30 28.47V29.96C28.68 29.87 27.41 29.61 26.2 29.21L27.4 28.02ZM18.5 14H15C14.45 14 14 14.45 14 15C14 24.39 21.61 32 31 32C31.55 32 32 31.55 32 31V27.51C32 26.96 31.55 26.51 31 26.51C29.76 26.51 28.55 26.31 27.43 25.94C27.33 25.9 27.22 25.89 27.12 25.89C26.86 25.89 26.61 25.99 26.41 26.18L24.21 28.38C21.38 26.93 19.06 24.62 17.62 21.79L19.82 19.59C20.1 19.31 20.18 18.92 20.07 18.57C19.7 17.45 19.5 16.25 19.5 15C19.5 14.45 19.05 14 18.5 14Z" fill="#001648"/>
</svg>
