<svg width="60" height="60" viewBox="0 0 60 60" fill="none" xmlns="http://www.w3.org/2000/svg">
<circle cx="30" cy="30" r="30" fill="#30A4DC"/>
<path d="M25.9337 18.7542V15.5999C25.9337 14.777 26.4823 14.2285 27.3051 14.2285H40.4708C40.7451 14.2285 41.1565 14.3656 41.2937 14.5027L44.5851 17.2456C44.8594 17.5199 45.1337 17.9313 45.1337 18.3427V35.4856C45.1337 36.3084 44.5851 36.857 43.7622 36.857H33.4765M31.4194 19.9884L29.3622 22.0456L31.4194 24.1027M39.648 19.9884L41.7051 22.0456L39.648 24.1027M34.1622 24.7885L36.9051 18.617M31.968 44.9827C30.7337 41.417 27.3051 38.8113 23.3279 38.8113C19.3508 38.8113 15.7851 41.417 14.5508 44.9827M23.1908 26.4684V22.3541M15.6478 30.4456H30.7335M17.5678 31.9542C17.705 34.9713 20.1735 37.4399 23.1907 37.4399C26.345 37.4399 28.8135 34.9713 28.8135 31.817V29.3484C28.8135 26.1941 26.345 23.7256 23.1907 23.7256C20.1735 23.7256 17.705 26.1941 17.5678 29.2113V31.9542Z" stroke="white" stroke-width="1.37143" stroke-linecap="round" stroke-linejoin="round"/>
</svg>
