<svg width="40" height="40" viewBox="0 0 40 40" fill="none" xmlns="http://www.w3.org/2000/svg">
<g clip-path="url(#clip0_149_3652)">
<circle cx="20" cy="20" r="20" fill="#30A4DC"/>
<path d="M19.9968 14.6654C17.0439 14.6654 14.6607 17.0486 14.6607 20.0016C14.6607 22.9546 17.0439 25.3378 19.9968 25.3378C22.9498 25.3378 25.3329 22.9546 25.3329 20.0016C25.3329 17.0486 22.9498 14.6654 19.9968 14.6654ZM19.9968 23.4697C18.0872 23.4697 16.5287 21.9113 16.5287 20.0016C16.5287 18.0919 18.0872 16.5334 19.9968 16.5334C21.9065 16.5334 23.4649 18.0919 23.4649 20.0016C23.4649 21.9113 21.9065 23.4697 19.9968 23.4697ZM25.5515 13.2032C24.862 13.2032 24.3052 13.7599 24.3052 14.4494C24.3052 15.1389 24.862 15.6957 25.5515 15.6957C26.2409 15.6957 26.7977 15.1415 26.7977 14.4494C26.7979 14.2857 26.7658 14.1235 26.7032 13.9723C26.6407 13.821 26.5489 13.6835 26.4331 13.5677C26.3174 13.452 26.1799 13.3602 26.0286 13.2976C25.8773 13.2351 25.7152 13.203 25.5515 13.2032ZM30.3984 20.0016C30.3984 18.5654 30.4115 17.1422 30.3308 15.7087C30.2502 14.0435 29.8703 12.5657 28.6527 11.3481C27.4325 10.1279 25.9573 9.75064 24.2922 9.66998C22.8561 9.58933 21.433 9.60234 19.9994 9.60234C18.5633 9.60234 17.1401 9.58933 15.7066 9.66998C14.0415 9.75064 12.5637 10.1305 11.3461 11.3481C10.1259 12.5683 9.74868 14.0435 9.66803 15.7087C9.58737 17.1448 9.60038 18.568 9.60038 20.0016C9.60038 21.4351 9.58737 22.8609 9.66803 24.2945C9.74868 25.9596 10.1285 27.4374 11.3461 28.655C12.5663 29.8752 14.0415 30.2525 15.7066 30.3331C17.1427 30.4138 18.5659 30.4008 19.9994 30.4008C21.4356 30.4008 22.8587 30.4138 24.2922 30.3331C25.9573 30.2525 27.4351 29.8726 28.6527 28.655C29.8729 27.4348 30.2502 25.9596 30.3308 24.2945C30.4141 22.8609 30.3984 21.4377 30.3984 20.0016ZM28.1089 26.1365C27.919 26.61 27.6901 26.9639 27.3232 27.3281C26.9564 27.695 26.6052 27.9239 26.1316 28.1138C24.7631 28.6576 21.5136 28.5353 19.9968 28.5353C18.48 28.5353 15.2279 28.6576 13.8594 28.1164C13.3859 27.9265 13.032 27.6976 12.6678 27.3307C12.301 26.9639 12.072 26.6126 11.8821 26.1391C11.3409 24.768 11.4632 21.5184 11.4632 20.0016C11.4632 18.4847 11.3409 15.2325 11.8821 13.864C12.072 13.3905 12.301 13.0367 12.6678 12.6724C13.0346 12.3082 13.3859 12.0766 13.8594 11.8867C15.2279 11.3455 18.48 11.4678 19.9968 11.4678C21.5136 11.4678 24.7657 11.3455 26.1342 11.8867C26.6078 12.0766 26.9616 12.3056 27.3258 12.6724C27.6927 13.0393 27.9216 13.3905 28.1115 13.864C28.6527 15.2325 28.5304 18.4847 28.5304 20.0016C28.5304 21.5184 28.6527 24.768 28.1089 26.1365Z" fill="white"/>
</g>
<defs>
<clipPath id="clip0_149_3652">
<rect width="40" height="40" fill="white"/>
</clipPath>
</defs>
</svg>
