<svg width="60" height="60" viewBox="0 0 60 60" fill="none" xmlns="http://www.w3.org/2000/svg">
<circle cx="30" cy="30" r="30" fill="#30A4DC"/>
<path d="M21.4505 27.9428C22.2038 27.1011 23.2986 26.5714 24.5171 26.5714C25.7356 26.5714 26.8304 27.1011 27.5837 27.9428M29.3249 31.0286H15.8085C15.1228 31.0286 14.5742 30.48 14.5742 29.7943V15.8057C14.5742 15.12 15.1228 14.5714 15.8085 14.5714H32.2656C32.9514 14.5714 33.4999 15.12 33.4999 15.8057V23.8869M33.4999 18.4115H14.5742M32.7458 45.4286H21.7744C21.2258 45.4286 20.6772 45.0171 20.4029 44.4686L18.4829 37.6114C18.2086 36.7886 18.8944 35.8286 19.8544 35.8286H29.0429C29.5915 35.8286 30.1401 36.24 30.4144 36.7886L32.7458 45.4286ZM32.7458 45.4286H38.2314M45.4314 45.4286C45.4314 41.5886 42.4142 38.5714 38.5742 38.5714C37.6142 38.5714 36.6542 38.7086 35.8314 39.12M24.5171 25.8857C25.6532 25.8857 26.5742 24.9647 26.5742 23.8286C26.5742 22.6924 25.6532 21.7714 24.5171 21.7714C23.381 21.7714 22.4599 22.6924 22.4599 23.8286C22.4599 24.9647 23.381 25.8857 24.5171 25.8857ZM25.2025 41.3143C25.5812 41.3143 25.8882 41.0072 25.8882 40.6286C25.8882 40.2499 25.5812 39.9428 25.2025 39.9428C24.8238 39.9428 24.5171 40.2499 24.5171 40.6286C24.5171 41.0072 24.8238 41.3143 25.2025 41.3143ZM38.5742 36.5143C40.8465 36.5143 42.6885 34.6723 42.6885 32.4C42.6885 30.1277 40.8465 28.2857 38.5742 28.2857C36.3019 28.2857 34.4599 30.1277 34.4599 32.4C34.4599 34.6723 36.3019 36.5143 38.5742 36.5143Z" stroke="white" stroke-width="1.71429" stroke-linecap="round" stroke-linejoin="round"/>
</svg>
