<svg width="46" height="46" viewBox="0 0 46 46" fill="none" xmlns="http://www.w3.org/2000/svg">
<circle cx="23" cy="23" r="23" fill="white"/>
<path d="M23 13C19.13 13 16 16.13 16 20C16 25.25 23 33 23 33C23 33 30 25.25 30 20C30 16.13 26.87 13 23 13ZM18 20C18 17.24 20.24 15 23 15C25.76 15 28 17.24 28 20C28 22.88 25.12 27.19 23 29.88C20.92 27.21 18 22.85 18 20Z" fill="#001648"/>
<path d="M23 22.5C24.3807 22.5 25.5 21.3807 25.5 20C25.5 18.6193 24.3807 17.5 23 17.5C21.6193 17.5 20.5 18.6193 20.5 20C20.5 21.3807 21.6193 22.5 23 22.5Z" fill="#001648"/>
</svg>
