<svg width="20" height="21" viewBox="0 0 20 21" fill="none" xmlns="http://www.w3.org/2000/svg">
<path d="M18.3874 8.49826L18.5776 6.67661C18.6275 6.19804 18.3638 5.7417 17.9242 5.54608L16.2504 4.8013C16.1716 4.76633 16.1087 4.70335 16.0737 4.62476L15.3292 2.9512C15.1336 2.51148 14.6772 2.24768 14.1986 2.2977L12.3766 2.48812C12.2914 2.49661 12.206 2.47353 12.1367 2.42345L10.6521 1.34753C10.2631 1.06563 9.73704 1.06563 9.34807 1.34753L7.86345 2.42345C7.79403 2.47353 7.70864 2.49661 7.6236 2.48812L5.80145 2.2977C5.3228 2.24767 4.86636 2.51148 4.67076 2.95119L3.9263 4.62476C3.8915 4.70335 3.82852 4.76633 3.74976 4.80096L2.07585 5.54604C1.63631 5.74168 1.37263 6.19799 1.42259 6.67651L1.61279 8.49826C1.62161 8.58347 1.5987 8.66903 1.54845 8.73845L0.472529 10.2231C0.190632 10.612 0.190632 11.1381 0.472528 11.5271L1.54845 13.0117C1.5987 13.0811 1.62161 13.1667 1.61279 13.2519L1.4226 15.0734C1.37263 15.552 1.63638 16.0083 2.07599 16.2039L3.74976 16.9487C3.82835 16.9837 3.89133 17.0466 3.9263 17.1254L4.67076 18.799C4.86636 19.2387 5.3228 19.5025 5.80144 19.4525L7.6236 19.262C7.63531 19.262 7.64753 19.2602 7.65823 19.2602C7.73156 19.2602 7.80285 19.2834 7.8621 19.3267L9.34818 20.4029C9.73712 20.6846 10.263 20.6845 10.6518 20.4027L12.1367 19.3267C12.206 19.2763 12.2914 19.2532 12.3766 19.262L14.1985 19.4525C14.6772 19.5025 15.1336 19.2387 15.3292 18.799L16.0737 17.1254C16.1087 17.0466 16.1716 16.9838 16.2504 16.949L17.9243 16.204C18.3639 16.0083 18.6275 15.552 18.5776 15.0735L18.3874 13.2519C18.3784 13.1667 18.4013 13.0811 18.4517 13.0117L19.5276 11.5271C19.8094 11.1381 19.8094 10.6121 19.5276 10.2231L18.4517 8.73845C18.4013 8.66903 18.3784 8.58347 18.3874 8.49826Z" fill="#30A4DC"/>
<path d="M8.70223 13.4306C8.46466 13.4306 8.23683 13.3438 8.06899 13.1892L6.1545 11.4294C5.9485 11.2399 5.9485 10.9327 6.1545 10.7432C6.36057 10.5538 6.6946 10.5538 6.90067 10.7432L8.70223 12.3999L13.4684 8.01707C13.6745 7.82764 14.0085 7.82764 14.2146 8.01707C14.4206 8.20656 14.4206 8.51373 14.2146 8.70322L9.33547 13.1892C9.16762 13.3438 8.93979 13.4306 8.70223 13.4306Z" fill="white"/>
</svg>
