<svg width="24" height="24" viewBox="0 0 24 24" fill="none" xmlns="http://www.w3.org/2000/svg">
<path d="M21.5306 10.281L17.0306 14.781C16.8899 14.9218 16.699 15.0008 16.5 15.0008C16.301 15.0008 16.1101 14.9218 15.9694 14.781C15.8286 14.6403 15.7496 14.4494 15.7496 14.2504C15.7496 14.0514 15.8286 13.8605 15.9694 13.7198L19.1897 10.5004H12C9.81273 10.5029 7.71575 11.3729 6.16911 12.9195C4.62247 14.4662 3.75248 16.5631 3.75 18.7504C3.75 18.9493 3.67098 19.1401 3.53033 19.2807C3.38968 19.4214 3.19891 19.5004 3 19.5004C2.80109 19.5004 2.61032 19.4214 2.46967 19.2807C2.32902 19.1401 2.25 18.9493 2.25 18.7504C2.25273 16.1654 3.28084 13.687 5.10872 11.8591C6.93661 10.0313 9.41498 9.00315 12 9.00042H19.1897L15.9694 5.78104C15.8997 5.71136 15.8444 5.62863 15.8067 5.53759C15.769 5.44654 15.7496 5.34896 15.7496 5.25042C15.7496 5.15187 15.769 5.05429 15.8067 4.96324C15.8444 4.8722 15.8997 4.78947 15.9694 4.71979C16.1101 4.57906 16.301 4.5 16.5 4.5C16.5985 4.5 16.6961 4.51941 16.7872 4.55712C16.8782 4.59483 16.9609 4.65011 17.0306 4.71979L21.5306 9.21979C21.6004 9.28945 21.6557 9.37216 21.6934 9.46321C21.7312 9.55426 21.7506 9.65186 21.7506 9.75042C21.7506 9.84898 21.7312 9.94657 21.6934 10.0376C21.6557 10.1287 21.6004 10.2114 21.5306 10.281Z" fill="#30A4DC"/>
</svg>
