<svg width="60" height="60" viewBox="0 0 60 60" fill="none" xmlns="http://www.w3.org/2000/svg">
<circle cx="30" cy="30" r="30" fill="#30A4DC"/>
<path d="M28.7726 31.4562L27.431 27.4314L31.4559 28.773M28.7726 31.4562L42.1888 44.8724C42.9298 45.6131 44.1309 45.613 44.8717 44.8721C45.6126 44.1313 45.6127 42.9301 44.872 42.1891L31.4559 28.773M28.7726 31.4562L31.4559 28.773M42.5725 39.8896C44.2684 39.3744 45.4277 37.8103 45.4274 36.0378V18.5969C45.4274 16.374 43.6254 14.572 41.4026 14.572H18.5952C16.3723 14.572 14.5703 16.374 14.5703 18.5969V36.0378C14.5703 38.2607 16.3723 40.0627 18.5952 40.0627H37.3777M40.061 37.3794C41.5429 37.3794 42.7442 36.1781 42.7442 34.6962V25.3049C42.7442 23.823 41.5429 22.6217 40.061 22.6217H19.9368C18.4549 22.6217 17.2535 23.823 17.2535 25.3049V34.6962C17.2535 36.1781 18.4549 37.3794 19.9368 37.3794H34.6945M17.2535 18.5969C17.2535 19.3378 17.8542 19.9385 18.5952 19.9385H20.6076C21.3485 19.9385 21.9492 19.3378 21.9492 18.5969C21.9492 17.8559 21.3485 17.2552 20.6076 17.2552H18.5952C17.8542 17.2552 17.2535 17.8559 17.2535 18.5969ZM42.7442 18.5969C42.7442 19.3378 42.1435 19.9385 41.4026 19.9385H39.3902C38.6492 19.9385 38.0485 19.3378 38.0485 18.5969C38.0485 17.8559 38.6492 17.2552 39.3902 17.2552H41.4026C42.1435 17.2552 42.7442 17.8559 42.7442 18.5969ZM29.9989 17.5893C30.1841 17.5893 30.3343 17.7395 30.3343 17.9247C30.3343 18.11 30.1841 18.2601 29.9989 18.2601C29.8136 18.2601 29.6635 18.11 29.6635 17.9247C29.6635 17.7395 29.8136 17.5893 29.9989 17.5893Z" stroke="white" stroke-width="1.37143" stroke-linecap="round" stroke-linejoin="round"/>
</svg>
