<svg width="60" height="60" viewBox="0 0 60 60" fill="none" xmlns="http://www.w3.org/2000/svg">
<circle cx="30" cy="30" r="30" fill="#30A4DC"/>
<path d="M42.9535 28.8221V17.0664C42.9535 15.9921 42.0135 15.0521 40.9393 15.0521H16.7682C15.6939 15.0521 14.7539 15.9921 14.7539 17.0664V39.2232C14.7539 40.2974 15.6939 41.2374 16.7682 41.2374H28.8255M14.7539 20.511H42.9535M30.5134 25.9101L33.2386 29.4042L30.5134 32.8964M21.3304 32.9047L18.6052 29.4106L21.3304 25.9184M24.4683 33.5479L27.3758 25.259M40.7108 32.4915L41.1222 34.0345C41.3279 34.5489 41.8423 34.8576 42.3567 34.7546L43.8998 34.446C45.2372 34.1374 46.1631 35.7834 45.2372 36.7093L44.2084 37.8409C43.797 38.2523 43.797 38.8697 44.2084 39.2811L45.2372 40.4127C46.1631 41.4415 45.2372 42.9845 43.8998 42.6759L42.3567 42.3674C41.8423 42.2644 41.3279 42.5731 41.1222 43.0875L40.7108 44.6305C40.2993 45.968 38.4474 45.968 38.1389 44.6305L37.7274 43.0875C37.5216 42.5731 37.0073 42.2644 36.4929 42.3674L34.9497 42.6759C33.6124 42.9845 32.6866 41.3386 33.6124 40.4127L34.6412 39.2811C35.0527 38.8697 35.0527 38.2523 34.6412 37.8409L33.6124 36.7093C32.6866 35.6805 33.6124 34.1374 34.9497 34.446L36.4929 34.7546C37.0073 34.8576 37.5216 34.5489 37.7274 34.0345L38.1389 32.4915C38.4474 31.154 40.2993 31.154 40.7108 32.4915ZM37.8572 38.5629C37.857 39.4285 38.5586 40.1303 39.4241 40.1303C40.2897 40.1303 40.9913 39.4285 40.9911 38.5629C40.9913 37.6974 40.2897 36.9956 39.4241 36.9956C38.5586 36.9956 37.857 37.6974 37.8572 38.5629Z" stroke="white" stroke-width="1.71429" stroke-linecap="round" stroke-linejoin="round"/>
</svg>
