<svg width="40" height="40" viewBox="0 0 40 40" fill="none" xmlns="http://www.w3.org/2000/svg">
<g clip-path="url(#clip0_149_3655)">
<circle cx="20" cy="20" r="20" fill="#30A4DC"/>
<g clip-path="url(#clip1_149_3655)">
<path d="M15.6629 16.897C15.8301 16.3666 16.2853 15.7314 16.6149 15.569C16.7613 15.497 16.8701 15.481 17.2253 15.481C17.6429 15.481 17.6637 15.485 17.7725 15.593C17.8429 15.669 18.0349 16.0778 18.3109 16.7386C18.5445 17.3066 18.7373 17.7906 18.7373 17.8162C18.7373 17.933 18.5029 18.3042 18.2357 18.6178C18.0517 18.8314 17.9437 18.9938 17.9437 19.0522C17.9437 19.1066 18.0773 19.357 18.2445 19.6042C18.6493 20.2098 19.3965 20.961 19.9781 21.3458C20.4325 21.6466 21.2437 22.0394 21.4061 22.0394C21.5277 22.0394 21.7493 21.8218 22.1997 21.2538C22.3837 21.0242 22.5469 20.8578 22.6093 20.845C22.6637 20.8282 22.7973 20.849 22.9053 20.8906C23.2189 21.0122 24.8021 21.7842 24.8861 21.8594C25.0485 22.0098 24.9157 22.8706 24.6725 23.221C24.3013 23.765 23.2405 24.2282 22.5421 24.157C22.0333 24.1026 20.8301 23.7058 20.0485 23.3338C19.0461 22.8538 17.9893 21.9762 17.1333 20.9034C16.6445 20.293 16.1517 19.5498 15.9389 19.1066C15.6509 18.5058 15.5461 18.0418 15.5749 17.5066C15.5877 17.277 15.6293 17.0018 15.6629 16.897Z" fill="white"/>
<path fill-rule="evenodd" clip-rule="evenodd" d="M10.8853 17.9993C11.6661 13.9921 14.8613 11.0073 18.9677 10.4473C19.5317 10.3673 21.1149 10.3929 21.6621 10.4841C22.2341 10.5849 22.9901 10.7809 23.4541 10.9561C26.5197 12.0969 28.7845 14.7321 29.4269 17.9025C29.7069 19.2857 29.6445 20.9065 29.2645 22.2681C28.3581 25.4921 25.7261 28.0321 22.4557 28.8425C20.3253 29.3689 18.0861 29.1385 16.0693 28.1945L15.5757 27.9609L12.9949 28.7841C11.5789 29.2353 10.4085 29.5945 10.4005 29.5857C10.3925 29.5777 10.7605 28.4537 11.2237 27.0961L12.0637 24.6193L11.7245 23.9473C10.7845 22.0545 10.4965 20.0073 10.8845 17.9977L10.8853 17.9993ZM27.8229 17.6729C27.0005 14.6649 24.3853 12.3721 21.3069 11.9545C19.6277 11.7289 18.0445 11.9841 16.5869 12.7193C13.0533 14.5065 11.3693 18.5921 12.6429 22.2849C12.8061 22.7569 13.2445 23.6465 13.5165 24.0553L13.7333 24.3817L13.2493 25.8017C13.0811 26.284 12.9195 26.7686 12.7645 27.2553C12.7645 27.2761 13.4365 27.0761 14.2557 26.8169C14.7608 26.6529 15.2675 26.494 15.7757 26.3401C15.7933 26.3401 15.9557 26.4281 16.1357 26.5321C18.0781 27.6897 20.5005 27.9401 22.6853 27.2137C23.9449 26.7947 25.0794 26.0666 25.985 25.096C26.8906 24.1254 27.5384 22.9433 27.8693 21.6577C28.1902 20.3471 28.1742 18.9765 27.8229 17.6737V17.6729Z" fill="white"/>
</g>
</g>
<defs>
<clipPath id="clip0_149_3655">
<rect width="40" height="40" fill="white"/>
</clipPath>
<clipPath id="clip1_149_3655">
<rect width="19.2" height="19.2" fill="white" transform="translate(10.4004 10.3999)"/>
</clipPath>
</defs>
</svg>
