<svg width="60" height="60" viewBox="0 0 60 60" fill="none" xmlns="http://www.w3.org/2000/svg">
<circle cx="30" cy="30" r="30" fill="#30A4DC"/>
<path d="M36.5133 14.5714H33.0847V45.4285H36.5133M25.5418 29.9999H33.0847M18.2733 22.7999C20.1668 22.7999 21.7018 21.2649 21.7018 19.3714C21.7018 17.4778 20.1668 15.9428 18.2733 15.9428C16.3797 15.9428 14.8447 17.4778 14.8447 19.3714C14.8447 21.2649 16.3797 22.7999 18.2733 22.7999ZM42.4103 22.3889C44.0766 22.3889 45.4275 21.0381 45.4275 19.3717C45.4275 17.7054 44.0766 16.3546 42.4103 16.3546C40.7439 16.3546 39.3932 17.7054 39.3932 19.3717C39.3932 21.0381 40.7439 22.3889 42.4103 22.3889ZM42.4103 32.6746C44.0766 32.6746 45.4275 31.3238 45.4275 29.6575C45.4275 27.9912 44.0766 26.6403 42.4103 26.6403C40.7439 26.6403 39.3932 27.9912 39.3932 29.6575C39.3932 31.3238 40.7439 32.6746 42.4103 32.6746ZM42.4103 42.9603C44.0766 42.9603 45.4275 41.6095 45.4275 39.9432C45.4275 38.2769 44.0766 36.926 42.4103 36.926C40.7439 36.926 39.3932 38.2769 39.3932 39.9432C39.3932 41.6095 40.7439 42.9603 42.4103 42.9603ZM22.1132 43.3714L18.2732 37.1999L14.5703 43.3714H22.1132ZM15.2177 33.0856H21.3891V26.9142H15.2177V33.0856Z" stroke="white" stroke-width="1.71429" stroke-linecap="round" stroke-linejoin="round"/>
</svg>
