<svg width="40" height="40" viewBox="0 0 40 40" fill="none" xmlns="http://www.w3.org/2000/svg">
<g clip-path="url(#clip0_149_3653)">
<circle cx="20" cy="20" r="20" fill="#30A4DC"/>
<path d="M17.9196 23.1998L23.3172 20.0798L17.9196 16.9598V23.1998ZM29.942 15.0566C30.0772 15.5454 30.1708 16.2006 30.2332 17.0326C30.306 17.8646 30.3372 18.5822 30.3372 19.2062L30.3996 20.0798C30.3996 22.3574 30.2332 24.0318 29.942 25.103C29.682 26.039 29.0788 26.6422 28.1428 26.9022C27.654 27.0374 26.7596 27.131 25.3868 27.1934C24.0348 27.2662 22.7972 27.2974 21.6532 27.2974L19.9996 27.3598C15.642 27.3598 12.9276 27.1934 11.8564 26.9022C10.9204 26.6422 10.3172 26.039 10.0572 25.103C9.92201 24.6142 9.82841 23.959 9.76601 23.127C9.69321 22.295 9.66201 21.5774 9.66201 20.9534L9.59961 20.0798C9.59961 17.8022 9.76601 16.1278 10.0572 15.0566C10.3172 14.1206 10.9204 13.5174 11.8564 13.2574C12.3452 13.1222 13.2396 13.0286 14.6124 12.9662C15.9644 12.8934 17.202 12.8622 18.346 12.8622L19.9996 12.7998C24.3572 12.7998 27.0716 12.9662 28.1428 13.2574C29.0788 13.5174 29.682 14.1206 29.942 15.0566Z" fill="white"/>
</g>
<defs>
<clipPath id="clip0_149_3653">
<rect width="40" height="40" fill="white"/>
</clipPath>
</defs>
</svg>
