<svg width="834" height="872" viewBox="0 0 834 872" fill="none" xmlns="http://www.w3.org/2000/svg">
<g clip-path="url(#clip0_232_6506)">
<path d="M453.97 -27.93C440.109 -36.0233 423.035 -36.0233 409.173 -27.93L196.261 96.3359L612.619 338.966V830.213L825.024 706.284C838.632 698.36 847 683.859 847 668.094V201.465L453.97 -27.93Z" fill="url(#paint0_linear_232_6506)"/>
<path d="M196.684 226.588L0 339.304L309.099 519.38V884L505.36 771.453C515.418 765.551 521.673 754.76 521.673 743.126V396.8L229.901 226.588C219.674 220.602 206.911 220.602 196.684 226.588Z" fill="url(#paint1_linear_232_6506)"/>
<path d="M215.53 815.964V569.962L4.73108 692.963L215.53 815.964Z" fill="url(#paint2_linear_232_6506)"/>
</g>
<defs>
<linearGradient id="paint0_linear_232_6506" x1="450" y1="141.184" x2="351.008" y2="804.76" gradientUnits="userSpaceOnUse">
<stop stop-color="#30A4DC"/>
<stop offset="0.626802" stop-color="#0A3366"/>
<stop offset="1" stop-color="#00184B"/>
</linearGradient>
<linearGradient id="paint1_linear_232_6506" x1="450" y1="141.184" x2="351.008" y2="804.76" gradientUnits="userSpaceOnUse">
<stop stop-color="#30A4DC"/>
<stop offset="0.626802" stop-color="#0A3366"/>
<stop offset="1" stop-color="#00184B"/>
</linearGradient>
<linearGradient id="paint2_linear_232_6506" x1="450" y1="141.184" x2="351.008" y2="804.76" gradientUnits="userSpaceOnUse">
<stop stop-color="#30A4DC"/>
<stop offset="0.626802" stop-color="#0A3366"/>
<stop offset="1" stop-color="#00184B"/>
</linearGradient>
<clipPath id="clip0_232_6506">
<rect width="847" height="918" fill="white" transform="translate(0 -34)"/>
</clipPath>
</defs>
</svg>
