<svg width="150" height="128" viewBox="0 0 150 128" fill="none" xmlns="http://www.w3.org/2000/svg">
<g clip-path="url(#clip0_149_2942)">
<path d="M146.7 71.8163L147.498 72.5679C149.415 74.6386 151.179 76.8781 152.943 79.3017C157.898 86.4189 161.104 94.4718 159.662 102.878V103.046C159.662 103.246 159.34 103.43 159.34 103.629V104.166L159.186 104.365C159.186 104.749 159.186 104.918 159.033 105.117C157.115 112.403 152.468 117.634 146.394 121.53V121.392V121.591V121.545C149.599 127.88 150.872 134.568 148.955 141.455C145.274 155.505 130.242 162.423 117.28 165.414C98.5669 169.724 77.1231 167.853 58.4096 163.343C39.3741 157.729 18.7279 147.805 4.49341 133.755L2.40732 131.515L7.85263 126.822L27.0569 107.541C23.3756 105.086 19.863 102.295 16.6572 99.1042C15.5374 98.1685 14.4177 97.0487 13.4513 95.9137L12.485 95.1774C10.5676 93.1067 8.80364 90.8518 7.03967 88.4283C1.90114 81.3571 -0.982572 73.2735 0.305896 64.8678L0.459284 64.699V64.1315C0.459284 63.9321 0.612673 63.748 0.612673 63.5793V63.3799C0.612673 63.1805 0.93479 62.843 0.93479 62.6436C2.69876 55.5264 7.65323 50.0964 13.574 46.3537C10.5369 39.9881 9.09508 33.2543 11.0124 26.3211C14.6938 12.2707 29.7412 5.33751 42.856 2.34642C61.5848 -1.77974 82.8598 -0.0771222 101.573 4.41717C120.609 10.0159 141.255 19.9555 155.49 34.1746L157.576 36.2454L152.13 40.9237L132.773 60.2201C136.607 62.843 140.135 65.65 143.326 68.6411C144.445 69.5921 145.565 70.7119 146.685 71.8316L146.7 71.8163ZM24.4647 131.561C35.8308 139.415 49.8965 145.228 62.229 148.956C77.5832 152.53 95.8212 154.57 111.513 151.962C119.351 150.474 132.144 146.731 134.552 137.727C135.518 134.169 134.705 130.794 133.11 127.435C131.193 128.187 129.275 128.555 127.511 129.122C108.798 133.249 87.1854 131.577 68.6407 127.052C63.3641 125.564 57.9188 123.692 52.7956 121.438C48.47 119.75 44.3132 117.894 40.1563 115.839L24.48 131.561H24.4647ZM15.8289 65.0825V65.2819C15.6755 65.4046 15.6755 65.5427 15.6755 65.6654C15.6755 65.8648 15.5221 66.0489 15.5221 66.0489V66.5857C15.2 66.5857 15.2 66.7851 15.2 66.7851V67.3373H15.0466V67.7208C14.8932 68.6565 14.8932 69.7915 15.0466 70.7119C15.2 73.7029 16.4884 76.7094 18.2524 79.317L18.4058 79.7005C21.4429 84.7623 26.244 89.6247 33.2845 94.2878C44.804 102.356 59.0385 108.338 72.1686 112.265C75.8499 113.201 79.6847 114.136 83.5347 114.873C96.174 116.943 109.611 117.695 121.606 115.44C122.081 115.44 122.726 115.241 123.201 115.241C122.403 114.489 121.606 113.753 120.64 112.986C108.476 103.261 92.3239 96.1438 77.5986 91.8335C59.1919 85.4525 42.5645 76.1112 27.5171 63.7327C25.7531 62.0454 23.8358 59.99 21.9184 58.1186C19.3568 59.8059 17.1173 62.0607 15.8442 65.0518L15.8289 65.0825ZM135.656 36.2607C123.983 28.4072 110.056 22.5938 97.5852 18.8357C82.2309 15.2771 64.2998 13.2217 48.6234 16.0287C40.4631 17.3479 27.9773 21.0905 25.5844 30.0791C24.618 33.6531 25.431 37.1964 26.8575 40.3869C28.7749 39.6199 30.5389 39.2518 32.4562 38.6843C51.1697 34.5581 72.7822 36.2454 91.4956 40.7397C96.6188 42.2429 101.895 44.0989 107.172 46.3537C111.498 48.041 115.808 49.9123 119.658 52.1671L135.656 36.2454V36.2607ZM141.577 88.3209C138.693 83.2591 133.57 78.3967 126.698 73.703C115.179 65.466 100.944 59.4838 87.8143 55.5417C84.1329 54.5907 80.1295 53.6704 76.2948 52.9034C63.8089 50.8633 50.372 50.2958 38.5304 52.3666C37.8862 52.3666 37.2573 52.566 36.6131 52.566C37.5794 53.3176 38.5304 54.0692 39.328 54.8054C51.3231 64.5456 67.4902 71.6475 82.2002 75.9731C100.607 82.3388 117.234 91.8949 132.282 104.074C134.199 105.915 136.116 107.755 138.034 109.611C137.88 109.627 137.88 109.657 137.88 109.673H138.034V109.611C140.749 107.924 142.988 105.731 143.955 102.755H144.277V102.218H144.43V101.834C144.584 101.635 144.584 101.451 144.584 101.451V101.068L144.737 100.699V100.316C144.89 99.1809 144.89 98.0611 144.89 97.1254C144.568 94.119 143.448 91.1279 141.684 88.505L141.531 88.3363V88.3669L141.577 88.3209Z" fill="url(#paint0_linear_149_2942)"/>
</g>
<defs>
<linearGradient id="paint0_linear_149_2942" x1="80.0044" y1="-0.00195313" x2="80.0044" y2="167.847" gradientUnits="userSpaceOnUse">
<stop stop-color="#30A4DC"/>
<stop offset="1" stop-color="#0A3366"/>
</linearGradient>
<clipPath id="clip0_149_2942">
<rect width="150" height="128" fill="white"/>
</clipPath>
</defs>
</svg>
