<svg width="137" height="150" viewBox="0 0 137 150" fill="none" xmlns="http://www.w3.org/2000/svg">
<path d="M84.1479 1.12407C81.5785 -0.37469 78.4137 -0.37469 75.8443 1.12407L36.3789 24.1363L113.555 69.0679V160.039L152.926 137.09C155.449 135.622 157 132.937 157 130.017V43.6046L84.1479 1.12407Z" fill="url(#paint0_linear_149_2957)"/>
<path d="M36.4573 48.2569L0 69.1303L57.2946 102.478V170L93.6736 149.158C95.538 148.065 96.6973 146.067 96.6973 143.912V79.7777L42.6145 48.2569C40.7188 47.1485 38.3531 47.1485 36.4573 48.2569Z" fill="url(#paint1_linear_149_2957)"/>
<path d="M39.9507 157.401V111.845L0.876953 134.623L39.9507 157.401Z" fill="url(#paint2_linear_149_2957)"/>
<defs>
<linearGradient id="paint0_linear_149_2957" x1="96.6894" y1="0" x2="96.6894" y2="160.039" gradientUnits="userSpaceOnUse">
<stop stop-color="#30A4DC"/>
<stop offset="1" stop-color="#0A3366"/>
</linearGradient>
<linearGradient id="paint1_linear_149_2957" x1="48.3487" y1="47.4256" x2="48.3487" y2="170" gradientUnits="userSpaceOnUse">
<stop stop-color="#30A4DC"/>
<stop offset="1" stop-color="#0A3366"/>
</linearGradient>
<linearGradient id="paint2_linear_149_2957" x1="3.49963" y1="129.5" x2="44.4996" y2="150.5" gradientUnits="userSpaceOnUse">
<stop stop-color="#30A4DC"/>
<stop offset="1" stop-color="#0A3366"/>
</linearGradient>
</defs>
</svg>
