<svg width="724" height="527" viewBox="0 0 724 527" fill="none" xmlns="http://www.w3.org/2000/svg">
<path fill-rule="evenodd" clip-rule="evenodd" d="M408.001 343.129L348.002 308.487L288.002 343.128L228.002 308.487L228 377.771L348 447.054L468 377.771V308.489L408.001 343.129Z" fill="#4F98BC"/>
<path fill-rule="evenodd" clip-rule="evenodd" d="M408 66.001L528 135.283V273.847L467.999 308.489V239.207L408.001 204.564V135.282L348 100.642L408 66.001Z" fill="#3DA0D0"/>
<path fill-rule="evenodd" clip-rule="evenodd" d="M287.999 135.283L347.999 100.642L288 66L168 135.282V273.846L228 308.487L227.998 239.207L287.999 204.565V135.283Z" fill="#27789F"/>
<path fill-rule="evenodd" clip-rule="evenodd" d="M407.999 343.13L348 308.488L408 273.847V204.564L467.999 239.208V308.49L407.999 343.13Z" fill="#3FADE2"/>
<path fill-rule="evenodd" clip-rule="evenodd" d="M288.002 273.847L288.001 204.564L228 239.207L228.002 308.487L288.002 343.128L348.002 308.487L288.002 273.847Z" fill="#5CC2F3"/>
<path fill-rule="evenodd" clip-rule="evenodd" d="M347.999 169.926L408.001 204.565V135.283L348 100.643L288 135.284V204.566L347.999 169.926Z" fill="#2F94C4"/>
<path fill-rule="evenodd" clip-rule="evenodd" d="M347.999 169.925L288 204.565L288.001 273.847L348.001 308.487L408.001 273.846V204.564L347.999 169.925Z" fill="#30A4DC"/>
<path d="M557.78 133.94V138.02H562.58V139.88H557.78V144.14H563.18V146H555.5V132.08H563.18V133.94H557.78ZM571.548 134.8C572.415 134.8 573.188 134.98 573.868 135.34C574.562 135.7 575.102 136.233 575.488 136.94C575.875 137.647 576.068 138.5 576.068 139.5V146H573.808V139.84C573.808 138.853 573.562 138.1 573.068 137.58C572.575 137.047 571.902 136.78 571.048 136.78C570.195 136.78 569.515 137.047 569.008 137.58C568.515 138.1 568.268 138.853 568.268 139.84V146H565.988V134.98H568.268V136.24C568.642 135.787 569.115 135.433 569.688 135.18C570.275 134.927 570.895 134.8 571.548 134.8ZM583.417 134.8C584.27 134.8 585.023 134.973 585.677 135.32C586.343 135.653 586.863 136.073 587.237 136.58V134.98H589.537V146.18C589.537 147.193 589.323 148.093 588.897 148.88C588.47 149.68 587.85 150.307 587.037 150.76C586.237 151.213 585.277 151.44 584.157 151.44C582.663 151.44 581.423 151.087 580.437 150.38C579.45 149.687 578.89 148.74 578.757 147.54H581.017C581.19 148.113 581.557 148.573 582.117 148.92C582.69 149.28 583.37 149.46 584.157 149.46C585.077 149.46 585.817 149.18 586.377 148.62C586.95 148.06 587.237 147.247 587.237 146.18V144.34C586.85 144.86 586.323 145.3 585.657 145.66C585.003 146.007 584.257 146.18 583.417 146.18C582.457 146.18 581.577 145.94 580.777 145.46C579.99 144.967 579.363 144.287 578.897 143.42C578.443 142.54 578.217 141.547 578.217 140.44C578.217 139.333 578.443 138.353 578.897 137.5C579.363 136.647 579.99 135.987 580.777 135.52C581.577 135.04 582.457 134.8 583.417 134.8ZM587.237 140.48C587.237 139.72 587.077 139.06 586.757 138.5C586.45 137.94 586.043 137.513 585.537 137.22C585.03 136.927 584.483 136.78 583.897 136.78C583.31 136.78 582.763 136.927 582.257 137.22C581.75 137.5 581.337 137.92 581.017 138.48C580.71 139.027 580.557 139.68 580.557 140.44C580.557 141.2 580.71 141.867 581.017 142.44C581.337 143.013 581.75 143.453 582.257 143.76C582.777 144.053 583.323 144.2 583.897 144.2C584.483 144.2 585.03 144.053 585.537 143.76C586.043 143.467 586.45 143.04 586.757 142.48C587.077 141.907 587.237 141.24 587.237 140.48ZM593.691 133.52C593.278 133.52 592.931 133.38 592.651 133.1C592.371 132.82 592.231 132.473 592.231 132.06C592.231 131.647 592.371 131.3 592.651 131.02C592.931 130.74 593.278 130.6 593.691 130.6C594.091 130.6 594.431 130.74 594.711 131.02C594.991 131.3 595.131 131.647 595.131 132.06C595.131 132.473 594.991 132.82 594.711 133.1C594.431 133.38 594.091 133.52 593.691 133.52ZM594.811 134.98V146H592.531V134.98H594.811ZM603.365 134.8C604.231 134.8 605.005 134.98 605.685 135.34C606.378 135.7 606.918 136.233 607.305 136.94C607.691 137.647 607.885 138.5 607.885 139.5V146H605.625V139.84C605.625 138.853 605.378 138.1 604.885 137.58C604.391 137.047 603.718 136.78 602.865 136.78C602.011 136.78 601.331 137.047 600.825 137.58C600.331 138.1 600.085 138.853 600.085 139.84V146H597.805V134.98H600.085V136.24C600.458 135.787 600.931 135.433 601.505 135.18C602.091 134.927 602.711 134.8 603.365 134.8ZM620.893 140.22C620.893 140.633 620.866 141.007 620.813 141.34H612.393C612.46 142.22 612.786 142.927 613.373 143.46C613.96 143.993 614.68 144.26 615.533 144.26C616.76 144.26 617.626 143.747 618.133 142.72H620.593C620.26 143.733 619.653 144.567 618.773 145.22C617.906 145.86 616.826 146.18 615.533 146.18C614.48 146.18 613.533 145.947 612.693 145.48C611.866 145 611.213 144.333 610.733 143.48C610.266 142.613 610.033 141.613 610.033 140.48C610.033 139.347 610.26 138.353 610.713 137.5C611.18 136.633 611.826 135.967 612.653 135.5C613.493 135.033 614.453 134.8 615.533 134.8C616.573 134.8 617.5 135.027 618.313 135.48C619.126 135.933 619.76 136.573 620.213 137.4C620.666 138.213 620.893 139.153 620.893 140.22ZM618.513 139.5C618.5 138.66 618.2 137.987 617.613 137.48C617.026 136.973 616.3 136.72 615.433 136.72C614.646 136.72 613.973 136.973 613.413 137.48C612.853 137.973 612.52 138.647 612.413 139.5H618.513ZM633.237 140.22C633.237 140.633 633.21 141.007 633.157 141.34H624.737C624.803 142.22 625.13 142.927 625.717 143.46C626.303 143.993 627.023 144.26 627.877 144.26C629.103 144.26 629.97 143.747 630.477 142.72H632.937C632.603 143.733 631.997 144.567 631.117 145.22C630.25 145.86 629.17 146.18 627.877 146.18C626.823 146.18 625.877 145.947 625.037 145.48C624.21 145 623.557 144.333 623.077 143.48C622.61 142.613 622.377 141.613 622.377 140.48C622.377 139.347 622.603 138.353 623.057 137.5C623.523 136.633 624.17 135.967 624.997 135.5C625.837 135.033 626.797 134.8 627.877 134.8C628.917 134.8 629.843 135.027 630.657 135.48C631.47 135.933 632.103 136.573 632.557 137.4C633.01 138.213 633.237 139.153 633.237 140.22ZM630.857 139.5C630.843 138.66 630.543 137.987 629.957 137.48C629.37 136.973 628.643 136.72 627.777 136.72C626.99 136.72 626.317 136.973 625.757 137.48C625.197 137.973 624.863 138.647 624.757 139.5H630.857ZM637.76 136.58C638.094 136.02 638.534 135.587 639.08 135.28C639.64 134.96 640.3 134.8 641.06 134.8V137.16H640.48C639.587 137.16 638.907 137.387 638.44 137.84C637.987 138.293 637.76 139.08 637.76 140.2V146H635.48V134.98H637.76V136.58ZM644.316 133.52C643.903 133.52 643.556 133.38 643.276 133.1C642.996 132.82 642.856 132.473 642.856 132.06C642.856 131.647 642.996 131.3 643.276 131.02C643.556 130.74 643.903 130.6 644.316 130.6C644.716 130.6 645.056 130.74 645.336 131.02C645.616 131.3 645.756 131.647 645.756 132.06C645.756 132.473 645.616 132.82 645.336 133.1C645.056 133.38 644.716 133.52 644.316 133.52ZM645.436 134.98V146H643.156V134.98H645.436ZM653.99 134.8C654.856 134.8 655.63 134.98 656.31 135.34C657.003 135.7 657.543 136.233 657.93 136.94C658.316 137.647 658.51 138.5 658.51 139.5V146H656.25V139.84C656.25 138.853 656.003 138.1 655.51 137.58C655.016 137.047 654.343 136.78 653.49 136.78C652.636 136.78 651.956 137.047 651.45 137.58C650.956 138.1 650.71 138.853 650.71 139.84V146H648.43V134.98H650.71V136.24C651.083 135.787 651.556 135.433 652.13 135.18C652.716 134.927 653.336 134.8 653.99 134.8ZM665.858 134.8C666.711 134.8 667.465 134.973 668.118 135.32C668.785 135.653 669.305 136.073 669.678 136.58V134.98H671.978V146.18C671.978 147.193 671.765 148.093 671.338 148.88C670.911 149.68 670.291 150.307 669.478 150.76C668.678 151.213 667.718 151.44 666.598 151.44C665.105 151.44 663.865 151.087 662.878 150.38C661.891 149.687 661.331 148.74 661.198 147.54H663.458C663.631 148.113 663.998 148.573 664.558 148.92C665.131 149.28 665.811 149.46 666.598 149.46C667.518 149.46 668.258 149.18 668.818 148.62C669.391 148.06 669.678 147.247 669.678 146.18V144.34C669.291 144.86 668.765 145.3 668.098 145.66C667.445 146.007 666.698 146.18 665.858 146.18C664.898 146.18 664.018 145.94 663.218 145.46C662.431 144.967 661.805 144.287 661.338 143.42C660.885 142.54 660.658 141.547 660.658 140.44C660.658 139.333 660.885 138.353 661.338 137.5C661.805 136.647 662.431 135.987 663.218 135.52C664.018 135.04 664.898 134.8 665.858 134.8ZM669.678 140.48C669.678 139.72 669.518 139.06 669.198 138.5C668.891 137.94 668.485 137.513 667.978 137.22C667.471 136.927 666.925 136.78 666.338 136.78C665.751 136.78 665.205 136.927 664.698 137.22C664.191 137.5 663.778 137.92 663.458 138.48C663.151 139.027 662.998 139.68 662.998 140.44C662.998 141.2 663.151 141.867 663.458 142.44C663.778 143.013 664.191 143.453 664.698 143.76C665.218 144.053 665.765 144.2 666.338 144.2C666.925 144.2 667.471 144.053 667.978 143.76C668.485 143.467 668.891 143.04 669.198 142.48C669.518 141.907 669.678 141.24 669.678 140.48ZM684.708 132.1C686.188 132.1 687.481 132.387 688.588 132.96C689.708 133.52 690.568 134.333 691.168 135.4C691.781 136.453 692.088 137.687 692.088 139.1C692.088 140.513 691.781 141.74 691.168 142.78C690.568 143.82 689.708 144.62 688.588 145.18C687.481 145.727 686.188 146 684.708 146H680.168V132.1H684.708ZM684.708 144.14C686.335 144.14 687.581 143.7 688.448 142.82C689.315 141.94 689.748 140.7 689.748 139.1C689.748 137.487 689.315 136.227 688.448 135.32C687.581 134.413 686.335 133.96 684.708 133.96H682.448V144.14H684.708ZM705.768 146H703.488L696.628 135.62V146H694.348V132.08H696.628L703.488 142.44V132.08H705.768V146ZM717.142 143.16H711.322L710.322 146H707.942L712.922 132.08H715.562L720.542 146H718.142L717.142 143.16ZM716.502 141.3L714.242 134.84L711.962 141.3H716.502Z" fill="#001648"/>
<path d="M86.8177 132.1V146H84.5377V136.48L80.2977 146H78.7177L74.4577 136.48V146H72.1777V132.1H74.6377L79.5177 143L84.3777 132.1H86.8177ZM94.5945 146.18C93.5545 146.18 92.6145 145.947 91.7745 145.48C90.9345 145 90.2745 144.333 89.7945 143.48C89.3145 142.613 89.0745 141.613 89.0745 140.48C89.0745 139.36 89.3211 138.367 89.8145 137.5C90.3078 136.633 90.9811 135.967 91.8345 135.5C92.6878 135.033 93.6411 134.8 94.6945 134.8C95.7478 134.8 96.7011 135.033 97.5545 135.5C98.4078 135.967 99.0811 136.633 99.5745 137.5C100.068 138.367 100.314 139.36 100.314 140.48C100.314 141.6 100.061 142.593 99.5545 143.46C99.0478 144.327 98.3545 145 97.4745 145.48C96.6078 145.947 95.6478 146.18 94.5945 146.18ZM94.5945 144.2C95.1811 144.2 95.7278 144.06 96.2345 143.78C96.7545 143.5 97.1745 143.08 97.4945 142.52C97.8145 141.96 97.9745 141.28 97.9745 140.48C97.9745 139.68 97.8211 139.007 97.5145 138.46C97.2078 137.9 96.8011 137.48 96.2945 137.2C95.7878 136.92 95.2411 136.78 94.6545 136.78C94.0678 136.78 93.5211 136.92 93.0145 137.2C92.5211 137.48 92.1278 137.9 91.8345 138.46C91.5411 139.007 91.3945 139.68 91.3945 140.48C91.3945 141.667 91.6945 142.587 92.2945 143.24C92.9078 143.88 93.6745 144.2 94.5945 144.2ZM101.808 140.44C101.808 139.333 102.035 138.353 102.488 137.5C102.955 136.647 103.582 135.987 104.368 135.52C105.168 135.04 106.055 134.8 107.028 134.8C107.748 134.8 108.455 134.96 109.148 135.28C109.855 135.587 110.415 136 110.828 136.52V131.2H113.128V146H110.828V144.34C110.455 144.873 109.935 145.313 109.268 145.66C108.615 146.007 107.862 146.18 107.008 146.18C106.048 146.18 105.168 145.94 104.368 145.46C103.582 144.967 102.955 144.287 102.488 143.42C102.035 142.54 101.808 141.547 101.808 140.44ZM110.828 140.48C110.828 139.72 110.668 139.06 110.348 138.5C110.042 137.94 109.635 137.513 109.128 137.22C108.622 136.927 108.075 136.78 107.488 136.78C106.902 136.78 106.355 136.927 105.848 137.22C105.342 137.5 104.928 137.92 104.608 138.48C104.302 139.027 104.148 139.68 104.148 140.44C104.148 141.2 104.302 141.867 104.608 142.44C104.928 143.013 105.342 143.453 105.848 143.76C106.368 144.053 106.915 144.2 107.488 144.2C108.075 144.2 108.622 144.053 109.128 143.76C109.635 143.467 110.042 143.04 110.348 142.48C110.668 141.907 110.828 141.24 110.828 140.48ZM126.223 140.22C126.223 140.633 126.196 141.007 126.143 141.34H117.723C117.79 142.22 118.116 142.927 118.703 143.46C119.29 143.993 120.01 144.26 120.863 144.26C122.09 144.26 122.956 143.747 123.463 142.72H125.923C125.59 143.733 124.983 144.567 124.103 145.22C123.236 145.86 122.156 146.18 120.863 146.18C119.81 146.18 118.863 145.947 118.023 145.48C117.196 145 116.543 144.333 116.063 143.48C115.596 142.613 115.363 141.613 115.363 140.48C115.363 139.347 115.59 138.353 116.043 137.5C116.51 136.633 117.156 135.967 117.983 135.5C118.823 135.033 119.783 134.8 120.863 134.8C121.903 134.8 122.83 135.027 123.643 135.48C124.456 135.933 125.09 136.573 125.543 137.4C125.996 138.213 126.223 139.153 126.223 140.22ZM123.843 139.5C123.83 138.66 123.53 137.987 122.943 137.48C122.356 136.973 121.63 136.72 120.763 136.72C119.976 136.72 119.303 136.973 118.743 137.48C118.183 137.973 117.85 138.647 117.743 139.5H123.843ZM130.747 136.58C131.08 136.02 131.52 135.587 132.067 135.28C132.627 134.96 133.287 134.8 134.047 134.8V137.16H133.467C132.573 137.16 131.893 137.387 131.427 137.84C130.973 138.293 130.747 139.08 130.747 140.2V146H128.467V134.98H130.747V136.58ZM141.703 134.8C142.569 134.8 143.343 134.98 144.023 135.34C144.716 135.7 145.256 136.233 145.643 136.94C146.029 137.647 146.223 138.5 146.223 139.5V146H143.963V139.84C143.963 138.853 143.716 138.1 143.223 137.58C142.729 137.047 142.056 136.78 141.203 136.78C140.349 136.78 139.669 137.047 139.163 137.58C138.669 138.1 138.423 138.853 138.423 139.84V146H136.143V134.98H138.423V136.24C138.796 135.787 139.269 135.433 139.843 135.18C140.429 134.927 141.049 134.8 141.703 134.8ZM27.1209 169.02C27.1209 167.66 27.4342 166.44 28.0609 165.36C28.7009 164.28 29.5609 163.44 30.6409 162.84C31.7342 162.227 32.9275 161.92 34.2209 161.92C35.7009 161.92 37.0142 162.287 38.1609 163.02C39.3209 163.74 40.1609 164.767 40.6809 166.1H37.9409C37.5809 165.367 37.0809 164.82 36.4409 164.46C35.8009 164.1 35.0609 163.92 34.2209 163.92C33.3009 163.92 32.4809 164.127 31.7609 164.54C31.0409 164.953 30.4742 165.547 30.0609 166.32C29.6609 167.093 29.4609 167.993 29.4609 169.02C29.4609 170.047 29.6609 170.947 30.0609 171.72C30.4742 172.493 31.0409 173.093 31.7609 173.52C32.4809 173.933 33.3009 174.14 34.2209 174.14C35.0609 174.14 35.8009 173.96 36.4409 173.6C37.0809 173.24 37.5809 172.693 37.9409 171.96H40.6809C40.1609 173.293 39.3209 174.32 38.1609 175.04C37.0142 175.76 35.7009 176.12 34.2209 176.12C32.9142 176.12 31.7209 175.82 30.6409 175.22C29.5609 174.607 28.7009 173.76 28.0609 172.68C27.4342 171.6 27.1209 170.38 27.1209 169.02ZM42.5896 170.44C42.5896 169.333 42.8163 168.353 43.2696 167.5C43.7363 166.647 44.3629 165.987 45.1496 165.52C45.9496 165.04 46.8296 164.8 47.7896 164.8C48.6563 164.8 49.4096 164.973 50.0496 165.32C50.7029 165.653 51.2229 166.073 51.6096 166.58V164.98H53.9096V176H51.6096V174.36C51.2229 174.88 50.6963 175.313 50.0296 175.66C49.3629 176.007 48.6029 176.18 47.7496 176.18C46.8029 176.18 45.9363 175.94 45.1496 175.46C44.3629 174.967 43.7363 174.287 43.2696 173.42C42.8163 172.54 42.5896 171.547 42.5896 170.44ZM51.6096 170.48C51.6096 169.72 51.4496 169.06 51.1296 168.5C50.8229 167.94 50.4163 167.513 49.9096 167.22C49.4029 166.927 48.8563 166.78 48.2696 166.78C47.6829 166.78 47.1363 166.927 46.6296 167.22C46.1229 167.5 45.7096 167.92 45.3896 168.48C45.0829 169.027 44.9296 169.68 44.9296 170.44C44.9296 171.2 45.0829 171.867 45.3896 172.44C45.7096 173.013 46.1229 173.453 46.6296 173.76C47.1496 174.053 47.6963 174.2 48.2696 174.2C48.8563 174.2 49.4029 174.053 49.9096 173.76C50.4163 173.467 50.8229 173.04 51.1296 172.48C51.4496 171.907 51.6096 171.24 51.6096 170.48ZM59.1843 166.6C59.571 166.093 60.0976 165.667 60.7643 165.32C61.431 164.973 62.1843 164.8 63.0243 164.8C63.9843 164.8 64.8576 165.04 65.6443 165.52C66.4443 165.987 67.071 166.647 67.5243 167.5C67.9776 168.353 68.2043 169.333 68.2043 170.44C68.2043 171.547 67.9776 172.54 67.5243 173.42C67.071 174.287 66.4443 174.967 65.6443 175.46C64.8576 175.94 63.9843 176.18 63.0243 176.18C62.1843 176.18 61.4376 176.013 60.7843 175.68C60.131 175.333 59.5976 174.907 59.1843 174.4V181.24H56.9043V164.98H59.1843V166.6ZM65.8843 170.44C65.8843 169.68 65.7243 169.027 65.4043 168.48C65.0976 167.92 64.6843 167.5 64.1643 167.22C63.6576 166.927 63.111 166.78 62.5243 166.78C61.951 166.78 61.4043 166.927 60.8843 167.22C60.3776 167.513 59.9643 167.94 59.6443 168.5C59.3376 169.06 59.1843 169.72 59.1843 170.48C59.1843 171.24 59.3376 171.907 59.6443 172.48C59.9643 173.04 60.3776 173.467 60.8843 173.76C61.4043 174.053 61.951 174.2 62.5243 174.2C63.111 174.2 63.6576 174.053 64.1643 173.76C64.6843 173.453 65.0976 173.013 65.4043 172.44C65.7243 171.867 65.8843 171.2 65.8843 170.44ZM69.699 170.44C69.699 169.333 69.9257 168.353 70.379 167.5C70.8457 166.647 71.4723 165.987 72.259 165.52C73.059 165.04 73.939 164.8 74.899 164.8C75.7657 164.8 76.519 164.973 77.159 165.32C77.8123 165.653 78.3323 166.073 78.719 166.58V164.98H81.019V176H78.719V174.36C78.3323 174.88 77.8057 175.313 77.139 175.66C76.4723 176.007 75.7123 176.18 74.859 176.18C73.9123 176.18 73.0457 175.94 72.259 175.46C71.4723 174.967 70.8457 174.287 70.379 173.42C69.9257 172.54 69.699 171.547 69.699 170.44ZM78.719 170.48C78.719 169.72 78.559 169.06 78.239 168.5C77.9323 167.94 77.5257 167.513 77.019 167.22C76.5123 166.927 75.9657 166.78 75.379 166.78C74.7923 166.78 74.2457 166.927 73.739 167.22C73.2323 167.5 72.819 167.92 72.499 168.48C72.1923 169.027 72.039 169.68 72.039 170.44C72.039 171.2 72.1923 171.867 72.499 172.44C72.819 173.013 73.2323 173.453 73.739 173.76C74.259 174.053 74.8057 174.2 75.379 174.2C75.9657 174.2 76.5123 174.053 77.019 173.76C77.5257 173.467 77.9323 173.04 78.239 172.48C78.559 171.907 78.719 171.24 78.719 170.48ZM86.2937 166.62C86.6803 166.087 87.207 165.653 87.8737 165.32C88.5537 164.973 89.307 164.8 90.1337 164.8C91.107 164.8 91.987 165.033 92.7737 165.5C93.5603 165.967 94.1803 166.633 94.6337 167.5C95.087 168.353 95.3137 169.333 95.3137 170.44C95.3137 171.547 95.087 172.54 94.6337 173.42C94.1803 174.287 93.5537 174.967 92.7537 175.46C91.967 175.94 91.0937 176.18 90.1337 176.18C89.2803 176.18 88.5203 176.013 87.8537 175.68C87.2003 175.347 86.6803 174.92 86.2937 174.4V176H84.0137V161.2H86.2937V166.62ZM92.9937 170.44C92.9937 169.68 92.8337 169.027 92.5137 168.48C92.207 167.92 91.7937 167.5 91.2737 167.22C90.767 166.927 90.2203 166.78 89.6337 166.78C89.0603 166.78 88.5137 166.927 87.9937 167.22C87.487 167.513 87.0737 167.94 86.7537 168.5C86.447 169.06 86.2937 169.72 86.2937 170.48C86.2937 171.24 86.447 171.907 86.7537 172.48C87.0737 173.04 87.487 173.467 87.9937 173.76C88.5137 174.053 89.0603 174.2 89.6337 174.2C90.2203 174.2 90.767 174.053 91.2737 173.76C91.7937 173.453 92.207 173.013 92.5137 172.44C92.8337 171.867 92.9937 171.2 92.9937 170.44ZM98.7284 163.52C98.315 163.52 97.9684 163.38 97.6884 163.1C97.4084 162.82 97.2684 162.473 97.2684 162.06C97.2684 161.647 97.4084 161.3 97.6884 161.02C97.9684 160.74 98.315 160.6 98.7284 160.6C99.1284 160.6 99.4684 160.74 99.7484 161.02C100.028 161.3 100.168 161.647 100.168 162.06C100.168 162.473 100.028 162.82 99.7484 163.1C99.4684 163.38 99.1284 163.52 98.7284 163.52ZM99.8484 164.98V176H97.5684V164.98H99.8484ZM105.122 161.2V176H102.842V161.2H105.122ZM109.275 163.52C108.862 163.52 108.515 163.38 108.235 163.1C107.955 162.82 107.815 162.473 107.815 162.06C107.815 161.647 107.955 161.3 108.235 161.02C108.515 160.74 108.862 160.6 109.275 160.6C109.675 160.6 110.015 160.74 110.295 161.02C110.575 161.3 110.715 161.647 110.715 162.06C110.715 162.473 110.575 162.82 110.295 163.1C110.015 163.38 109.675 163.52 109.275 163.52ZM110.395 164.98V176H108.115V164.98H110.395ZM116.049 166.84V172.94C116.049 173.353 116.142 173.653 116.329 173.84C116.529 174.013 116.862 174.1 117.329 174.1H118.729V176H116.929C115.902 176 115.115 175.76 114.569 175.28C114.022 174.8 113.749 174.02 113.749 172.94V166.84H112.449V164.98H113.749V162.24H116.049V164.98H118.729V166.84H116.049ZM121.99 163.52C121.577 163.52 121.23 163.38 120.95 163.1C120.67 162.82 120.53 162.473 120.53 162.06C120.53 161.647 120.67 161.3 120.95 161.02C121.23 160.74 121.577 160.6 121.99 160.6C122.39 160.6 122.73 160.74 123.01 161.02C123.29 161.3 123.43 161.647 123.43 162.06C123.43 162.473 123.29 162.82 123.01 163.1C122.73 163.38 122.39 163.52 121.99 163.52ZM123.11 164.98V176H120.83V164.98H123.11ZM136.204 170.22C136.204 170.633 136.177 171.007 136.124 171.34H127.704C127.77 172.22 128.097 172.927 128.684 173.46C129.27 173.993 129.99 174.26 130.844 174.26C132.07 174.26 132.937 173.747 133.444 172.72H135.904C135.57 173.733 134.964 174.567 134.084 175.22C133.217 175.86 132.137 176.18 130.844 176.18C129.79 176.18 128.844 175.947 128.004 175.48C127.177 175 126.524 174.333 126.044 173.48C125.577 172.613 125.344 171.613 125.344 170.48C125.344 169.347 125.57 168.353 126.024 167.5C126.49 166.633 127.137 165.967 127.964 165.5C128.804 165.033 129.764 164.8 130.844 164.8C131.884 164.8 132.81 165.027 133.624 165.48C134.437 165.933 135.07 166.573 135.524 167.4C135.977 168.213 136.204 169.153 136.204 170.22ZM133.824 169.5C133.81 168.66 133.51 167.987 132.924 167.48C132.337 166.973 131.61 166.72 130.744 166.72C129.957 166.72 129.284 166.973 128.724 167.48C128.164 167.973 127.83 168.647 127.724 169.5H133.824ZM142.447 176.18C141.581 176.18 140.801 176.027 140.107 175.72C139.427 175.4 138.887 174.973 138.487 174.44C138.087 173.893 137.874 173.287 137.847 172.62H140.207C140.247 173.087 140.467 173.48 140.867 173.8C141.281 174.107 141.794 174.26 142.407 174.26C143.047 174.26 143.541 174.14 143.887 173.9C144.247 173.647 144.427 173.327 144.427 172.94C144.427 172.527 144.227 172.22 143.827 172.02C143.441 171.82 142.821 171.6 141.967 171.36C141.141 171.133 140.467 170.913 139.947 170.7C139.427 170.487 138.974 170.16 138.587 169.72C138.214 169.28 138.027 168.7 138.027 167.98C138.027 167.393 138.201 166.86 138.547 166.38C138.894 165.887 139.387 165.5 140.027 165.22C140.681 164.94 141.427 164.8 142.267 164.8C143.521 164.8 144.527 165.12 145.287 165.76C146.061 166.387 146.474 167.247 146.527 168.34H144.247C144.207 167.847 144.007 167.453 143.647 167.16C143.287 166.867 142.801 166.72 142.187 166.72C141.587 166.72 141.127 166.833 140.807 167.06C140.487 167.287 140.327 167.587 140.327 167.96C140.327 168.253 140.434 168.5 140.647 168.7C140.861 168.9 141.121 169.06 141.427 169.18C141.734 169.287 142.187 169.427 142.787 169.6C143.587 169.813 144.241 170.033 144.747 170.26C145.267 170.473 145.714 170.793 146.087 171.22C146.461 171.647 146.654 172.213 146.667 172.92C146.667 173.547 146.494 174.107 146.147 174.6C145.801 175.093 145.307 175.48 144.667 175.76C144.041 176.04 143.301 176.18 142.447 176.18Z" fill="#001648"/>
<path d="M106.645 331.94V336.02H111.445V337.88H106.645V342.14H112.045V344H104.365V330.08H112.045V331.94H106.645ZM119.574 338.42L123.134 344H120.554L118.174 340.26L115.934 344H113.554L117.114 338.58L113.554 332.98H116.134L118.514 336.72L120.754 332.98H123.134L119.574 338.42ZM127.114 334.6C127.501 334.093 128.027 333.667 128.694 333.32C129.361 332.973 130.114 332.8 130.954 332.8C131.914 332.8 132.787 333.04 133.574 333.52C134.374 333.987 135.001 334.647 135.454 335.5C135.907 336.353 136.134 337.333 136.134 338.44C136.134 339.547 135.907 340.54 135.454 341.42C135.001 342.287 134.374 342.967 133.574 343.46C132.787 343.94 131.914 344.18 130.954 344.18C130.114 344.18 129.367 344.013 128.714 343.68C128.061 343.333 127.527 342.907 127.114 342.4V349.24H124.834V332.98H127.114V334.6ZM133.814 338.44C133.814 337.68 133.654 337.027 133.334 336.48C133.027 335.92 132.614 335.5 132.094 335.22C131.587 334.927 131.041 334.78 130.454 334.78C129.881 334.78 129.334 334.927 128.814 335.22C128.307 335.513 127.894 335.94 127.574 336.5C127.267 337.06 127.114 337.72 127.114 338.48C127.114 339.24 127.267 339.907 127.574 340.48C127.894 341.04 128.307 341.467 128.814 341.76C129.334 342.053 129.881 342.2 130.454 342.2C131.041 342.2 131.587 342.053 132.094 341.76C132.614 341.453 133.027 341.013 133.334 340.44C133.654 339.867 133.814 339.2 133.814 338.44ZM137.629 338.44C137.629 337.333 137.855 336.353 138.309 335.5C138.775 334.647 139.402 333.987 140.189 333.52C140.989 333.04 141.869 332.8 142.829 332.8C143.695 332.8 144.449 332.973 145.089 333.32C145.742 333.653 146.262 334.073 146.649 334.58V332.98H148.949V344H146.649V342.36C146.262 342.88 145.735 343.313 145.069 343.66C144.402 344.007 143.642 344.18 142.789 344.18C141.842 344.18 140.975 343.94 140.189 343.46C139.402 342.967 138.775 342.287 138.309 341.42C137.855 340.54 137.629 339.547 137.629 338.44ZM146.649 338.48C146.649 337.72 146.489 337.06 146.169 336.5C145.862 335.94 145.455 335.513 144.949 335.22C144.442 334.927 143.895 334.78 143.309 334.78C142.722 334.78 142.175 334.927 141.669 335.22C141.162 335.5 140.749 335.92 140.429 336.48C140.122 337.027 139.969 337.68 139.969 338.44C139.969 339.2 140.122 339.867 140.429 340.44C140.749 341.013 141.162 341.453 141.669 341.76C142.189 342.053 142.735 342.2 143.309 342.2C143.895 342.2 144.442 342.053 144.949 341.76C145.455 341.467 145.862 341.04 146.169 340.48C146.489 339.907 146.649 339.24 146.649 338.48ZM157.503 332.8C158.37 332.8 159.143 332.98 159.823 333.34C160.517 333.7 161.057 334.233 161.443 334.94C161.83 335.647 162.023 336.5 162.023 337.5V344H159.763V337.84C159.763 336.853 159.517 336.1 159.023 335.58C158.53 335.047 157.857 334.78 157.003 334.78C156.15 334.78 155.47 335.047 154.963 335.58C154.47 336.1 154.223 336.853 154.223 337.84V344H151.943V332.98H154.223V334.24C154.597 333.787 155.07 333.433 155.643 333.18C156.23 332.927 156.85 332.8 157.503 332.8ZM164.172 338.44C164.172 337.333 164.398 336.353 164.852 335.5C165.318 334.647 165.945 333.987 166.732 333.52C167.532 333.04 168.418 332.8 169.392 332.8C170.112 332.8 170.818 332.96 171.512 333.28C172.218 333.587 172.778 334 173.192 334.52V329.2H175.492V344H173.192V342.34C172.818 342.873 172.298 343.313 171.632 343.66C170.978 344.007 170.225 344.18 169.372 344.18C168.412 344.18 167.532 343.94 166.732 343.46C165.945 342.967 165.318 342.287 164.852 341.42C164.398 340.54 164.172 339.547 164.172 338.44ZM173.192 338.48C173.192 337.72 173.032 337.06 172.712 336.5C172.405 335.94 171.998 335.513 171.492 335.22C170.985 334.927 170.438 334.78 169.852 334.78C169.265 334.78 168.718 334.927 168.212 335.22C167.705 335.5 167.292 335.92 166.972 336.48C166.665 337.027 166.512 337.68 166.512 338.44C166.512 339.2 166.665 339.867 166.972 340.44C167.292 341.013 167.705 341.453 168.212 341.76C168.732 342.053 169.278 342.2 169.852 342.2C170.438 342.2 170.985 342.053 171.492 341.76C171.998 341.467 172.405 341.04 172.712 340.48C173.032 339.907 173.192 339.24 173.192 338.48ZM188.586 338.22C188.586 338.633 188.56 339.007 188.506 339.34H180.086C180.153 340.22 180.48 340.927 181.066 341.46C181.653 341.993 182.373 342.26 183.226 342.26C184.453 342.26 185.32 341.747 185.826 340.72H188.286C187.953 341.733 187.346 342.567 186.466 343.22C185.6 343.86 184.52 344.18 183.226 344.18C182.173 344.18 181.226 343.947 180.386 343.48C179.56 343 178.906 342.333 178.426 341.48C177.96 340.613 177.726 339.613 177.726 338.48C177.726 337.347 177.953 336.353 178.406 335.5C178.873 334.633 179.52 333.967 180.346 333.5C181.186 333.033 182.146 332.8 183.226 332.8C184.266 332.8 185.193 333.027 186.006 333.48C186.82 333.933 187.453 334.573 187.906 335.4C188.36 336.213 188.586 337.153 188.586 338.22ZM186.206 337.5C186.193 336.66 185.893 335.987 185.306 335.48C184.72 334.973 183.993 334.72 183.126 334.72C182.34 334.72 181.666 334.973 181.106 335.48C180.546 335.973 180.213 336.647 180.106 337.5H186.206ZM190.07 338.44C190.07 337.333 190.297 336.353 190.75 335.5C191.217 334.647 191.843 333.987 192.63 333.52C193.43 333.04 194.317 332.8 195.29 332.8C196.01 332.8 196.717 332.96 197.41 333.28C198.117 333.587 198.677 334 199.09 334.52V329.2H201.39V344H199.09V342.34C198.717 342.873 198.197 343.313 197.53 343.66C196.877 344.007 196.123 344.18 195.27 344.18C194.31 344.18 193.43 343.94 192.63 343.46C191.843 342.967 191.217 342.287 190.75 341.42C190.297 340.54 190.07 339.547 190.07 338.44ZM199.09 338.48C199.09 337.72 198.93 337.06 198.61 336.5C198.303 335.94 197.897 335.513 197.39 335.22C196.883 334.927 196.337 334.78 195.75 334.78C195.163 334.78 194.617 334.927 194.11 335.22C193.603 335.5 193.19 335.92 192.87 336.48C192.563 337.027 192.41 337.68 192.41 338.44C192.41 339.2 192.563 339.867 192.87 340.44C193.19 341.013 193.603 341.453 194.11 341.76C194.63 342.053 195.177 342.2 195.75 342.2C196.337 342.2 196.883 342.053 197.39 341.76C197.897 341.467 198.303 341.04 198.61 340.48C198.93 339.907 199.09 339.24 199.09 338.48ZM24.146 360.1V361.96H20.446V374H18.166V361.96H14.446V360.1H24.146ZM36.5551 368.22C36.5551 368.633 36.5284 369.007 36.4751 369.34H28.0551C28.1217 370.22 28.4484 370.927 29.0351 371.46C29.6217 371.993 30.3417 372.26 31.1951 372.26C32.4217 372.26 33.2884 371.747 33.7951 370.72H36.2551C35.9217 371.733 35.3151 372.567 34.4351 373.22C33.5684 373.86 32.4884 374.18 31.1951 374.18C30.1417 374.18 29.1951 373.947 28.3551 373.48C27.5284 373 26.8751 372.333 26.3951 371.48C25.9284 370.613 25.6951 369.613 25.6951 368.48C25.6951 367.347 25.9217 366.353 26.3751 365.5C26.8417 364.633 27.4884 363.967 28.3151 363.5C29.1551 363.033 30.1151 362.8 31.1951 362.8C32.2351 362.8 33.1617 363.027 33.9751 363.48C34.7884 363.933 35.4217 364.573 35.8751 365.4C36.3284 366.213 36.5551 367.153 36.5551 368.22ZM34.1751 367.5C34.1617 366.66 33.8617 365.987 33.2751 365.48C32.6884 364.973 31.9617 364.72 31.0951 364.72C30.3084 364.72 29.6351 364.973 29.0751 365.48C28.5151 365.973 28.1817 366.647 28.0751 367.5H34.1751ZM38.0388 368.48C38.0388 367.347 38.2655 366.353 38.7188 365.5C39.1855 364.633 39.8255 363.967 40.6388 363.5C41.4522 363.033 42.3855 362.8 43.4388 362.8C44.7722 362.8 45.8722 363.12 46.7388 363.76C47.6188 364.387 48.2122 365.287 48.5188 366.46H46.0588C45.8588 365.913 45.5388 365.487 45.0988 365.18C44.6588 364.873 44.1055 364.72 43.4388 364.72C42.5055 364.72 41.7588 365.053 41.1988 365.72C40.6522 366.373 40.3788 367.293 40.3788 368.48C40.3788 369.667 40.6522 370.593 41.1988 371.26C41.7588 371.927 42.5055 372.26 43.4388 372.26C44.7588 372.26 45.6322 371.68 46.0588 370.52H48.5188C48.1988 371.64 47.5988 372.533 46.7188 373.2C45.8388 373.853 44.7455 374.18 43.4388 374.18C42.3855 374.18 41.4522 373.947 40.6388 373.48C39.8255 373 39.1855 372.333 38.7188 371.48C38.2655 370.613 38.0388 369.613 38.0388 368.48ZM56.491 362.8C57.331 362.8 58.0777 362.98 58.731 363.34C59.3977 363.7 59.9177 364.233 60.291 364.94C60.6777 365.647 60.871 366.5 60.871 367.5V374H58.611V367.84C58.611 366.853 58.3643 366.1 57.871 365.58C57.3777 365.047 56.7043 364.78 55.851 364.78C54.9977 364.78 54.3177 365.047 53.811 365.58C53.3177 366.1 53.071 366.853 53.071 367.84V374H50.791V359.2H53.071V364.26C53.4577 363.793 53.9443 363.433 54.531 363.18C55.131 362.927 55.7843 362.8 56.491 362.8ZM69.3393 362.8C70.206 362.8 70.9793 362.98 71.6593 363.34C72.3526 363.7 72.8926 364.233 73.2793 364.94C73.666 365.647 73.8593 366.5 73.8593 367.5V374H71.5993V367.84C71.5993 366.853 71.3526 366.1 70.8593 365.58C70.366 365.047 69.6926 364.78 68.8393 364.78C67.986 364.78 67.306 365.047 66.7993 365.58C66.306 366.1 66.0593 366.853 66.0593 367.84V374H63.7793V362.98H66.0593V364.24C66.4326 363.787 66.906 363.433 67.4793 363.18C68.066 362.927 68.686 362.8 69.3393 362.8ZM81.5476 374.18C80.5076 374.18 79.5676 373.947 78.7276 373.48C77.8876 373 77.2276 372.333 76.7476 371.48C76.2676 370.613 76.0276 369.613 76.0276 368.48C76.0276 367.36 76.2742 366.367 76.7676 365.5C77.2609 364.633 77.9342 363.967 78.7876 363.5C79.6409 363.033 80.5942 362.8 81.6476 362.8C82.7009 362.8 83.6542 363.033 84.5076 363.5C85.3609 363.967 86.0342 364.633 86.5276 365.5C87.0209 366.367 87.2676 367.36 87.2676 368.48C87.2676 369.6 87.0142 370.593 86.5076 371.46C86.0009 372.327 85.3076 373 84.4276 373.48C83.5609 373.947 82.6009 374.18 81.5476 374.18ZM81.5476 372.2C82.1342 372.2 82.6809 372.06 83.1876 371.78C83.7076 371.5 84.1276 371.08 84.4476 370.52C84.7676 369.96 84.9276 369.28 84.9276 368.48C84.9276 367.68 84.7742 367.007 84.4676 366.46C84.1609 365.9 83.7542 365.48 83.2476 365.2C82.7409 364.92 82.1942 364.78 81.6076 364.78C81.0209 364.78 80.4742 364.92 79.9676 365.2C79.4742 365.48 79.0809 365.9 78.7876 366.46C78.4942 367.007 78.3476 367.68 78.3476 368.48C78.3476 369.667 78.6476 370.587 79.2476 371.24C79.8609 371.88 80.6276 372.2 81.5476 372.2ZM91.8015 359.2V374H89.5215V359.2H91.8015ZM99.5749 374.18C98.5349 374.18 97.5949 373.947 96.7549 373.48C95.9149 373 95.2549 372.333 94.7749 371.48C94.2949 370.613 94.0549 369.613 94.0549 368.48C94.0549 367.36 94.3016 366.367 94.7949 365.5C95.2883 364.633 95.9616 363.967 96.8149 363.5C97.6683 363.033 98.6216 362.8 99.6749 362.8C100.728 362.8 101.682 363.033 102.535 363.5C103.388 363.967 104.062 364.633 104.555 365.5C105.048 366.367 105.295 367.36 105.295 368.48C105.295 369.6 105.042 370.593 104.535 371.46C104.028 372.327 103.335 373 102.455 373.48C101.588 373.947 100.628 374.18 99.5749 374.18ZM99.5749 372.2C100.162 372.2 100.708 372.06 101.215 371.78C101.735 371.5 102.155 371.08 102.475 370.52C102.795 369.96 102.955 369.28 102.955 368.48C102.955 367.68 102.802 367.007 102.495 366.46C102.188 365.9 101.782 365.48 101.275 365.2C100.768 364.92 100.222 364.78 99.6349 364.78C99.0483 364.78 98.5016 364.92 97.9949 365.2C97.5016 365.48 97.1083 365.9 96.8149 366.46C96.5216 367.007 96.3749 367.68 96.3749 368.48C96.3749 369.667 96.6749 370.587 97.2749 371.24C97.8883 371.88 98.6549 372.2 99.5749 372.2ZM111.989 362.8C112.842 362.8 113.595 362.973 114.249 363.32C114.915 363.653 115.435 364.073 115.809 364.58V362.98H118.109V374.18C118.109 375.193 117.895 376.093 117.469 376.88C117.042 377.68 116.422 378.307 115.609 378.76C114.809 379.213 113.849 379.44 112.729 379.44C111.235 379.44 109.995 379.087 109.009 378.38C108.022 377.687 107.462 376.74 107.329 375.54H109.589C109.762 376.113 110.129 376.573 110.689 376.92C111.262 377.28 111.942 377.46 112.729 377.46C113.649 377.46 114.389 377.18 114.949 376.62C115.522 376.06 115.809 375.247 115.809 374.18V372.34C115.422 372.86 114.895 373.3 114.229 373.66C113.575 374.007 112.829 374.18 111.989 374.18C111.029 374.18 110.149 373.94 109.349 373.46C108.562 372.967 107.935 372.287 107.469 371.42C107.015 370.54 106.789 369.547 106.789 368.44C106.789 367.333 107.015 366.353 107.469 365.5C107.935 364.647 108.562 363.987 109.349 363.52C110.149 363.04 111.029 362.8 111.989 362.8ZM115.809 368.48C115.809 367.72 115.649 367.06 115.329 366.5C115.022 365.94 114.615 365.513 114.109 365.22C113.602 364.927 113.055 364.78 112.469 364.78C111.882 364.78 111.335 364.927 110.829 365.22C110.322 365.5 109.909 365.92 109.589 366.48C109.282 367.027 109.129 367.68 109.129 368.44C109.129 369.2 109.282 369.867 109.589 370.44C109.909 371.013 110.322 371.453 110.829 371.76C111.349 372.053 111.895 372.2 112.469 372.2C113.055 372.2 113.602 372.053 114.109 371.76C114.615 371.467 115.022 371.04 115.329 370.48C115.649 369.907 115.809 369.24 115.809 368.48ZM131.024 362.98L124.264 379.18H121.904L124.144 373.82L119.804 362.98H122.344L125.444 371.38L128.664 362.98H131.024ZM146.319 371.16H140.499L139.499 374H137.119L142.099 360.08H144.739L149.719 374H147.319L146.319 371.16ZM145.679 369.3L143.419 362.84L141.139 369.3H145.679ZM151.125 368.48C151.125 367.347 151.351 366.353 151.805 365.5C152.271 364.633 152.911 363.967 153.725 363.5C154.538 363.033 155.471 362.8 156.525 362.8C157.858 362.8 158.958 363.12 159.825 363.76C160.705 364.387 161.298 365.287 161.605 366.46H159.145C158.945 365.913 158.625 365.487 158.185 365.18C157.745 364.873 157.191 364.72 156.525 364.72C155.591 364.72 154.845 365.053 154.285 365.72C153.738 366.373 153.465 367.293 153.465 368.48C153.465 369.667 153.738 370.593 154.285 371.26C154.845 371.927 155.591 372.26 156.525 372.26C157.845 372.26 158.718 371.68 159.145 370.52H161.605C161.285 371.64 160.685 372.533 159.805 373.2C158.925 373.853 157.831 374.18 156.525 374.18C155.471 374.18 154.538 373.947 153.725 373.48C152.911 373 152.271 372.333 151.805 371.48C151.351 370.613 151.125 369.613 151.125 368.48ZM163.117 368.48C163.117 367.347 163.344 366.353 163.797 365.5C164.264 364.633 164.904 363.967 165.717 363.5C166.53 363.033 167.464 362.8 168.517 362.8C169.85 362.8 170.95 363.12 171.817 363.76C172.697 364.387 173.29 365.287 173.597 366.46H171.137C170.937 365.913 170.617 365.487 170.177 365.18C169.737 364.873 169.184 364.72 168.517 364.72C167.584 364.72 166.837 365.053 166.277 365.72C165.73 366.373 165.457 367.293 165.457 368.48C165.457 369.667 165.73 370.593 166.277 371.26C166.837 371.927 167.584 372.26 168.517 372.26C169.837 372.26 170.71 371.68 171.137 370.52H173.597C173.277 371.64 172.677 372.533 171.797 373.2C170.917 373.853 169.824 374.18 168.517 374.18C167.464 374.18 166.53 373.947 165.717 373.48C164.904 373 164.264 372.333 163.797 371.48C163.344 370.613 163.117 369.613 163.117 368.48ZM185.969 368.22C185.969 368.633 185.942 369.007 185.889 369.34H177.469C177.536 370.22 177.862 370.927 178.449 371.46C179.036 371.993 179.756 372.26 180.609 372.26C181.836 372.26 182.702 371.747 183.209 370.72H185.669C185.336 371.733 184.729 372.567 183.849 373.22C182.982 373.86 181.902 374.18 180.609 374.18C179.556 374.18 178.609 373.947 177.769 373.48C176.942 373 176.289 372.333 175.809 371.48C175.342 370.613 175.109 369.613 175.109 368.48C175.109 367.347 175.336 366.353 175.789 365.5C176.256 364.633 176.902 363.967 177.729 363.5C178.569 363.033 179.529 362.8 180.609 362.8C181.649 362.8 182.576 363.027 183.389 363.48C184.202 363.933 184.836 364.573 185.289 365.4C185.742 366.213 185.969 367.153 185.969 368.22ZM183.589 367.5C183.576 366.66 183.276 365.987 182.689 365.48C182.102 364.973 181.376 364.72 180.509 364.72C179.722 364.72 179.049 364.973 178.489 365.48C177.929 365.973 177.596 366.647 177.489 367.5H183.589ZM192.213 374.18C191.346 374.18 190.566 374.027 189.873 373.72C189.193 373.4 188.653 372.973 188.253 372.44C187.853 371.893 187.64 371.287 187.613 370.62H189.973C190.013 371.087 190.233 371.48 190.633 371.8C191.046 372.107 191.56 372.26 192.173 372.26C192.813 372.26 193.306 372.14 193.653 371.9C194.013 371.647 194.193 371.327 194.193 370.94C194.193 370.527 193.993 370.22 193.593 370.02C193.206 369.82 192.586 369.6 191.733 369.36C190.906 369.133 190.233 368.913 189.713 368.7C189.193 368.487 188.74 368.16 188.353 367.72C187.98 367.28 187.793 366.7 187.793 365.98C187.793 365.393 187.966 364.86 188.313 364.38C188.66 363.887 189.153 363.5 189.793 363.22C190.446 362.94 191.193 362.8 192.033 362.8C193.286 362.8 194.293 363.12 195.053 363.76C195.826 364.387 196.24 365.247 196.293 366.34H194.013C193.973 365.847 193.773 365.453 193.413 365.16C193.053 364.867 192.566 364.72 191.953 364.72C191.353 364.72 190.893 364.833 190.573 365.06C190.253 365.287 190.093 365.587 190.093 365.96C190.093 366.253 190.2 366.5 190.413 366.7C190.626 366.9 190.886 367.06 191.193 367.18C191.5 367.287 191.953 367.427 192.553 367.6C193.353 367.813 194.006 368.033 194.513 368.26C195.033 368.473 195.48 368.793 195.853 369.22C196.226 369.647 196.42 370.213 196.433 370.92C196.433 371.547 196.26 372.107 195.913 372.6C195.566 373.093 195.073 373.48 194.433 373.76C193.806 374.04 193.066 374.18 192.213 374.18ZM202.896 374.18C202.03 374.18 201.25 374.027 200.556 373.72C199.876 373.4 199.336 372.973 198.936 372.44C198.536 371.893 198.323 371.287 198.296 370.62H200.656C200.696 371.087 200.916 371.48 201.316 371.8C201.73 372.107 202.243 372.26 202.856 372.26C203.496 372.26 203.99 372.14 204.336 371.9C204.696 371.647 204.876 371.327 204.876 370.94C204.876 370.527 204.676 370.22 204.276 370.02C203.89 369.82 203.27 369.6 202.416 369.36C201.59 369.133 200.916 368.913 200.396 368.7C199.876 368.487 199.423 368.16 199.036 367.72C198.663 367.28 198.476 366.7 198.476 365.98C198.476 365.393 198.65 364.86 198.996 364.38C199.343 363.887 199.836 363.5 200.476 363.22C201.13 362.94 201.876 362.8 202.716 362.8C203.97 362.8 204.976 363.12 205.736 363.76C206.51 364.387 206.923 365.247 206.976 366.34H204.696C204.656 365.847 204.456 365.453 204.096 365.16C203.736 364.867 203.25 364.72 202.636 364.72C202.036 364.72 201.576 364.833 201.256 365.06C200.936 365.287 200.776 365.587 200.776 365.96C200.776 366.253 200.883 366.5 201.096 366.7C201.31 366.9 201.57 367.06 201.876 367.18C202.183 367.287 202.636 367.427 203.236 367.6C204.036 367.813 204.69 368.033 205.196 368.26C205.716 368.473 206.163 368.793 206.536 369.22C206.91 369.647 207.103 370.213 207.116 370.92C207.116 371.547 206.943 372.107 206.596 372.6C206.25 373.093 205.756 373.48 205.116 373.76C204.49 374.04 203.75 374.18 202.896 374.18Z" fill="#001648"/>
<path d="M504.48 322.1V323.96H500.78V336H498.5V323.96H494.78V322.1H504.48ZM509.069 326.58C509.402 326.02 509.842 325.587 510.389 325.28C510.949 324.96 511.609 324.8 512.369 324.8V327.16H511.789C510.896 327.16 510.216 327.387 509.749 327.84C509.296 328.293 509.069 329.08 509.069 330.2V336H506.789V324.98H509.069V326.58ZM524.445 324.98V336H522.165V334.7C521.805 335.153 521.332 335.513 520.745 335.78C520.172 336.033 519.558 336.16 518.905 336.16C518.038 336.16 517.258 335.98 516.565 335.62C515.885 335.26 515.345 334.727 514.945 334.02C514.558 333.313 514.365 332.46 514.365 331.46V324.98H516.625V331.12C516.625 332.107 516.872 332.867 517.365 333.4C517.858 333.92 518.532 334.18 519.385 334.18C520.238 334.18 520.912 333.92 521.405 333.4C521.912 332.867 522.165 332.107 522.165 331.12V324.98H524.445ZM531.453 336.18C530.586 336.18 529.806 336.027 529.113 335.72C528.433 335.4 527.893 334.973 527.493 334.44C527.093 333.893 526.88 333.287 526.853 332.62H529.213C529.253 333.087 529.473 333.48 529.873 333.8C530.286 334.107 530.8 334.26 531.413 334.26C532.053 334.26 532.546 334.14 532.893 333.9C533.253 333.647 533.433 333.327 533.433 332.94C533.433 332.527 533.233 332.22 532.833 332.02C532.446 331.82 531.826 331.6 530.973 331.36C530.146 331.133 529.473 330.913 528.953 330.7C528.433 330.487 527.98 330.16 527.593 329.72C527.22 329.28 527.033 328.7 527.033 327.98C527.033 327.393 527.206 326.86 527.553 326.38C527.9 325.887 528.393 325.5 529.033 325.22C529.686 324.94 530.433 324.8 531.273 324.8C532.526 324.8 533.533 325.12 534.293 325.76C535.066 326.387 535.48 327.247 535.533 328.34H533.253C533.213 327.847 533.013 327.453 532.653 327.16C532.293 326.867 531.806 326.72 531.193 326.72C530.593 326.72 530.133 326.833 529.813 327.06C529.493 327.287 529.333 327.587 529.333 327.96C529.333 328.253 529.44 328.5 529.653 328.7C529.866 328.9 530.126 329.06 530.433 329.18C530.74 329.287 531.193 329.427 531.793 329.6C532.593 329.813 533.246 330.033 533.753 330.26C534.273 330.473 534.72 330.793 535.093 331.22C535.466 331.647 535.66 332.213 535.673 332.92C535.673 333.547 535.5 334.107 535.153 334.6C534.806 335.093 534.313 335.48 533.673 335.76C533.046 336.04 532.306 336.18 531.453 336.18ZM540.797 326.84V332.94C540.797 333.353 540.89 333.653 541.077 333.84C541.277 334.013 541.61 334.1 542.077 334.1H543.477V336H541.677C540.65 336 539.863 335.76 539.317 335.28C538.77 334.8 538.497 334.02 538.497 332.94V326.84H537.197V324.98H538.497V322.24H540.797V324.98H543.477V326.84H540.797ZM555.678 330.22C555.678 330.633 555.651 331.007 555.598 331.34H547.178C547.245 332.22 547.571 332.927 548.158 333.46C548.745 333.993 549.465 334.26 550.318 334.26C551.545 334.26 552.411 333.747 552.918 332.72H555.378C555.045 333.733 554.438 334.567 553.558 335.22C552.691 335.86 551.611 336.18 550.318 336.18C549.265 336.18 548.318 335.947 547.478 335.48C546.651 335 545.998 334.333 545.518 333.48C545.051 332.613 544.818 331.613 544.818 330.48C544.818 329.347 545.045 328.353 545.498 327.5C545.965 326.633 546.611 325.967 547.438 325.5C548.278 325.033 549.238 324.8 550.318 324.8C551.358 324.8 552.285 325.027 553.098 325.48C553.911 325.933 554.545 326.573 554.998 327.4C555.451 328.213 555.678 329.153 555.678 330.22ZM553.298 329.5C553.285 328.66 552.985 327.987 552.398 327.48C551.811 326.973 551.085 326.72 550.218 326.72C549.431 326.72 548.758 326.973 548.198 327.48C547.638 327.973 547.305 328.647 547.198 329.5H553.298ZM557.162 330.44C557.162 329.333 557.389 328.353 557.842 327.5C558.309 326.647 558.935 325.987 559.722 325.52C560.522 325.04 561.409 324.8 562.382 324.8C563.102 324.8 563.809 324.96 564.502 325.28C565.209 325.587 565.769 326 566.182 326.52V321.2H568.482V336H566.182V334.34C565.809 334.873 565.289 335.313 564.622 335.66C563.969 336.007 563.215 336.18 562.362 336.18C561.402 336.18 560.522 335.94 559.722 335.46C558.935 334.967 558.309 334.287 557.842 333.42C557.389 332.54 557.162 331.547 557.162 330.44ZM566.182 330.48C566.182 329.72 566.022 329.06 565.702 328.5C565.395 327.94 564.989 327.513 564.482 327.22C563.975 326.927 563.429 326.78 562.842 326.78C562.255 326.78 561.709 326.927 561.202 327.22C560.695 327.5 560.282 327.92 559.962 328.48C559.655 329.027 559.502 329.68 559.502 330.44C559.502 331.2 559.655 331.867 559.962 332.44C560.282 333.013 560.695 333.453 561.202 333.76C561.722 334.053 562.269 334.2 562.842 334.2C563.429 334.2 563.975 334.053 564.482 333.76C564.989 333.467 565.395 333.04 565.702 332.48C566.022 331.907 566.182 331.24 566.182 330.48ZM494.74 359.02C494.74 357.66 495.053 356.44 495.68 355.36C496.32 354.28 497.18 353.44 498.26 352.84C499.353 352.227 500.547 351.92 501.84 351.92C503.32 351.92 504.633 352.287 505.78 353.02C506.94 353.74 507.78 354.767 508.3 356.1H505.56C505.2 355.367 504.7 354.82 504.06 354.46C503.42 354.1 502.68 353.92 501.84 353.92C500.92 353.92 500.1 354.127 499.38 354.54C498.66 354.953 498.093 355.547 497.68 356.32C497.28 357.093 497.08 357.993 497.08 359.02C497.08 360.047 497.28 360.947 497.68 361.72C498.093 362.493 498.66 363.093 499.38 363.52C500.1 363.933 500.92 364.14 501.84 364.14C502.68 364.14 503.42 363.96 504.06 363.6C504.7 363.24 505.2 362.693 505.56 361.96H508.3C507.78 363.293 506.94 364.32 505.78 365.04C504.633 365.76 503.32 366.12 501.84 366.12C500.533 366.12 499.34 365.82 498.26 365.22C497.18 364.607 496.32 363.76 495.68 362.68C495.053 361.6 494.74 360.38 494.74 359.02ZM515.749 366.18C514.709 366.18 513.769 365.947 512.929 365.48C512.089 365 511.429 364.333 510.949 363.48C510.469 362.613 510.229 361.613 510.229 360.48C510.229 359.36 510.475 358.367 510.969 357.5C511.462 356.633 512.135 355.967 512.989 355.5C513.842 355.033 514.795 354.8 515.849 354.8C516.902 354.8 517.855 355.033 518.709 355.5C519.562 355.967 520.235 356.633 520.729 357.5C521.222 358.367 521.469 359.36 521.469 360.48C521.469 361.6 521.215 362.593 520.709 363.46C520.202 364.327 519.509 365 518.629 365.48C517.762 365.947 516.802 366.18 515.749 366.18ZM515.749 364.2C516.335 364.2 516.882 364.06 517.389 363.78C517.909 363.5 518.329 363.08 518.649 362.52C518.969 361.96 519.129 361.28 519.129 360.48C519.129 359.68 518.975 359.007 518.669 358.46C518.362 357.9 517.955 357.48 517.449 357.2C516.942 356.92 516.395 356.78 515.809 356.78C515.222 356.78 514.675 356.92 514.169 357.2C513.675 357.48 513.282 357.9 512.989 358.46C512.695 359.007 512.549 359.68 512.549 360.48C512.549 361.667 512.849 362.587 513.449 363.24C514.062 363.88 514.829 364.2 515.749 364.2ZM526.003 351.2V366H523.723V351.2H526.003ZM531.276 351.2V366H528.996V351.2H531.276ZM533.51 360.44C533.51 359.333 533.736 358.353 534.19 357.5C534.656 356.647 535.283 355.987 536.07 355.52C536.87 355.04 537.75 354.8 538.71 354.8C539.576 354.8 540.33 354.973 540.97 355.32C541.623 355.653 542.143 356.073 542.53 356.58V354.98H544.83V366H542.53V364.36C542.143 364.88 541.616 365.313 540.95 365.66C540.283 366.007 539.523 366.18 538.67 366.18C537.723 366.18 536.856 365.94 536.07 365.46C535.283 364.967 534.656 364.287 534.19 363.42C533.736 362.54 533.51 361.547 533.51 360.44ZM542.53 360.48C542.53 359.72 542.37 359.06 542.05 358.5C541.743 357.94 541.336 357.513 540.83 357.22C540.323 356.927 539.776 356.78 539.19 356.78C538.603 356.78 538.056 356.927 537.55 357.22C537.043 357.5 536.63 357.92 536.31 358.48C536.003 359.027 535.85 359.68 535.85 360.44C535.85 361.2 536.003 361.867 536.31 362.44C536.63 363.013 537.043 363.453 537.55 363.76C538.07 364.053 538.616 364.2 539.19 364.2C539.776 364.2 540.323 364.053 540.83 363.76C541.336 363.467 541.743 363.04 542.05 362.48C542.37 361.907 542.53 361.24 542.53 360.48ZM550.104 356.62C550.491 356.087 551.018 355.653 551.684 355.32C552.364 354.973 553.118 354.8 553.944 354.8C554.918 354.8 555.798 355.033 556.584 355.5C557.371 355.967 557.991 356.633 558.444 357.5C558.898 358.353 559.124 359.333 559.124 360.44C559.124 361.547 558.898 362.54 558.444 363.42C557.991 364.287 557.364 364.967 556.564 365.46C555.778 365.94 554.904 366.18 553.944 366.18C553.091 366.18 552.331 366.013 551.664 365.68C551.011 365.347 550.491 364.92 550.104 364.4V366H547.824V351.2H550.104V356.62ZM556.804 360.44C556.804 359.68 556.644 359.027 556.324 358.48C556.018 357.92 555.604 357.5 555.084 357.22C554.578 356.927 554.031 356.78 553.444 356.78C552.871 356.78 552.324 356.927 551.804 357.22C551.298 357.513 550.884 357.94 550.564 358.5C550.258 359.06 550.104 359.72 550.104 360.48C550.104 361.24 550.258 361.907 550.564 362.48C550.884 363.04 551.298 363.467 551.804 363.76C552.324 364.053 552.871 364.2 553.444 364.2C554.031 364.2 554.578 364.053 555.084 363.76C555.604 363.453 556.018 363.013 556.324 362.44C556.644 361.867 556.804 361.2 556.804 360.44ZM566.159 366.18C565.119 366.18 564.179 365.947 563.339 365.48C562.499 365 561.839 364.333 561.359 363.48C560.879 362.613 560.639 361.613 560.639 360.48C560.639 359.36 560.886 358.367 561.379 357.5C561.872 356.633 562.546 355.967 563.399 355.5C564.252 355.033 565.206 354.8 566.259 354.8C567.312 354.8 568.266 355.033 569.119 355.5C569.972 355.967 570.646 356.633 571.139 357.5C571.632 358.367 571.879 359.36 571.879 360.48C571.879 361.6 571.626 362.593 571.119 363.46C570.612 364.327 569.919 365 569.039 365.48C568.172 365.947 567.212 366.18 566.159 366.18ZM566.159 364.2C566.746 364.2 567.292 364.06 567.799 363.78C568.319 363.5 568.739 363.08 569.059 362.52C569.379 361.96 569.539 361.28 569.539 360.48C569.539 359.68 569.386 359.007 569.079 358.46C568.772 357.9 568.366 357.48 567.859 357.2C567.352 356.92 566.806 356.78 566.219 356.78C565.632 356.78 565.086 356.92 564.579 357.2C564.086 357.48 563.692 357.9 563.399 358.46C563.106 359.007 562.959 359.68 562.959 360.48C562.959 361.667 563.259 362.587 563.859 363.24C564.472 363.88 565.239 364.2 566.159 364.2ZM576.413 356.58C576.746 356.02 577.186 355.587 577.733 355.28C578.293 354.96 578.953 354.8 579.713 354.8V357.16H579.133C578.239 357.16 577.559 357.387 577.093 357.84C576.639 358.293 576.413 359.08 576.413 360.2V366H574.133V354.98H576.413V356.58ZM581.049 360.44C581.049 359.333 581.275 358.353 581.729 357.5C582.195 356.647 582.822 355.987 583.609 355.52C584.409 355.04 585.289 354.8 586.249 354.8C587.115 354.8 587.869 354.973 588.509 355.32C589.162 355.653 589.682 356.073 590.069 356.58V354.98H592.369V366H590.069V364.36C589.682 364.88 589.155 365.313 588.489 365.66C587.822 366.007 587.062 366.18 586.209 366.18C585.262 366.18 584.395 365.94 583.609 365.46C582.822 364.967 582.195 364.287 581.729 363.42C581.275 362.54 581.049 361.547 581.049 360.44ZM590.069 360.48C590.069 359.72 589.909 359.06 589.589 358.5C589.282 357.94 588.875 357.513 588.369 357.22C587.862 356.927 587.315 356.78 586.729 356.78C586.142 356.78 585.595 356.927 585.089 357.22C584.582 357.5 584.169 357.92 583.849 358.48C583.542 359.027 583.389 359.68 583.389 360.44C583.389 361.2 583.542 361.867 583.849 362.44C584.169 363.013 584.582 363.453 585.089 363.76C585.609 364.053 586.155 364.2 586.729 364.2C587.315 364.2 587.862 364.053 588.369 363.76C588.875 363.467 589.282 363.04 589.589 362.48C589.909 361.907 590.069 361.24 590.069 360.48ZM598.023 356.84V362.94C598.023 363.353 598.117 363.653 598.303 363.84C598.503 364.013 598.837 364.1 599.303 364.1H600.703V366H598.903C597.877 366 597.09 365.76 596.543 365.28C595.997 364.8 595.723 364.02 595.723 362.94V356.84H594.423V354.98H595.723V352.24H598.023V354.98H600.703V356.84H598.023ZM603.965 353.52C603.551 353.52 603.205 353.38 602.925 353.1C602.645 352.82 602.505 352.473 602.505 352.06C602.505 351.647 602.645 351.3 602.925 351.02C603.205 350.74 603.551 350.6 603.965 350.6C604.365 350.6 604.705 350.74 604.985 351.02C605.265 351.3 605.405 351.647 605.405 352.06C605.405 352.473 605.265 352.82 604.985 353.1C604.705 353.38 604.365 353.52 603.965 353.52ZM605.085 354.98V366H602.805V354.98H605.085ZM612.858 366.18C611.818 366.18 610.878 365.947 610.038 365.48C609.198 365 608.538 364.333 608.058 363.48C607.578 362.613 607.338 361.613 607.338 360.48C607.338 359.36 607.585 358.367 608.078 357.5C608.571 356.633 609.245 355.967 610.098 355.5C610.951 355.033 611.905 354.8 612.958 354.8C614.011 354.8 614.965 355.033 615.818 355.5C616.671 355.967 617.345 356.633 617.838 357.5C618.331 358.367 618.578 359.36 618.578 360.48C618.578 361.6 618.325 362.593 617.818 363.46C617.311 364.327 616.618 365 615.738 365.48C614.871 365.947 613.911 366.18 612.858 366.18ZM612.858 364.2C613.445 364.2 613.991 364.06 614.498 363.78C615.018 363.5 615.438 363.08 615.758 362.52C616.078 361.96 616.238 361.28 616.238 360.48C616.238 359.68 616.085 359.007 615.778 358.46C615.471 357.9 615.065 357.48 614.558 357.2C614.051 356.92 613.505 356.78 612.918 356.78C612.331 356.78 611.785 356.92 611.278 357.2C610.785 357.48 610.391 357.9 610.098 358.46C609.805 359.007 609.658 359.68 609.658 360.48C609.658 361.667 609.958 362.587 610.558 363.24C611.171 363.88 611.938 364.2 612.858 364.2ZM626.392 354.8C627.259 354.8 628.032 354.98 628.712 355.34C629.405 355.7 629.945 356.233 630.332 356.94C630.719 357.647 630.912 358.5 630.912 359.5V366H628.652V359.84C628.652 358.853 628.405 358.1 627.912 357.58C627.419 357.047 626.745 356.78 625.892 356.78C625.039 356.78 624.359 357.047 623.852 357.58C623.359 358.1 623.112 358.853 623.112 359.84V366H620.832V354.98H623.112V356.24C623.485 355.787 623.959 355.433 624.532 355.18C625.119 354.927 625.739 354.8 626.392 354.8Z" fill="#001648"/>
<path d="M314.115 479.24C314.115 479.947 313.948 480.613 313.615 481.24C313.281 481.867 312.748 482.38 312.015 482.78C311.281 483.167 310.341 483.36 309.195 483.36H306.675V489H304.395V475.1H309.195C310.261 475.1 311.161 475.287 311.895 475.66C312.641 476.02 313.195 476.513 313.555 477.14C313.928 477.767 314.115 478.467 314.115 479.24ZM309.195 481.5C310.061 481.5 310.708 481.307 311.135 480.92C311.561 480.52 311.775 479.96 311.775 479.24C311.775 477.72 310.915 476.96 309.195 476.96H306.675V481.5H309.195ZM318.569 474.2V489H316.289V474.2H318.569ZM320.803 483.44C320.803 482.333 321.029 481.353 321.483 480.5C321.949 479.647 322.576 478.987 323.363 478.52C324.163 478.04 325.043 477.8 326.003 477.8C326.869 477.8 327.623 477.973 328.263 478.32C328.916 478.653 329.436 479.073 329.823 479.58V477.98H332.123V489H329.823V487.36C329.436 487.88 328.909 488.313 328.243 488.66C327.576 489.007 326.816 489.18 325.963 489.18C325.016 489.18 324.149 488.94 323.363 488.46C322.576 487.967 321.949 487.287 321.483 486.42C321.029 485.54 320.803 484.547 320.803 483.44ZM329.823 483.48C329.823 482.72 329.663 482.06 329.343 481.5C329.036 480.94 328.629 480.513 328.123 480.22C327.616 479.927 327.069 479.78 326.483 479.78C325.896 479.78 325.349 479.927 324.843 480.22C324.336 480.5 323.923 480.92 323.603 481.48C323.296 482.027 323.143 482.68 323.143 483.44C323.143 484.2 323.296 484.867 323.603 485.44C323.923 486.013 324.336 486.453 324.843 486.76C325.363 487.053 325.909 487.2 326.483 487.2C327.069 487.2 327.616 487.053 328.123 486.76C328.629 486.467 329.036 486.04 329.343 485.48C329.663 484.907 329.823 484.24 329.823 483.48ZM337.777 479.84V485.94C337.777 486.353 337.871 486.653 338.057 486.84C338.257 487.013 338.591 487.1 339.057 487.1H340.457V489H338.657C337.631 489 336.844 488.76 336.297 488.28C335.751 487.8 335.477 487.02 335.477 485.94V479.84H334.177V477.98H335.477V475.24H337.777V477.98H340.457V479.84H337.777ZM347.179 479.84H345.139V489H342.839V479.84H341.539V477.98H342.839V477.2C342.839 475.933 343.172 475.013 343.839 474.44C344.519 473.853 345.579 473.56 347.019 473.56V475.46C346.325 475.46 345.839 475.593 345.559 475.86C345.279 476.113 345.139 476.56 345.139 477.2V477.98H347.179V479.84ZM353.979 489.18C352.939 489.18 351.999 488.947 351.159 488.48C350.319 488 349.659 487.333 349.179 486.48C348.699 485.613 348.459 484.613 348.459 483.48C348.459 482.36 348.706 481.367 349.199 480.5C349.693 479.633 350.366 478.967 351.219 478.5C352.073 478.033 353.026 477.8 354.079 477.8C355.133 477.8 356.086 478.033 356.939 478.5C357.793 478.967 358.466 479.633 358.959 480.5C359.453 481.367 359.699 482.36 359.699 483.48C359.699 484.6 359.446 485.593 358.939 486.46C358.433 487.327 357.739 488 356.859 488.48C355.993 488.947 355.033 489.18 353.979 489.18ZM353.979 487.2C354.566 487.2 355.113 487.06 355.619 486.78C356.139 486.5 356.559 486.08 356.879 485.52C357.199 484.96 357.359 484.28 357.359 483.48C357.359 482.68 357.206 482.007 356.899 481.46C356.593 480.9 356.186 480.48 355.679 480.2C355.173 479.92 354.626 479.78 354.039 479.78C353.453 479.78 352.906 479.92 352.399 480.2C351.906 480.48 351.513 480.9 351.219 481.46C350.926 482.007 350.779 482.68 350.779 483.48C350.779 484.667 351.079 485.587 351.679 486.24C352.293 486.88 353.059 487.2 353.979 487.2ZM364.233 479.58C364.566 479.02 365.006 478.587 365.553 478.28C366.113 477.96 366.773 477.8 367.533 477.8V480.16H366.953C366.06 480.16 365.38 480.387 364.913 480.84C364.46 481.293 364.233 482.08 364.233 483.2V489H361.953V477.98H364.233V479.58ZM382.969 477.8C383.836 477.8 384.609 477.98 385.289 478.34C385.982 478.7 386.522 479.233 386.909 479.94C387.309 480.647 387.509 481.5 387.509 482.5V489H385.249V482.84C385.249 481.853 385.002 481.1 384.509 480.58C384.016 480.047 383.342 479.78 382.489 479.78C381.636 479.78 380.956 480.047 380.449 480.58C379.956 481.1 379.709 481.853 379.709 482.84V489H377.449V482.84C377.449 481.853 377.202 481.1 376.709 480.58C376.216 480.047 375.542 479.78 374.689 479.78C373.836 479.78 373.156 480.047 372.649 480.58C372.156 481.1 371.909 481.853 371.909 482.84V489H369.629V477.98H371.909V479.24C372.282 478.787 372.756 478.433 373.329 478.18C373.902 477.927 374.516 477.8 375.169 477.8C376.049 477.8 376.836 477.987 377.529 478.36C378.222 478.733 378.756 479.273 379.129 479.98C379.462 479.313 379.982 478.787 380.689 478.4C381.396 478 382.156 477.8 382.969 477.8ZM296.341 509.24C296.341 509.947 296.174 510.613 295.841 511.24C295.508 511.867 294.974 512.38 294.241 512.78C293.508 513.167 292.568 513.36 291.421 513.36H288.901V519H286.621V505.1H291.421C292.488 505.1 293.388 505.287 294.121 505.66C294.868 506.02 295.421 506.513 295.781 507.14C296.154 507.767 296.341 508.467 296.341 509.24ZM291.421 511.5C292.288 511.5 292.934 511.307 293.361 510.92C293.788 510.52 294.001 509.96 294.001 509.24C294.001 507.72 293.141 506.96 291.421 506.96H288.901V511.5H291.421ZM297.756 513.44C297.756 512.333 297.982 511.353 298.436 510.5C298.902 509.647 299.529 508.987 300.316 508.52C301.116 508.04 301.996 507.8 302.956 507.8C303.822 507.8 304.576 507.973 305.216 508.32C305.869 508.653 306.389 509.073 306.776 509.58V507.98H309.076V519H306.776V517.36C306.389 517.88 305.862 518.313 305.196 518.66C304.529 519.007 303.769 519.18 302.916 519.18C301.969 519.18 301.102 518.94 300.316 518.46C299.529 517.967 298.902 517.287 298.436 516.42C297.982 515.54 297.756 514.547 297.756 513.44ZM306.776 513.48C306.776 512.72 306.616 512.06 306.296 511.5C305.989 510.94 305.582 510.513 305.076 510.22C304.569 509.927 304.022 509.78 303.436 509.78C302.849 509.78 302.302 509.927 301.796 510.22C301.289 510.5 300.876 510.92 300.556 511.48C300.249 512.027 300.096 512.68 300.096 513.44C300.096 514.2 300.249 514.867 300.556 515.44C300.876 516.013 301.289 516.453 301.796 516.76C302.316 517.053 302.862 517.2 303.436 517.2C304.022 517.2 304.569 517.053 305.076 516.76C305.582 516.467 305.989 516.04 306.296 515.48C306.616 514.907 306.776 514.24 306.776 513.48ZM314.35 509.58C314.684 509.02 315.124 508.587 315.67 508.28C316.23 507.96 316.89 507.8 317.65 507.8V510.16H317.07C316.177 510.16 315.497 510.387 315.03 510.84C314.577 511.293 314.35 512.08 314.35 513.2V519H312.07V507.98H314.35V509.58ZM322.406 509.84V515.94C322.406 516.353 322.499 516.653 322.686 516.84C322.886 517.013 323.219 517.1 323.686 517.1H325.086V519H323.286C322.259 519 321.473 518.76 320.926 518.28C320.379 517.8 320.106 517.02 320.106 515.94V509.84H318.806V507.98H320.106V505.24H322.406V507.98H325.086V509.84H322.406ZM332.748 507.8C333.614 507.8 334.388 507.98 335.068 508.34C335.761 508.7 336.301 509.233 336.688 509.94C337.074 510.647 337.268 511.5 337.268 512.5V519H335.008V512.84C335.008 511.853 334.761 511.1 334.268 510.58C333.774 510.047 333.101 509.78 332.248 509.78C331.394 509.78 330.714 510.047 330.208 510.58C329.714 511.1 329.468 511.853 329.468 512.84V519H327.188V507.98H329.468V509.24C329.841 508.787 330.314 508.433 330.888 508.18C331.474 507.927 332.094 507.8 332.748 507.8ZM350.276 513.22C350.276 513.633 350.249 514.007 350.196 514.34H341.776C341.842 515.22 342.169 515.927 342.756 516.46C343.342 516.993 344.062 517.26 344.916 517.26C346.142 517.26 347.009 516.747 347.516 515.72H349.976C349.642 516.733 349.036 517.567 348.156 518.22C347.289 518.86 346.209 519.18 344.916 519.18C343.862 519.18 342.916 518.947 342.076 518.48C341.249 518 340.596 517.333 340.116 516.48C339.649 515.613 339.416 514.613 339.416 513.48C339.416 512.347 339.642 511.353 340.096 510.5C340.562 509.633 341.209 508.967 342.036 508.5C342.876 508.033 343.836 507.8 344.916 507.8C345.956 507.8 346.882 508.027 347.696 508.48C348.509 508.933 349.142 509.573 349.596 510.4C350.049 511.213 350.276 512.153 350.276 513.22ZM347.896 512.5C347.882 511.66 347.582 510.987 346.996 510.48C346.409 509.973 345.682 509.72 344.816 509.72C344.029 509.72 343.356 509.973 342.796 510.48C342.236 510.973 341.902 511.647 341.796 512.5H347.896ZM354.8 509.58C355.133 509.02 355.573 508.587 356.12 508.28C356.68 507.96 357.34 507.8 358.1 507.8V510.16H357.52C356.626 510.16 355.946 510.387 355.48 510.84C355.026 511.293 354.8 512.08 354.8 513.2V519H352.52V507.98H354.8V509.58ZM364.195 519.18C363.329 519.18 362.549 519.027 361.855 518.72C361.175 518.4 360.635 517.973 360.235 517.44C359.835 516.893 359.622 516.287 359.595 515.62H361.955C361.995 516.087 362.215 516.48 362.615 516.8C363.029 517.107 363.542 517.26 364.155 517.26C364.795 517.26 365.289 517.14 365.635 516.9C365.995 516.647 366.175 516.327 366.175 515.94C366.175 515.527 365.975 515.22 365.575 515.02C365.189 514.82 364.569 514.6 363.715 514.36C362.889 514.133 362.215 513.913 361.695 513.7C361.175 513.487 360.722 513.16 360.335 512.72C359.962 512.28 359.775 511.7 359.775 510.98C359.775 510.393 359.949 509.86 360.295 509.38C360.642 508.887 361.135 508.5 361.775 508.22C362.429 507.94 363.175 507.8 364.015 507.8C365.269 507.8 366.275 508.12 367.035 508.76C367.809 509.387 368.222 510.247 368.275 511.34H365.995C365.955 510.847 365.755 510.453 365.395 510.16C365.035 509.867 364.549 509.72 363.935 509.72C363.335 509.72 362.875 509.833 362.555 510.06C362.235 510.287 362.075 510.587 362.075 510.96C362.075 511.253 362.182 511.5 362.395 511.7C362.609 511.9 362.869 512.06 363.175 512.18C363.482 512.287 363.935 512.427 364.535 512.6C365.335 512.813 365.989 513.033 366.495 513.26C367.015 513.473 367.462 513.793 367.835 514.22C368.209 514.647 368.402 515.213 368.415 515.92C368.415 516.547 368.242 517.107 367.895 517.6C367.549 518.093 367.055 518.48 366.415 518.76C365.789 519.04 365.049 519.18 364.195 519.18ZM376.579 507.8C377.419 507.8 378.166 507.98 378.819 508.34C379.486 508.7 380.006 509.233 380.379 509.94C380.766 510.647 380.959 511.5 380.959 512.5V519H378.699V512.84C378.699 511.853 378.452 511.1 377.959 510.58C377.466 510.047 376.792 509.78 375.939 509.78C375.086 509.78 374.406 510.047 373.899 510.58C373.406 511.1 373.159 511.853 373.159 512.84V519H370.879V504.2H373.159V509.26C373.546 508.793 374.032 508.433 374.619 508.18C375.219 507.927 375.872 507.8 376.579 507.8ZM385.027 506.52C384.614 506.52 384.267 506.38 383.987 506.1C383.707 505.82 383.567 505.473 383.567 505.06C383.567 504.647 383.707 504.3 383.987 504.02C384.267 503.74 384.614 503.6 385.027 503.6C385.427 503.6 385.767 503.74 386.047 504.02C386.327 504.3 386.467 504.647 386.467 505.06C386.467 505.473 386.327 505.82 386.047 506.1C385.767 506.38 385.427 506.52 385.027 506.52ZM386.147 507.98V519H383.867V507.98H386.147ZM391.421 509.6C391.807 509.093 392.334 508.667 393.001 508.32C393.667 507.973 394.421 507.8 395.261 507.8C396.221 507.8 397.094 508.04 397.881 508.52C398.681 508.987 399.307 509.647 399.761 510.5C400.214 511.353 400.441 512.333 400.441 513.44C400.441 514.547 400.214 515.54 399.761 516.42C399.307 517.287 398.681 517.967 397.881 518.46C397.094 518.94 396.221 519.18 395.261 519.18C394.421 519.18 393.674 519.013 393.021 518.68C392.367 518.333 391.834 517.907 391.421 517.4V524.24H389.141V507.98H391.421V509.6ZM398.121 513.44C398.121 512.68 397.961 512.027 397.641 511.48C397.334 510.92 396.921 510.5 396.401 510.22C395.894 509.927 395.347 509.78 394.761 509.78C394.187 509.78 393.641 509.927 393.121 510.22C392.614 510.513 392.201 510.94 391.881 511.5C391.574 512.06 391.421 512.72 391.421 513.48C391.421 514.24 391.574 514.907 391.881 515.48C392.201 516.04 392.614 516.467 393.121 516.76C393.641 517.053 394.187 517.2 394.761 517.2C395.347 517.2 395.894 517.053 396.401 516.76C396.921 516.453 397.334 516.013 397.641 515.44C397.961 514.867 398.121 514.2 398.121 513.44ZM406.695 519.18C405.829 519.18 405.049 519.027 404.355 518.72C403.675 518.4 403.135 517.973 402.735 517.44C402.335 516.893 402.122 516.287 402.095 515.62H404.455C404.495 516.087 404.715 516.48 405.115 516.8C405.529 517.107 406.042 517.26 406.655 517.26C407.295 517.26 407.789 517.14 408.135 516.9C408.495 516.647 408.675 516.327 408.675 515.94C408.675 515.527 408.475 515.22 408.075 515.02C407.689 514.82 407.069 514.6 406.215 514.36C405.389 514.133 404.715 513.913 404.195 513.7C403.675 513.487 403.222 513.16 402.835 512.72C402.462 512.28 402.275 511.7 402.275 510.98C402.275 510.393 402.449 509.86 402.795 509.38C403.142 508.887 403.635 508.5 404.275 508.22C404.929 507.94 405.675 507.8 406.515 507.8C407.769 507.8 408.775 508.12 409.535 508.76C410.309 509.387 410.722 510.247 410.775 511.34H408.495C408.455 510.847 408.255 510.453 407.895 510.16C407.535 509.867 407.049 509.72 406.435 509.72C405.835 509.72 405.375 509.833 405.055 510.06C404.735 510.287 404.575 510.587 404.575 510.96C404.575 511.253 404.682 511.5 404.895 511.7C405.109 511.9 405.369 512.06 405.675 512.18C405.982 512.287 406.435 512.427 407.035 512.6C407.835 512.813 408.489 513.033 408.995 513.26C409.515 513.473 409.962 513.793 410.335 514.22C410.709 514.647 410.902 515.213 410.915 515.92C410.915 516.547 410.742 517.107 410.395 517.6C410.049 518.093 409.555 518.48 408.915 518.76C408.289 519.04 407.549 519.18 406.695 519.18Z" fill="#001648"/>
<path d="M253.019 19.16H247.199L246.199 22H243.819L248.799 8.08H251.439L256.419 22H254.019L253.019 19.16ZM252.379 17.3L250.119 10.84L247.839 17.3H252.379ZM257.824 16.44C257.824 15.3333 258.051 14.3533 258.504 13.5C258.971 12.6467 259.597 11.9867 260.384 11.52C261.184 11.04 262.071 10.8 263.044 10.8C263.764 10.8 264.471 10.96 265.164 11.28C265.871 11.5867 266.431 12 266.844 12.52V7.2H269.144V22H266.844V20.34C266.471 20.8733 265.951 21.3133 265.284 21.66C264.631 22.0067 263.877 22.18 263.024 22.18C262.064 22.18 261.184 21.94 260.384 21.46C259.597 20.9667 258.971 20.2867 258.504 19.42C258.051 18.54 257.824 17.5467 257.824 16.44ZM266.844 16.48C266.844 15.72 266.684 15.06 266.364 14.5C266.057 13.94 265.651 13.5133 265.144 13.22C264.637 12.9267 264.091 12.78 263.504 12.78C262.917 12.78 262.371 12.9267 261.864 13.22C261.357 13.5 260.944 13.92 260.624 14.48C260.317 15.0267 260.164 15.68 260.164 16.44C260.164 17.2 260.317 17.8667 260.624 18.44C260.944 19.0133 261.357 19.4533 261.864 19.76C262.384 20.0533 262.931 20.2 263.504 20.2C264.091 20.2 264.637 20.0533 265.144 19.76C265.651 19.4667 266.057 19.04 266.364 18.48C266.684 17.9067 266.844 17.24 266.844 16.48ZM276.399 19.96L279.519 10.98H281.939L277.739 22H275.019L270.839 10.98H273.279L276.399 19.96ZM282.902 16.44C282.902 15.3333 283.129 14.3533 283.582 13.5C284.049 12.6467 284.675 11.9867 285.462 11.52C286.262 11.04 287.142 10.8 288.102 10.8C288.969 10.8 289.722 10.9733 290.362 11.32C291.015 11.6533 291.535 12.0733 291.922 12.58V10.98H294.222V22H291.922V20.36C291.535 20.88 291.009 21.3133 290.342 21.66C289.675 22.0067 288.915 22.18 288.062 22.18C287.115 22.18 286.249 21.94 285.462 21.46C284.675 20.9667 284.049 20.2867 283.582 19.42C283.129 18.54 282.902 17.5467 282.902 16.44ZM291.922 16.48C291.922 15.72 291.762 15.06 291.442 14.5C291.135 13.94 290.729 13.5133 290.222 13.22C289.715 12.9267 289.169 12.78 288.582 12.78C287.995 12.78 287.449 12.9267 286.942 13.22C286.435 13.5 286.022 13.92 285.702 14.48C285.395 15.0267 285.242 15.68 285.242 16.44C285.242 17.2 285.395 17.8667 285.702 18.44C286.022 19.0133 286.435 19.4533 286.942 19.76C287.462 20.0533 288.009 20.2 288.582 20.2C289.169 20.2 289.715 20.0533 290.222 19.76C290.729 19.4667 291.135 19.04 291.442 18.48C291.762 17.9067 291.922 17.24 291.922 16.48ZM302.777 10.8C303.643 10.8 304.417 10.98 305.097 11.34C305.79 11.7 306.33 12.2333 306.717 12.94C307.103 13.6467 307.297 14.5 307.297 15.5V22H305.037V15.84C305.037 14.8533 304.79 14.1 304.297 13.58C303.803 13.0467 303.13 12.78 302.277 12.78C301.423 12.78 300.743 13.0467 300.237 13.58C299.743 14.1 299.497 14.8533 299.497 15.84V22H297.217V10.98H299.497V12.24C299.87 11.7867 300.343 11.4333 300.917 11.18C301.503 10.9267 302.123 10.8 302.777 10.8ZM309.445 16.48C309.445 15.3467 309.672 14.3533 310.125 13.5C310.592 12.6333 311.232 11.9667 312.045 11.5C312.858 11.0333 313.792 10.8 314.845 10.8C316.178 10.8 317.278 11.12 318.145 11.76C319.025 12.3867 319.618 13.2867 319.925 14.46H317.465C317.265 13.9133 316.945 13.4867 316.505 13.18C316.065 12.8733 315.512 12.72 314.845 12.72C313.912 12.72 313.165 13.0533 312.605 13.72C312.058 14.3733 311.785 15.2933 311.785 16.48C311.785 17.6667 312.058 18.5933 312.605 19.26C313.165 19.9267 313.912 20.26 314.845 20.26C316.165 20.26 317.038 19.68 317.465 18.52H319.925C319.605 19.64 319.005 20.5333 318.125 21.2C317.245 21.8533 316.152 22.18 314.845 22.18C313.792 22.18 312.858 21.9467 312.045 21.48C311.232 21 310.592 20.3333 310.125 19.48C309.672 18.6133 309.445 17.6133 309.445 16.48ZM332.297 16.22C332.297 16.6333 332.271 17.0067 332.217 17.34H323.797C323.864 18.22 324.191 18.9267 324.777 19.46C325.364 19.9933 326.084 20.26 326.937 20.26C328.164 20.26 329.031 19.7467 329.537 18.72H331.997C331.664 19.7333 331.057 20.5667 330.177 21.22C329.311 21.86 328.231 22.18 326.937 22.18C325.884 22.18 324.937 21.9467 324.097 21.48C323.271 21 322.617 20.3333 322.137 19.48C321.671 18.6133 321.437 17.6133 321.437 16.48C321.437 15.3467 321.664 14.3533 322.117 13.5C322.584 12.6333 323.231 11.9667 324.057 11.5C324.897 11.0333 325.857 10.8 326.937 10.8C327.977 10.8 328.904 11.0267 329.717 11.48C330.531 11.9333 331.164 12.5733 331.617 13.4C332.071 14.2133 332.297 15.1533 332.297 16.22ZM329.917 15.5C329.904 14.66 329.604 13.9867 329.017 13.48C328.431 12.9733 327.704 12.72 326.837 12.72C326.051 12.72 325.377 12.9733 324.817 13.48C324.257 13.9733 323.924 14.6467 323.817 15.5H329.917ZM333.781 16.44C333.781 15.3333 334.008 14.3533 334.461 13.5C334.928 12.6467 335.554 11.9867 336.341 11.52C337.141 11.04 338.028 10.8 339.001 10.8C339.721 10.8 340.428 10.96 341.121 11.28C341.828 11.5867 342.388 12 342.801 12.52V7.2H345.101V22H342.801V20.34C342.428 20.8733 341.908 21.3133 341.241 21.66C340.588 22.0067 339.834 22.18 338.981 22.18C338.021 22.18 337.141 21.94 336.341 21.46C335.554 20.9667 334.928 20.2867 334.461 19.42C334.008 18.54 333.781 17.5467 333.781 16.44ZM342.801 16.48C342.801 15.72 342.641 15.06 342.321 14.5C342.014 13.94 341.608 13.5133 341.101 13.22C340.594 12.9267 340.048 12.78 339.461 12.78C338.874 12.78 338.328 12.9267 337.821 13.22C337.314 13.5 336.901 13.92 336.581 14.48C336.274 15.0267 336.121 15.68 336.121 16.44C336.121 17.2 336.274 17.8667 336.581 18.44C336.901 19.0133 337.314 19.4533 337.821 19.76C338.341 20.0533 338.888 20.2 339.461 20.2C340.048 20.2 340.594 20.0533 341.101 19.76C341.608 19.4667 342.014 19.04 342.321 18.48C342.641 17.9067 342.801 17.24 342.801 16.48ZM362.271 8.1V9.96H358.571V22H356.291V9.96H352.571V8.1H362.271ZM374.68 16.22C374.68 16.6333 374.653 17.0067 374.6 17.34H366.18C366.247 18.22 366.573 18.9267 367.16 19.46C367.747 19.9933 368.467 20.26 369.32 20.26C370.547 20.26 371.413 19.7467 371.92 18.72H374.38C374.047 19.7333 373.44 20.5667 372.56 21.22C371.693 21.86 370.613 22.18 369.32 22.18C368.267 22.18 367.32 21.9467 366.48 21.48C365.653 21 365 20.3333 364.52 19.48C364.053 18.6133 363.82 17.6133 363.82 16.48C363.82 15.3467 364.047 14.3533 364.5 13.5C364.967 12.6333 365.613 11.9667 366.44 11.5C367.28 11.0333 368.24 10.8 369.32 10.8C370.36 10.8 371.287 11.0267 372.1 11.48C372.913 11.9333 373.547 12.5733 374 13.4C374.453 14.2133 374.68 15.1533 374.68 16.22ZM372.3 15.5C372.287 14.66 371.987 13.9867 371.4 13.48C370.813 12.9733 370.087 12.72 369.22 12.72C368.433 12.72 367.76 12.9733 367.2 13.48C366.64 13.9733 366.307 14.6467 366.2 15.5H372.3ZM376.164 16.48C376.164 15.3467 376.39 14.3533 376.844 13.5C377.31 12.6333 377.95 11.9667 378.764 11.5C379.577 11.0333 380.51 10.8 381.564 10.8C382.897 10.8 383.997 11.12 384.864 11.76C385.744 12.3867 386.337 13.2867 386.644 14.46H384.184C383.984 13.9133 383.664 13.4867 383.224 13.18C382.784 12.8733 382.23 12.72 381.564 12.72C380.63 12.72 379.884 13.0533 379.324 13.72C378.777 14.3733 378.504 15.2933 378.504 16.48C378.504 17.6667 378.777 18.5933 379.324 19.26C379.884 19.9267 380.63 20.26 381.564 20.26C382.884 20.26 383.757 19.68 384.184 18.52H386.644C386.324 19.64 385.724 20.5333 384.844 21.2C383.964 21.8533 382.87 22.18 381.564 22.18C380.51 22.18 379.577 21.9467 378.764 21.48C377.95 21 377.31 20.3333 376.844 19.48C376.39 18.6133 376.164 17.6133 376.164 16.48ZM394.616 10.8C395.456 10.8 396.203 10.98 396.856 11.34C397.523 11.7 398.043 12.2333 398.416 12.94C398.803 13.6467 398.996 14.5 398.996 15.5V22H396.736V15.84C396.736 14.8533 396.489 14.1 395.996 13.58C395.503 13.0467 394.829 12.78 393.976 12.78C393.123 12.78 392.443 13.0467 391.936 13.58C391.443 14.1 391.196 14.8533 391.196 15.84V22H388.916V7.2H391.196V12.26C391.583 11.7933 392.069 11.4333 392.656 11.18C393.256 10.9267 393.909 10.8 394.616 10.8ZM407.464 10.8C408.331 10.8 409.104 10.98 409.784 11.34C410.478 11.7 411.018 12.2333 411.404 12.94C411.791 13.6467 411.984 14.5 411.984 15.5V22H409.724V15.84C409.724 14.8533 409.478 14.1 408.984 13.58C408.491 13.0467 407.818 12.78 406.964 12.78C406.111 12.78 405.431 13.0467 404.924 13.58C404.431 14.1 404.184 14.8533 404.184 15.84V22H401.904V10.98H404.184V12.24C404.558 11.7867 405.031 11.4333 405.604 11.18C406.191 10.9267 406.811 10.8 407.464 10.8ZM416.053 9.52C415.639 9.52 415.293 9.38 415.013 9.1C414.733 8.82 414.593 8.47333 414.593 8.06C414.593 7.64667 414.733 7.3 415.013 7.02C415.293 6.74 415.639 6.6 416.053 6.6C416.453 6.6 416.793 6.74 417.073 7.02C417.353 7.3 417.493 7.64667 417.493 8.06C417.493 8.47333 417.353 8.82 417.073 9.1C416.793 9.38 416.453 9.52 416.053 9.52ZM417.173 10.98V22H414.893V10.98H417.173ZM419.406 16.48C419.406 15.3467 419.633 14.3533 420.086 13.5C420.553 12.6333 421.193 11.9667 422.006 11.5C422.819 11.0333 423.753 10.8 424.806 10.8C426.139 10.8 427.239 11.12 428.106 11.76C428.986 12.3867 429.579 13.2867 429.886 14.46H427.426C427.226 13.9133 426.906 13.4867 426.466 13.18C426.026 12.8733 425.473 12.72 424.806 12.72C423.873 12.72 423.126 13.0533 422.566 13.72C422.019 14.3733 421.746 15.2933 421.746 16.48C421.746 17.6667 422.019 18.5933 422.566 19.26C423.126 19.9267 423.873 20.26 424.806 20.26C426.126 20.26 426.999 19.68 427.426 18.52H429.886C429.566 19.64 428.966 20.5333 428.086 21.2C427.206 21.8533 426.113 22.18 424.806 22.18C423.753 22.18 422.819 21.9467 422.006 21.48C421.193 21 420.553 20.3333 420.086 19.48C419.633 18.6133 419.406 17.6133 419.406 16.48ZM431.398 16.44C431.398 15.3333 431.625 14.3533 432.078 13.5C432.545 12.6467 433.172 11.9867 433.958 11.52C434.758 11.04 435.638 10.8 436.598 10.8C437.465 10.8 438.218 10.9733 438.858 11.32C439.512 11.6533 440.032 12.0733 440.418 12.58V10.98H442.718V22H440.418V20.36C440.032 20.88 439.505 21.3133 438.838 21.66C438.172 22.0067 437.412 22.18 436.558 22.18C435.612 22.18 434.745 21.94 433.958 21.46C433.172 20.9667 432.545 20.2867 432.078 19.42C431.625 18.54 431.398 17.5467 431.398 16.44ZM440.418 16.48C440.418 15.72 440.258 15.06 439.938 14.5C439.632 13.94 439.225 13.5133 438.718 13.22C438.212 12.9267 437.665 12.78 437.078 12.78C436.492 12.78 435.945 12.9267 435.438 13.22C434.932 13.5 434.518 13.92 434.198 14.48C433.892 15.0267 433.738 15.68 433.738 16.44C433.738 17.2 433.892 17.8667 434.198 18.44C434.518 19.0133 434.932 19.4533 435.438 19.76C435.958 20.0533 436.505 20.2 437.078 20.2C437.665 20.2 438.212 20.0533 438.718 19.76C439.225 19.4667 439.632 19.04 439.938 18.48C440.258 17.9067 440.418 17.24 440.418 16.48ZM447.993 7.2V22H445.713V7.2H447.993ZM314.823 38.1C316.303 38.1 317.597 38.3867 318.703 38.96C319.823 39.52 320.683 40.3333 321.283 41.4C321.897 42.4533 322.203 43.6867 322.203 45.1C322.203 46.5133 321.897 47.74 321.283 48.78C320.683 49.82 319.823 50.62 318.703 51.18C317.597 51.7267 316.303 52 314.823 52H310.283V38.1H314.823ZM314.823 50.14C316.45 50.14 317.697 49.7 318.563 48.82C319.43 47.94 319.863 46.7 319.863 45.1C319.863 43.4867 319.43 42.2267 318.563 41.32C317.697 40.4133 316.45 39.96 314.823 39.96H312.563V50.14H314.823ZM334.563 46.22C334.563 46.6333 334.536 47.0067 334.483 47.34H326.063C326.13 48.22 326.456 48.9267 327.043 49.46C327.63 49.9933 328.35 50.26 329.203 50.26C330.43 50.26 331.296 49.7467 331.803 48.72H334.263C333.93 49.7333 333.323 50.5667 332.443 51.22C331.576 51.86 330.496 52.18 329.203 52.18C328.15 52.18 327.203 51.9467 326.363 51.48C325.536 51 324.883 50.3333 324.403 49.48C323.936 48.6133 323.703 47.6133 323.703 46.48C323.703 45.3467 323.93 44.3533 324.383 43.5C324.85 42.6333 325.496 41.9667 326.323 41.5C327.163 41.0333 328.123 40.8 329.203 40.8C330.243 40.8 331.17 41.0267 331.983 41.48C332.796 41.9333 333.43 42.5733 333.883 43.4C334.336 44.2133 334.563 45.1533 334.563 46.22ZM332.183 45.5C332.17 44.66 331.87 43.9867 331.283 43.48C330.696 42.9733 329.97 42.72 329.103 42.72C328.316 42.72 327.643 42.9733 327.083 43.48C326.523 43.9733 326.19 44.6467 326.083 45.5H332.183ZM339.087 37.2V52H336.807V37.2H339.087ZM343.24 39.52C342.827 39.52 342.48 39.38 342.2 39.1C341.92 38.82 341.78 38.4733 341.78 38.06C341.78 37.6467 341.92 37.3 342.2 37.02C342.48 36.74 342.827 36.6 343.24 36.6C343.64 36.6 343.98 36.74 344.26 37.02C344.54 37.3 344.68 37.6467 344.68 38.06C344.68 38.4733 344.54 38.82 344.26 39.1C343.98 39.38 343.64 39.52 343.24 39.52ZM344.36 40.98V52H342.08V40.98H344.36ZM351.614 49.96L354.734 40.98H357.154L352.954 52H350.234L346.054 40.98H348.494L351.614 49.96ZM368.977 46.22C368.977 46.6333 368.95 47.0067 368.897 47.34H360.477C360.544 48.22 360.87 48.9267 361.457 49.46C362.044 49.9933 362.764 50.26 363.617 50.26C364.844 50.26 365.71 49.7467 366.217 48.72H368.677C368.344 49.7333 367.737 50.5667 366.857 51.22C365.99 51.86 364.91 52.18 363.617 52.18C362.564 52.18 361.617 51.9467 360.777 51.48C359.95 51 359.297 50.3333 358.817 49.48C358.35 48.6133 358.117 47.6133 358.117 46.48C358.117 45.3467 358.344 44.3533 358.797 43.5C359.264 42.6333 359.91 41.9667 360.737 41.5C361.577 41.0333 362.537 40.8 363.617 40.8C364.657 40.8 365.584 41.0267 366.397 41.48C367.21 41.9333 367.844 42.5733 368.297 43.4C368.75 44.2133 368.977 45.1533 368.977 46.22ZM366.597 45.5C366.584 44.66 366.284 43.9867 365.697 43.48C365.11 42.9733 364.384 42.72 363.517 42.72C362.73 42.72 362.057 42.9733 361.497 43.48C360.937 43.9733 360.604 44.6467 360.497 45.5H366.597ZM373.501 42.58C373.834 42.02 374.274 41.5867 374.821 41.28C375.381 40.96 376.041 40.8 376.801 40.8V43.16H376.221C375.327 43.16 374.647 43.3867 374.181 43.84C373.727 44.2933 373.501 45.08 373.501 46.2V52H371.221V40.98H373.501V42.58ZM388.816 40.98L382.056 57.18H379.696L381.936 51.82L377.596 40.98H380.136L383.236 49.38L386.456 40.98H388.816Z" fill="#001648"/>
<path fill-rule="evenodd" clip-rule="evenodd" d="M408.001 343.129L348.002 308.487L288.002 343.128L228.002 308.487L228 377.771L348 447.054L468 377.771V308.489L408.001 343.129Z" stroke="white" stroke-linecap="round" stroke-linejoin="round"/>
<path fill-rule="evenodd" clip-rule="evenodd" d="M408 66.001L528 135.283V273.847L467.999 308.489V239.207L408.001 204.564V135.282L348 100.642L408 66.001Z" stroke="white" stroke-linecap="round" stroke-linejoin="round"/>
<path fill-rule="evenodd" clip-rule="evenodd" d="M287.999 135.283L347.999 100.642L288 66L168 135.282V273.846L228 308.487L227.998 239.207L287.999 204.565V135.283Z" stroke="white" stroke-linecap="round" stroke-linejoin="round"/>
<path fill-rule="evenodd" clip-rule="evenodd" d="M407.999 343.13L348 308.488L408 273.847V204.564L467.999 239.208V308.49L407.999 343.13Z" stroke="white" stroke-linecap="round" stroke-linejoin="round"/>
<path fill-rule="evenodd" clip-rule="evenodd" d="M288.002 273.847L288.001 204.564L228 239.207L228.002 308.487L288.002 343.128L348.002 308.487L288.002 273.847Z" stroke="white" stroke-linecap="round" stroke-linejoin="round"/>
<path fill-rule="evenodd" clip-rule="evenodd" d="M347.999 169.926L408.001 204.565V135.283L348 100.643L288 135.284V204.566L347.999 169.926Z" stroke="white" stroke-linecap="round" stroke-linejoin="round"/>
<path fill-rule="evenodd" clip-rule="evenodd" d="M347.999 169.925L288 204.565L288.001 273.847L348.001 308.487L408.001 273.846V204.564L347.999 169.925Z" stroke="white" stroke-linecap="round" stroke-linejoin="round"/>
<path d="M334.5 147.294V137.898M340.5 137.898V147.294M352.338 129.371L340.578 131.262M341.919 135.398L352.109 133.758M354.891 135.468L355.25 139.83M358.746 139.542L358.387 135.188M331.5 153.294H343.5M353.475 139.94L357.037 139.683M357.037 139.683L360.411 139.44M357.037 139.683L357.408 144.186M331.5 160.794H364.5M350.167 160.8V157.628C350.177 156.918 350.76 156.351 351.47 156.36H363.197C363.906 156.35 364.49 156.918 364.5 157.628V160.8M362.16 141.758L363.909 140.606M362.397 145.31L363.854 146.423M352.153 142.614L350.181 141.909M352.765 146.12L351.615 147.546M337.5 146.55C334.186 146.55 331.5 149.236 331.5 152.55V160.8H343.5V152.55C343.5 149.236 340.814 146.55 337.5 146.55ZM333 134.544C333 137.029 335.015 139.044 337.5 139.044C339.985 139.044 342 137.029 342 134.544C342 132.059 339.985 130.044 337.5 130.044C335.015 130.044 333 132.059 333 134.544ZM352.157 131.337C352.157 133.619 354.006 135.468 356.287 135.468C358.569 135.468 360.418 133.619 360.418 131.337C360.418 129.056 358.569 127.206 356.287 127.206C354.006 127.206 352.157 129.056 352.157 131.337ZM352.773 156.36L357.333 147.36L361.895 156.36H352.773ZM336.75 134.436C336.75 134.85 337.086 135.186 337.5 135.186C337.914 135.186 338.25 134.85 338.25 134.436C338.25 134.022 337.914 133.686 337.5 133.686C337.086 133.686 336.75 134.022 336.75 134.436Z" stroke="white" stroke-width="1.4" stroke-linecap="round" stroke-linejoin="round"/>
<path d="M236 151V146M246 151V146M236 190V185M246 190V185M223.6 156.6L226.4 158.6M258.4 156.6L255.6 158.6M223.6 180.6L226.4 178.6M258.4 180.6L255.6 178.6M219.6 168.6H224.4M262.4 168.6H257.6M234 185C232.8 185 232 184.2 232 183V153C232 151.8 232.8 151 234 151H248C249.2 151 250 151.8 250 153V183C250 184.2 249.2 185 248 185H234ZM244 162C244 163.2 243.2 164 242 164H240C238.8 164 238 163.2 238 162V160C238 158.8 238.8 158 240 158H242C243.2 158 244 158.8 244 160V162ZM244 176C244 177.2 243.2 178 242 178H240C238.8 178 238 177.2 238 176V174C238 172.8 238.8 172 240 172H242C243.2 172 244 172.8 244 174V176Z" stroke="white" stroke-width="1.4" stroke-linecap="round" stroke-linejoin="round"/>
<path d="M459.221 188.62C453.359 191.612 446.331 191.165 440.895 187.456C435.458 183.747 432.479 177.367 433.127 170.817C433.774 164.268 437.944 158.594 444.001 156.02M459.001 156.6C462.42 158.39 465.212 161.181 467.001 164.6M452.221 161.36C453.45 162.298 454.284 163.66 454.561 165.18M454.561 165.18C456.041 164.761 457.625 164.911 459.001 165.6M454.561 165.18C454.561 165.18 460.921 152.56 470.301 151.6M465.561 147.5L475.521 156.12M463.001 190.6C463.001 190.6 463.001 178.6 471.001 178.6M471.001 178.6C479.001 178.6 479.001 190.6 479.001 190.6M471.001 178.6C479.001 178.6 479.001 166.6 479.001 166.6M471.001 178.6C463.001 178.6 463.001 166.6 463.001 166.6M463.141 188.6H478.861M464.381 183.6H477.621M478.861 168.6H463.141M477.621 173.6H464.381M446.645 149.194L446.504 146.197C446.477 145.645 446.904 145.177 447.455 145.151L450.452 145.009C454.865 144.8 458.612 148.209 458.821 152.622L459.01 156.617L455.015 156.807C450.601 157.015 446.854 153.607 446.645 149.194Z" stroke="white" stroke-width="1.4" stroke-linecap="round" stroke-linejoin="round"/>
<path d="M348 262.818L320.5 255.318L334.233 251.72M348 262.818L375.5 255.318L361.768 251.72M348 262.818V267.97M320.5 266.72V255.63M375.5 255.63V266.72M342.208 240.403L340.188 241.415C339.045 242.022 337.999 242.793 337.082 243.705C336.634 244.186 335.94 244.351 335.323 244.124C334.706 243.896 334.286 243.32 334.257 242.663C333.817 238.815 335.969 235.138 339.54 233.638M353.792 240.403L355.812 241.415C356.955 242.022 358.001 242.793 358.917 243.705C359.366 244.186 360.06 244.351 360.677 244.124C361.294 243.896 361.714 243.32 361.743 242.663C362.183 238.815 360.031 235.138 356.46 233.638M356.75 225.155C356.75 229.988 355.293 242.655 348 242.655C340.707 242.655 339.25 230 339.25 225.155C339.25 216.405 348 212.03 348 212.03C348 212.03 356.75 216.405 356.75 225.155ZM344.568 224.843C344.567 226.739 346.104 228.276 348 228.276C349.896 228.276 351.433 226.739 351.432 224.843C351.433 222.947 349.896 221.41 348 221.41C346.104 221.41 344.567 222.947 344.568 224.843ZM351.5 250.018C351.5 251.95 349.932 256.625 348 256.625C346.068 256.625 344.5 251.95 344.5 250.018C344.5 248.085 346.067 246.518 348 246.518C349.933 246.518 351.5 248.085 351.5 250.018Z" stroke="white" stroke-width="1.4" stroke-linecap="round" stroke-linejoin="round"/>
<path d="M268.509 271.168V275.028M266.446 279.051V280.793M270.571 279.051V280.793M266.212 304.834C269.987 304.834 273.133 301.531 273.133 297.756C273.133 293.981 269.987 290.835 266.212 290.835C264.796 290.835 263.38 291.307 262.279 292.093C261.335 287.217 257.088 283.442 251.897 283.442C246.077 283.442 241.201 288.161 241.201 294.138C241.201 300.115 245.92 304.834 251.897 304.834H266.212ZM265.219 275.028H271.799C271.799 275.028 274.799 275.028 274.799 278.028V281.814C274.799 281.814 274.799 284.814 271.799 284.814H265.219C265.219 284.814 262.219 284.814 262.219 281.814V278.028C262.219 278.028 262.219 275.028 265.219 275.028Z" stroke="white" stroke-width="1.4" stroke-linecap="round" stroke-linejoin="round"/>
<path d="M454.799 293.4V273.9C454.799 272.4 453.599 271.2 452.099 271.2H450.899C449.999 271.2 449.399 271.8 449.399 272.7V289.2C449.399 290.1 449.999 290.7 450.899 290.7H452.099C453.599 290.7 454.799 291.9 454.799 293.4ZM454.799 293.4C454.799 294.9 453.599 296.1 452.099 296.1H440.549M449.399 273.9H433.799C432.899 273.9 432.299 274.5 432.299 275.4V276.45M430.649 284.55V280.05M422.399 288.9H438.899M440.249 304.8C438.899 300.9 435.149 298.05 430.799 298.05C426.449 298.05 422.549 300.9 421.199 304.8M430.649 296.55C427.349 296.55 424.649 293.85 424.499 290.55V287.55C424.649 284.25 427.349 281.55 430.649 281.55C434.099 281.55 436.799 284.25 436.799 287.7V290.4C436.799 293.85 434.099 296.55 430.649 296.55Z" stroke="white" stroke-width="1.4" stroke-linecap="round" stroke-linejoin="round"/>
<path d="M334.907 359.62C333.739 354.631 335.615 349.422 339.695 346.323C343.776 343.225 349.298 342.817 353.79 345.282C358.282 347.747 360.903 352.624 360.481 357.73M335.819 351.102H338.277C340.26 351.252 341.835 352.828 341.985 354.81V358.264C341.985 358.776 342.441 359.218 342.943 359.618M350.497 344.024C350.497 344.024 348.333 345.728 347.541 346.338C346.206 347.367 345.946 349.278 346.957 350.626L348.819 353.11C349.401 353.885 350.314 354.342 351.283 354.342H353.083C353.9 354.341 354.684 354.666 355.261 355.244L356.683 356.664M364.669 380.218L354.685 381.05M352.857 368.43L345.883 370.736C344.765 371.103 343.55 370.574 343.057 369.506C342.525 368.362 342.995 367.001 344.121 366.43L350.877 363.03C352.041 362.444 353.395 362.366 354.619 362.814L364.619 366.472M345.151 365.912L344.431 365.312C343.253 364.449 341.714 364.256 340.359 364.8L331.409 368.38M325.375 364.956H329.399C330.463 364.911 331.362 365.735 331.411 366.798V379.702C331.362 380.766 330.463 381.59 329.399 381.546H325.375M370.623 381.546H366.599C365.535 381.59 364.636 380.766 364.587 379.702V366.8C364.636 365.737 365.535 364.913 366.599 364.958H370.621M350.095 370L355.295 377.138C355.951 378.039 356.01 379.243 355.446 380.204C354.882 381.165 353.801 381.7 352.695 381.566C352.425 383.009 351.077 383.991 349.621 383.806C349.35 385.249 348.003 386.231 346.547 386.048C346.331 387.136 345.493 387.994 344.411 388.235C343.328 388.477 342.205 388.057 341.547 387.164L336.301 380.572C335.525 379.586 334.355 378.992 333.101 378.946L331.409 378.886M346.555 386.044L345.151 384.32M349.629 383.802L348.427 382.206M352.703 381.562L351.389 379.776" stroke="white" stroke-width="1.4" stroke-linecap="round" stroke-linejoin="round"/>
</svg>
