<svg width="1920" height="827" viewBox="0 0 1920 827" fill="none" xmlns="http://www.w3.org/2000/svg">
<g clip-path="url(#clip0_468_2401)">
<g opacity="0.03">
<g clip-path="url(#clip1_468_2401)">
<path d="M-41 1021.54H1958.66M-41 984.506H1958.66M-41 947.476H1958.66M-41 910.445H1958.66M-41 873.414H1958.66M-41 836.384H1958.66M-41 799.353H1958.66M-41 762.322H1958.66M-41 725.292H1958.66M-41 688.261H1958.66M-41 651.23H1958.66M-41 614.201H1958.66M-41 577.171H1958.66M-41 540.14H1958.66M-41 503.109H1958.66M-41 466.079H1958.66M-41 429.048H1958.66M-41 392.017H1958.66M-41 354.987H1958.66M-41 317.956H1958.66M-41 280.925H1958.66M-41 243.894H1958.66M-41 206.864H1958.66M-41 169.833H1958.66M-41 132.802H1958.66M-41 95.7717H1958.66M-41 58.7391H1958.66M-41 21.7084H1958.66M-41 -15.3223H1958.66M-41 -52.353H1958.66M-41 -89.3836H1958.66M-41 -126.414H1958.66M-41 -163.445H1958.66M-41 -200.476H1958.66M-41 -237.506H1958.66M-41 -274.537H1958.66M-40.5371 -274.074V1022M-3.50642 -274.074V1022M33.5243 -274.074V1022M70.555 -274.074V1022M107.586 -274.074V1022M144.616 -274.074V1022M181.647 -274.074V1022M218.678 -274.074V1022M255.708 -274.074V1022M292.739 -274.074V1022M329.77 -274.074V1022M366.8 -274.074V1022M403.831 -274.074V1022M440.862 -274.074V1022M477.893 -274.074V1022M514.923 -274.074V1022M551.956 -274.074V1022M588.987 -274.074V1022M626.017 -274.074V1022M663.048 -274.074V1022M700.079 -274.074V1022M737.109 -274.074V1022M774.14 -274.074V1022M811.171 -274.074V1022M848.201 -274.074V1022M885.23 -274.074V1022M922.261 -274.074V1022M959.292 -274.074V1022M996.322 -274.074V1022M1033.35 -274.074V1022M1070.38 -274.074V1022M1107.41 -274.074V1022M1144.45 -274.074V1022M1181.48 -274.074V1022M1218.51 -274.074V1022M1255.54 -274.074V1022M1292.57 -274.074V1022M1329.6 -274.074V1022M1366.63 -274.074V1022M1403.66 -274.074V1022M1440.69 -274.074V1022M1477.72 -274.074V1022M1514.75 -274.074V1022M1551.78 -274.074V1022M1588.81 -274.074V1022M1625.84 -274.074V1022M1662.87 -274.074V1022M1699.91 -274.074V1022M1736.94 -274.074V1022M1773.97 -274.074V1022M1811 -274.074V1022M1848.03 -274.074V1022M1885.06 -274.074V1022M1922.09 -274.074V1022M1959.12 -274.074V1022" stroke="#001648" stroke-width="0.925767"/>
<path d="M1181.01 207.325H1218.04V244.356H1181.01V207.325ZM884.768 207.325H921.799V244.356H884.768V207.325ZM884.768 614.663H921.799V651.693H884.768V614.663ZM625.554 318.417H662.584V355.448H625.554V318.417ZM33.0625 -200.013H70.0932V-162.982H33.0625V-200.013ZM810.707 -200.013H847.738V-162.982H810.707V-200.013ZM1366.17 -51.8899H1403.2V-14.8592H1366.17V-51.8899ZM884.768 -51.8899H921.799V-14.8592H884.768V-51.8899ZM995.86 59.2022H1032.89V96.2328H995.86V59.2022ZM1329.14 96.2328H1366.17V133.264H1329.14V96.2328ZM699.615 -88.9206H736.646V-51.8899H699.615V-88.9206ZM181.185 244.356H218.216V281.386H181.185V244.356ZM1292.11 355.448H1329.14V392.478H1292.11V355.448ZM1440.23 614.663H1477.26V651.693H1440.23V614.663ZM1551.32 281.386H1588.35V318.417H1551.32V281.386ZM1699.44 466.54H1736.47V503.57H1699.44V466.54ZM1625.38 -88.9206H1662.41V-51.8899H1625.38V-88.9206ZM33.0625 59.2022H70.0932V96.2328H33.0625V59.2022ZM33.0625 651.693H70.0932V688.724H33.0625V651.693ZM403.369 -125.951H440.4V-88.9206H403.369V-125.951ZM255.247 22.1715H292.277V59.2022H255.247V22.1715ZM477.431 244.356H514.461V281.386H477.431V244.356ZM477.431 836.847H514.461V873.877H477.431V836.847ZM477.431 577.632H514.461V614.663H477.431V577.632ZM1218.04 -125.951H1255.08V-88.9206H1218.04V-125.951Z" fill="#001648"/>
</g>
<rect width="1920" height="827" fill="url(#paint0_radial_468_2401)"/>
</g>
</g>
<defs>
<radialGradient id="paint0_radial_468_2401" cx="0" cy="0" r="1" gradientUnits="userSpaceOnUse" gradientTransform="translate(960 413.5) rotate(90) scale(413.5 1227.03)">
<stop offset="0.552109" stop-color="white"/>
<stop offset="1" stop-color="white" stop-opacity="0"/>
</radialGradient>
<clipPath id="clip0_468_2401">
<rect width="1920" height="827" fill="white"/>
</clipPath>
<clipPath id="clip1_468_2401">
<rect width="1920" height="827" fill="white"/>
</clipPath>
</defs>
</svg>
