<svg width="270" height="344" viewBox="0 0 270 344" fill="none" xmlns="http://www.w3.org/2000/svg">
<g opacity="0.4">
<line x1="138" y1="73" x2="138" y2="354" stroke="#A4AFB8" stroke-width="2"/>
<path d="M161.169 61.3948L135.436 0L112.562 61.3948C119.71 65.2319 136.389 73.3859 137.342 73.3859C138.486 73.3859 153.068 65.7116 161.169 61.3948Z" fill="#30A4DC"/>
<circle cx="6.12867" cy="6.12867" r="5.62867" transform="matrix(-1 0 0 1 270 109.073)" fill="#A4AFB8" stroke="#A4AFB8"/>
<path d="M257.652 114.909L203.198 114.91L181.656 139.424" stroke="#A4AFB8" stroke-width="2"/>
<path d="M0 230.993C10.5882 156.891 177.523 50.3803 270 225.197C247.582 277.557 115.425 389.458 0 230.993Z" fill="#30A4DC"/>
<path d="M23.1445 228.853C31.8798 167.69 169.601 79.7762 245.895 224.07C227.4 267.287 118.371 359.65 23.1445 228.853Z" fill="white"/>
<circle opacity="0.43" cx="134.045" cy="221.047" r="50.7443" fill="#30A4DC"/>
<circle cx="117.074" cy="199.375" r="14.0113" fill="white"/>
<circle cx="134.048" cy="221.047" r="24.466" fill="#0A3366"/>
<circle cx="43" cy="331" r="6" fill="#A4AFB8"/>
<line x1="49" y1="331" x2="139" y2="331" stroke="#A4AFB8" stroke-width="2"/>
</g>
</svg>
