<svg width="326" height="232" viewBox="0 0 326 232" fill="none" xmlns="http://www.w3.org/2000/svg">
<g opacity="0.4" clip-path="url(#clip0_315_1495)">
<path fill-rule="evenodd" clip-rule="evenodd" d="M238.342 100.232L223.445 113.557C232.326 126.376 237.523 141.936 237.523 158.711C237.523 202.592 201.952 238.163 158.072 238.163C114.192 238.163 78.6206 202.592 78.6206 158.711C78.6206 114.831 114.192 79.2602 158.072 79.2602C178.026 79.2602 196.258 86.6094 210.203 98.7588L225.101 85.4342C207.439 69.2626 183.91 59.3974 158.072 59.3974C103.226 59.3974 58.7578 103.865 58.7578 158.711C58.7578 213.558 103.226 258.025 158.072 258.025C212.918 258.025 257.386 213.558 257.386 158.711C257.386 136.846 250.318 116.635 238.342 100.232Z" fill="#42A2CF"/>
<path fill-rule="evenodd" clip-rule="evenodd" d="M260.64 80.2864L245.784 93.5779C259.307 111.769 267.319 134.305 267.319 158.711C267.319 219.045 218.406 267.957 158.073 267.957C97.7398 267.957 48.8277 219.036 48.8277 158.711C48.8277 98.3864 97.7398 49.466 158.073 49.466C186.849 49.466 213.027 60.5974 232.542 78.7802L247.398 65.4886C224.208 43.2588 192.734 29.6031 158.073 29.6031C86.7656 29.6031 28.9648 87.3956 28.9648 158.711C28.9648 230.027 86.7656 287.82 158.073 287.82C229.381 287.82 287.181 230.019 287.181 158.711C287.181 129.215 277.291 102.028 260.64 80.2864Z" fill="#52B4E2"/>
<path fill-rule="evenodd" clip-rule="evenodd" d="M215.983 120.235L200.962 133.668C205.265 141.017 207.732 149.575 207.732 158.711C207.732 186.139 185.502 208.368 158.075 208.368C130.647 208.368 108.417 186.139 108.417 158.711C108.417 131.284 130.647 109.054 158.075 109.054C169.189 109.054 179.444 112.704 187.72 118.87L202.741 105.438C190.658 95.2911 175.082 89.1916 158.075 89.1916C119.681 89.1916 88.5547 120.318 88.5547 158.711C88.5547 197.105 119.681 228.231 158.075 228.231C196.468 228.231 227.594 197.105 227.594 158.711C227.594 144.485 223.324 131.251 215.983 120.235Z" fill="#2E8DBA"/>
<path fill-rule="evenodd" clip-rule="evenodd" d="M197.799 158.712C197.799 180.652 180.013 198.437 158.073 198.437C136.133 198.437 118.348 180.652 118.348 158.712C118.348 136.771 136.133 118.986 158.073 118.986C166.234 118.986 173.823 121.444 180.129 125.665L164.272 139.842C162.319 139.196 160.242 138.849 158.073 138.849C147.107 138.849 138.21 147.746 138.21 158.712C138.21 169.677 147.107 178.574 158.073 178.574C169.039 178.574 177.936 169.677 177.936 158.712C177.936 157.321 177.795 155.956 177.514 154.648L193.371 140.463C196.202 145.925 197.799 152.132 197.799 158.712Z" fill="#27789F"/>
<path fill-rule="evenodd" clip-rule="evenodd" d="M325.999 37.8718L311.193 51.1137L291.496 46.2473L286.381 50.8157L306.079 55.6821L291.281 68.924L271.584 64.0576L167.838 156.641C167.949 157.237 168.007 157.852 168.007 158.48C168.007 163.965 163.561 168.412 158.076 168.412C152.591 168.412 148.145 163.965 148.145 158.48C148.145 152.995 152.591 148.549 158.076 148.549C159.227 148.549 160.333 148.744 161.361 149.105L264.847 56.758L262.165 36.3821L276.971 23.1402L279.653 43.5161L284.768 38.9394L282.078 18.5718L296.884 5.32989L300.335 31.5322L325.999 37.8718Z" fill="#0A3366"/>
<path fill-rule="evenodd" clip-rule="evenodd" d="M256.997 35.1764C229.915 13.4219 195.515 0.405411 158.075 0.405411C70.7725 0.405411 0 71.1779 0 158.48C0 245.783 70.7725 316.555 158.075 316.555C245.377 316.555 316.15 245.783 316.15 158.48C316.15 127.484 307.228 98.5719 291.814 74.1707L272.927 69.5046L268.251 73.6563C286.35 97.1294 297.114 126.548 297.114 158.48C297.114 235.27 234.864 297.52 158.075 297.52C81.2854 297.52 19.0352 235.27 19.0352 158.48C19.0352 81.6908 81.2854 19.4406 158.075 19.4406C195.785 19.4406 229.989 34.4531 255.036 58.8276L259.579 54.7938L256.997 35.1764Z" stroke="white" stroke-width="0.827617" stroke-linecap="round" stroke-linejoin="round"/>
<path fill-rule="evenodd" clip-rule="evenodd" d="M256.997 35.5404C229.915 13.7865 195.515 0.769707 158.075 0.769707C70.7728 0.769707 0 71.5425 0 158.845C0 246.147 70.7728 316.919 158.075 316.919C245.377 316.919 316.15 246.147 316.15 158.845C316.15 127.849 307.229 98.9358 291.814 74.5352L272.927 69.8691L268.251 74.0204C286.35 97.4933 297.115 126.912 297.115 158.845C297.115 235.634 234.864 297.884 158.075 297.884C81.2852 297.884 19.0352 235.634 19.0352 158.845C19.0352 82.0549 81.2852 19.8049 158.075 19.8049C195.785 19.8049 229.989 34.817 255.036 59.192L259.579 55.1582L256.997 35.5404Z" fill="#6EC8F2"/>
<path fill-rule="evenodd" clip-rule="evenodd" d="M238.342 100.232L223.445 113.557C232.326 126.376 237.523 141.936 237.523 158.711C237.523 202.592 201.952 238.163 158.072 238.163C114.192 238.163 78.6206 202.592 78.6206 158.711C78.6206 114.831 114.192 79.2602 158.072 79.2602C178.026 79.2602 196.258 86.6094 210.203 98.7588L225.101 85.4342C207.439 69.2626 183.91 59.3974 158.072 59.3974C103.226 59.3974 58.7578 103.865 58.7578 158.711C58.7578 213.558 103.226 258.025 158.072 258.025C212.918 258.025 257.386 213.558 257.386 158.711C257.386 136.846 250.318 116.635 238.342 100.232Z" stroke="white" stroke-width="0.827617" stroke-linecap="round" stroke-linejoin="round"/>
<path fill-rule="evenodd" clip-rule="evenodd" d="M260.64 80.2864L245.784 93.5779C259.307 111.769 267.319 134.305 267.319 158.711C267.319 219.045 218.406 267.957 158.073 267.957C97.7398 267.957 48.8277 219.036 48.8277 158.711C48.8277 98.3864 97.7398 49.466 158.073 49.466C186.849 49.466 213.027 60.5974 232.542 78.7802L247.398 65.4886C224.208 43.2588 192.734 29.6031 158.073 29.6031C86.7656 29.6031 28.9648 87.3956 28.9648 158.711C28.9648 230.027 86.7656 287.82 158.073 287.82C229.381 287.82 287.181 230.019 287.181 158.711C287.181 129.215 277.291 102.028 260.64 80.2864Z" stroke="white" stroke-width="0.827617" stroke-linecap="round" stroke-linejoin="round"/>
<path fill-rule="evenodd" clip-rule="evenodd" d="M215.983 120.235L200.962 133.668C205.265 141.017 207.732 149.575 207.732 158.711C207.732 186.139 185.502 208.368 158.075 208.368C130.647 208.368 108.417 186.139 108.417 158.711C108.417 131.284 130.647 109.054 158.075 109.054C169.189 109.054 179.444 112.704 187.72 118.87L202.741 105.438C190.658 95.2911 175.082 89.1916 158.075 89.1916C119.681 89.1916 88.5547 120.318 88.5547 158.711C88.5547 197.105 119.681 228.231 158.075 228.231C196.468 228.231 227.594 197.105 227.594 158.711C227.594 144.485 223.324 131.251 215.983 120.235Z" stroke="white" stroke-width="0.827617" stroke-linecap="round" stroke-linejoin="round"/>
<path fill-rule="evenodd" clip-rule="evenodd" d="M197.799 158.712C197.799 180.652 180.013 198.437 158.073 198.437C136.133 198.437 118.348 180.652 118.348 158.712C118.348 136.772 136.133 118.986 158.073 118.986C166.234 118.986 173.823 121.444 180.129 125.665L164.272 139.842C162.319 139.197 160.242 138.849 158.073 138.849C147.107 138.849 138.21 147.746 138.21 158.712C138.21 169.678 147.107 178.575 158.073 178.575C169.039 178.575 177.936 169.678 177.936 158.712C177.936 157.321 177.795 155.956 177.514 154.648L193.371 140.463C196.202 145.925 197.799 152.132 197.799 158.712Z" stroke="white" stroke-width="0.827617" stroke-linecap="round" stroke-linejoin="round"/>
<path fill-rule="evenodd" clip-rule="evenodd" d="M325.999 37.8718L311.193 51.1137L291.496 46.2473L286.381 50.8157L306.079 55.6821L291.281 68.924L271.584 64.0576L167.837 156.641C167.949 157.237 168.007 157.852 168.007 158.48C168.007 163.965 163.561 168.412 158.076 168.412C152.591 168.412 148.145 163.965 148.145 158.48C148.145 152.995 152.591 148.549 158.076 148.549C159.227 148.549 160.333 148.745 161.361 149.105L264.847 56.758L262.165 36.3821L276.971 23.1402L279.653 43.5161L284.768 38.9394L282.078 18.5718L296.884 5.32989L300.335 31.5322L325.999 37.8718Z" stroke="white" stroke-width="0.827617" stroke-linecap="round" stroke-linejoin="round"/>
</g>
<defs>
<clipPath id="clip0_315_1495">
<rect width="326" height="232" fill="white"/>
</clipPath>
</defs>
</svg>
