<svg width="432" height="410" viewBox="0 0 432 410" fill="none" xmlns="http://www.w3.org/2000/svg">
<g clip-path="url(#clip0_686_2517)">
<g opacity="0.4">
<path fill-rule="evenodd" clip-rule="evenodd" d="M216 432C335.293 432 432 335.293 432 216C432 96.7065 335.293 0 216 0C96.7065 0 0 96.7065 0 216C0 335.177 96.8681 431.81 216 432C117.235 431.81 36.878 351.688 36.878 252.878C36.878 153.952 117.074 73.7561 216 73.7561C314.926 73.7561 395.122 153.952 395.122 252.878C395.122 351.804 314.926 432 216 432ZM216 432C215.883 432 216.117 432.001 216 432V432Z" fill="#4DB7EA"/>
<path fill-rule="evenodd" clip-rule="evenodd" d="M216.001 432C314.927 432 395.123 351.804 395.123 252.878C395.123 153.952 314.927 73.7561 216.001 73.7561C117.075 73.7561 36.8789 153.952 36.8789 252.878C36.8789 351.688 117.236 431.81 216.001 432C137.603 431.81 73.757 368.198 73.757 289.756C73.757 211.197 137.442 147.512 216.001 147.512C294.56 147.512 358.245 211.197 358.245 289.756C358.245 368.315 294.56 432 216.001 432ZM216.001 432C215.884 432 216.118 432.001 216.001 432V432Z" fill="#3FAADD"/>
<path fill-rule="evenodd" clip-rule="evenodd" d="M216.002 432C294.561 432 358.246 368.315 358.246 289.756C358.246 211.197 294.561 147.512 216.002 147.512C137.443 147.512 73.7578 211.197 73.7578 289.756C73.7578 368.198 137.604 431.81 216.002 432C157.971 431.81 110.636 384.709 110.636 326.634C110.636 268.442 157.81 221.268 216.002 221.268C274.194 221.268 321.368 268.442 321.368 326.634C321.368 384.826 274.194 432 216.002 432ZM216.002 432C215.885 432 216.118 432.001 216.002 432V432Z" fill="#389CCC"/>
<path fill-rule="evenodd" clip-rule="evenodd" d="M215.999 432C274.19 432 321.365 384.826 321.365 326.634C321.365 268.442 274.19 221.268 215.999 221.268C157.807 221.268 110.633 268.442 110.633 326.634C110.633 384.709 157.968 431.81 215.999 432C178.336 431.811 147.511 401.22 147.511 363.512C147.511 325.688 178.174 295.024 215.999 295.024C253.823 295.024 284.486 325.688 284.486 363.512C284.486 401.337 253.823 432 215.999 432ZM215.999 432C215.882 432 216.115 432.001 215.999 432V432Z" fill="#328AB4"/>
<path fill-rule="evenodd" clip-rule="evenodd" d="M284.487 363.512C284.487 401.337 253.824 432 216 432C178.337 431.811 147.512 401.22 147.512 363.512C147.512 325.688 178.175 295.024 216 295.024C253.824 295.024 284.487 325.688 284.487 363.512ZM216 432C215.883 432 216.116 432.001 216 432V432Z" fill="#27789F"/>
<path d="M171.556 41.8644V54.1219H169.097V41.8644H171.556ZM179.376 44.2527C180.535 44.2527 181.472 44.6215 182.186 45.359C182.9 46.0849 183.257 47.1034 183.257 48.4146V54.1219H180.799V48.7483C180.799 47.9756 180.605 47.3844 180.219 46.9746C179.833 46.5532 179.306 46.3424 178.639 46.3424C177.959 46.3424 177.421 46.5532 177.023 46.9746C176.637 47.3844 176.443 47.9756 176.443 48.7483V54.1219H173.985V44.3932H176.443V45.6049C176.771 45.1834 177.187 44.8556 177.69 44.6215C178.205 44.3756 178.767 44.2527 179.376 44.2527ZM190.986 44.2527C192.145 44.2527 193.082 44.6215 193.796 45.359C194.51 46.0849 194.867 47.1034 194.867 48.4146V54.1219H192.409V48.7483C192.409 47.9756 192.215 47.3844 191.829 46.9746C191.443 46.5532 190.916 46.3424 190.249 46.3424C189.57 46.3424 189.031 46.5532 188.633 46.9746C188.247 47.3844 188.054 47.9756 188.054 48.7483V54.1219H185.595V44.3932H188.054V45.6049C188.381 45.1834 188.797 44.8556 189.3 44.6215C189.815 44.3756 190.377 44.2527 190.986 44.2527ZM201.525 54.28C200.589 54.28 199.746 54.0751 198.996 53.6654C198.247 53.2439 197.656 52.6527 197.223 51.8917C196.801 51.1307 196.591 50.2527 196.591 49.2576C196.591 48.2624 196.807 47.3844 197.24 46.6234C197.685 45.8624 198.288 45.2771 199.049 44.8673C199.81 44.4459 200.659 44.2351 201.595 44.2351C202.532 44.2351 203.381 44.4459 204.142 44.8673C204.903 45.2771 205.5 45.8624 205.933 46.6234C206.378 47.3844 206.6 48.2624 206.6 49.2576C206.6 50.2527 206.372 51.1307 205.915 51.8917C205.471 52.6527 204.862 53.2439 204.089 53.6654C203.328 54.0751 202.473 54.28 201.525 54.28ZM201.525 52.1376C201.97 52.1376 202.386 52.0322 202.772 51.8215C203.17 51.599 203.486 51.2712 203.72 50.838C203.954 50.4049 204.071 49.878 204.071 49.2576C204.071 48.3327 203.826 47.6244 203.334 47.1327C202.854 46.6293 202.263 46.3776 201.56 46.3776C200.858 46.3776 200.267 46.6293 199.787 47.1327C199.318 47.6244 199.084 48.3327 199.084 49.2576C199.084 50.1824 199.312 50.8966 199.769 51.4C200.237 51.8917 200.823 52.1376 201.525 52.1376ZM212.46 51.8566L214.919 44.3932H217.535L213.935 54.1219H210.95L207.368 44.3932H210.002L212.46 51.8566ZM218.284 49.2224C218.284 48.239 218.477 47.3668 218.864 46.6058C219.262 45.8449 219.794 45.2595 220.462 44.8498C221.141 44.44 221.896 44.2351 222.727 44.2351C223.453 44.2351 224.085 44.3815 224.624 44.6741C225.174 44.9668 225.613 45.3356 225.941 45.7805V44.3932H228.417V54.1219H225.941V52.6995C225.625 53.1561 225.186 53.5366 224.624 53.841C224.073 54.1337 223.435 54.28 222.709 54.28C221.89 54.28 221.141 54.0693 220.462 53.6478C219.794 53.2263 219.262 52.6351 218.864 51.8741C218.477 51.1015 218.284 50.2176 218.284 49.2224ZM225.941 49.2576C225.941 48.6605 225.824 48.1512 225.589 47.7298C225.355 47.2966 225.039 46.9688 224.641 46.7463C224.243 46.5122 223.816 46.3951 223.359 46.3951C222.903 46.3951 222.481 46.5063 222.095 46.7288C221.708 46.9512 221.392 47.279 221.147 47.7122C220.912 48.1337 220.795 48.6371 220.795 49.2224C220.795 49.8078 220.912 50.3229 221.147 50.7678C221.392 51.201 221.708 51.5346 222.095 51.7688C222.493 52.0029 222.914 52.12 223.359 52.12C223.816 52.12 224.243 52.0088 224.641 51.7863C225.039 51.5522 225.355 51.2244 225.589 50.8029C225.824 50.3698 225.941 49.8546 225.941 49.2576ZM233.68 46.4127V51.119C233.68 51.4468 233.756 51.6868 233.909 51.839C234.073 51.9795 234.342 52.0498 234.716 52.0498H235.858V54.1219H234.313C232.24 54.1219 231.204 53.1151 231.204 51.1015V46.4127H230.045V44.3932H231.204V41.9873H233.68V44.3932H235.858V46.4127H233.68ZM238.873 43.2341C238.44 43.2341 238.077 43.0995 237.784 42.8302C237.503 42.5493 237.363 42.2039 237.363 41.7941C237.363 41.3844 237.503 41.0449 237.784 40.7756C238.077 40.4946 238.44 40.3541 238.873 40.3541C239.306 40.3541 239.663 40.4946 239.944 40.7756C240.237 41.0449 240.383 41.3844 240.383 41.7941C240.383 42.2039 240.237 42.5493 239.944 42.8302C239.663 43.0995 239.306 43.2341 238.873 43.2341ZM240.085 44.3932V54.1219H237.626V44.3932H240.085ZM246.834 54.28C245.897 54.28 245.054 54.0751 244.305 53.6654C243.556 53.2439 242.965 52.6527 242.531 51.8917C242.11 51.1307 241.899 50.2527 241.899 49.2576C241.899 48.2624 242.116 47.3844 242.549 46.6234C242.994 45.8624 243.597 45.2771 244.358 44.8673C245.119 44.4459 245.967 44.2351 246.904 44.2351C247.841 44.2351 248.689 44.4459 249.45 44.8673C250.211 45.2771 250.808 45.8624 251.242 46.6234C251.687 47.3844 251.909 48.2624 251.909 49.2576C251.909 50.2527 251.681 51.1307 251.224 51.8917C250.779 52.6527 250.17 53.2439 249.398 53.6654C248.637 54.0751 247.782 54.28 246.834 54.28ZM246.834 52.1376C247.279 52.1376 247.694 52.0322 248.081 51.8215C248.479 51.599 248.795 51.2712 249.029 50.838C249.263 50.4049 249.38 49.878 249.38 49.2576C249.38 48.3327 249.134 47.6244 248.643 47.1327C248.163 46.6293 247.571 46.3776 246.869 46.3776C246.167 46.3776 245.575 46.6293 245.095 47.1327C244.627 47.6244 244.393 48.3327 244.393 49.2576C244.393 50.1824 244.621 50.8966 245.078 51.4C245.546 51.8917 246.131 52.1376 246.834 52.1376ZM259.104 44.2527C260.263 44.2527 261.199 44.6215 261.913 45.359C262.628 46.0849 262.985 47.1034 262.985 48.4146V54.1219H260.526V48.7483C260.526 47.9756 260.333 47.3844 259.947 46.9746C259.56 46.5532 259.033 46.3424 258.366 46.3424C257.687 46.3424 257.148 46.5532 256.75 46.9746C256.364 47.3844 256.171 47.9756 256.171 48.7483V54.1219H253.712V44.3932H256.171V45.6049C256.499 45.1834 256.914 44.8556 257.418 44.6215C257.933 44.3756 258.495 44.2527 259.104 44.2527Z" fill="white"/>
<path d="M181.931 112.986V125.244H179.473V112.986H181.931ZM189.751 115.375C190.91 115.375 191.847 115.743 192.561 116.481C193.275 117.207 193.632 118.225 193.632 119.537V125.244H191.174V119.87C191.174 119.098 190.981 118.506 190.594 118.097C190.208 117.675 189.681 117.464 189.014 117.464C188.335 117.464 187.796 117.675 187.398 118.097C187.012 118.506 186.819 119.098 186.819 119.87V125.244H184.36V115.515H186.819V116.727C187.147 116.305 187.562 115.978 188.066 115.743C188.581 115.498 189.143 115.375 189.751 115.375ZM198.833 117.535V122.241C198.833 122.569 198.909 122.809 199.061 122.961C199.225 123.101 199.494 123.172 199.869 123.172H201.01V125.244H199.465C197.393 125.244 196.357 124.237 196.357 122.223V117.535H195.198V115.515H196.357V113.109H198.833V115.515H201.01V117.535H198.833ZM211.823 120.169C211.823 120.52 211.799 120.836 211.752 121.117H204.64C204.699 121.82 204.945 122.37 205.378 122.768C205.811 123.166 206.344 123.365 206.976 123.365C207.889 123.365 208.539 122.973 208.925 122.188H211.577C211.296 123.125 210.757 123.898 209.961 124.506C209.165 125.103 208.187 125.402 207.028 125.402C206.092 125.402 205.249 125.197 204.5 124.787C203.762 124.366 203.183 123.775 202.761 123.014C202.351 122.253 202.146 121.375 202.146 120.38C202.146 119.373 202.351 118.489 202.761 117.728C203.171 116.967 203.745 116.381 204.482 115.972C205.22 115.562 206.068 115.357 207.028 115.357C207.953 115.357 208.779 115.556 209.505 115.954C210.242 116.352 210.81 116.92 211.208 117.658C211.618 118.383 211.823 119.22 211.823 120.169ZM209.276 119.466C209.265 118.834 209.036 118.331 208.591 117.956C208.146 117.57 207.602 117.377 206.958 117.377C206.349 117.377 205.834 117.564 205.413 117.939C205.003 118.301 204.751 118.811 204.658 119.466H209.276ZM217.428 115.357C218.154 115.357 218.792 115.503 219.342 115.796C219.892 116.077 220.325 116.446 220.641 116.902V115.515H223.118V125.314C223.118 126.216 222.936 127.018 222.573 127.72C222.21 128.434 221.666 128.996 220.94 129.406C220.214 129.827 219.336 130.038 218.306 130.038C216.924 130.038 215.789 129.716 214.899 129.072C214.021 128.428 213.523 127.55 213.406 126.438H215.847C215.976 126.883 216.251 127.234 216.673 127.492C217.106 127.761 217.627 127.896 218.236 127.896C218.95 127.896 219.529 127.679 219.974 127.246C220.419 126.824 220.641 126.18 220.641 125.314V123.804C220.325 124.26 219.886 124.641 219.324 124.945C218.774 125.25 218.142 125.402 217.428 125.402C216.608 125.402 215.859 125.191 215.18 124.77C214.501 124.348 213.962 123.757 213.564 122.996C213.178 122.223 212.985 121.34 212.985 120.344C212.985 119.361 213.178 118.489 213.564 117.728C213.962 116.967 214.495 116.381 215.162 115.972C215.841 115.562 216.597 115.357 217.428 115.357ZM220.641 120.38C220.641 119.782 220.524 119.273 220.29 118.852C220.056 118.419 219.74 118.091 219.342 117.868C218.944 117.634 218.517 117.517 218.06 117.517C217.603 117.517 217.182 117.628 216.796 117.851C216.409 118.073 216.093 118.401 215.847 118.834C215.613 119.256 215.496 119.759 215.496 120.344C215.496 120.93 215.613 121.445 215.847 121.89C216.093 122.323 216.409 122.657 216.796 122.891C217.194 123.125 217.615 123.242 218.06 123.242C218.517 123.242 218.944 123.131 219.342 122.908C219.74 122.674 220.056 122.346 220.29 121.925C220.524 121.492 220.641 120.977 220.641 120.38ZM227.977 117.025C228.293 116.51 228.703 116.106 229.207 115.814C229.722 115.521 230.307 115.375 230.963 115.375V117.956H230.313C229.54 117.956 228.955 118.138 228.557 118.5C228.17 118.863 227.977 119.496 227.977 120.397V125.244H225.519V115.515H227.977V117.025ZM233.865 114.356C233.432 114.356 233.069 114.221 232.777 113.952C232.496 113.671 232.355 113.326 232.355 112.916C232.355 112.506 232.496 112.167 232.777 111.898C233.069 111.617 233.432 111.476 233.865 111.476C234.299 111.476 234.656 111.617 234.937 111.898C235.229 112.167 235.376 112.506 235.376 112.916C235.376 113.326 235.229 113.671 234.937 113.952C234.656 114.221 234.299 114.356 233.865 114.356ZM235.077 115.515V125.244H232.619V115.515H235.077ZM240.369 117.535V122.241C240.369 122.569 240.445 122.809 240.597 122.961C240.761 123.101 241.03 123.172 241.405 123.172H242.546V125.244H241.001C238.929 125.244 237.893 124.237 237.893 122.223V117.535H236.734V115.515H237.893V113.109H240.369V115.515H242.546V117.535H240.369ZM253.622 115.515L247.598 129.845H244.982L247.089 124.998L243.191 115.515H245.948L248.459 122.311L251.005 115.515H253.622Z" fill="white"/>
<path d="M172.739 188.727V191.8H176.866V193.749H172.739V196.998H177.393V199H170.281V186.725H177.393V188.727H172.739ZM185.001 199L182.999 195.98L181.225 199H178.591L181.769 194.118L178.556 189.271H181.33L183.315 192.274L185.106 189.271H187.74L184.544 194.118L187.775 199H185.001ZM188.478 194.136C188.478 193.129 188.683 192.251 189.093 191.501C189.503 190.74 190.071 190.155 190.796 189.745C191.522 189.324 192.354 189.113 193.29 189.113C194.496 189.113 195.491 189.418 196.276 190.026C197.072 190.623 197.604 191.466 197.874 192.555H195.222C195.081 192.134 194.841 191.806 194.502 191.572C194.174 191.326 193.764 191.203 193.273 191.203C192.57 191.203 192.014 191.46 191.604 191.976C191.195 192.479 190.99 193.199 190.99 194.136C190.99 195.06 191.195 195.78 191.604 196.296C192.014 196.799 192.57 197.051 193.273 197.051C194.268 197.051 194.917 196.606 195.222 195.716H197.874C197.604 196.77 197.072 197.607 196.276 198.227C195.479 198.848 194.484 199.158 193.29 199.158C192.354 199.158 191.522 198.953 190.796 198.543C190.071 198.122 189.503 197.537 189.093 196.787C188.683 196.026 188.478 195.142 188.478 194.136ZM208.719 193.925C208.719 194.276 208.695 194.592 208.648 194.873H201.536C201.595 195.576 201.84 196.126 202.274 196.524C202.707 196.922 203.24 197.121 203.872 197.121C204.785 197.121 205.435 196.729 205.821 195.944H208.473C208.192 196.881 207.653 197.654 206.857 198.262C206.061 198.86 205.083 199.158 203.924 199.158C202.988 199.158 202.145 198.953 201.396 198.543C200.658 198.122 200.079 197.531 199.657 196.77C199.247 196.009 199.042 195.131 199.042 194.136C199.042 193.129 199.247 192.245 199.657 191.484C200.067 190.723 200.64 190.138 201.378 189.728C202.116 189.318 202.964 189.113 203.924 189.113C204.849 189.113 205.675 189.312 206.4 189.71C207.138 190.108 207.706 190.676 208.104 191.414C208.514 192.14 208.719 192.977 208.719 193.925ZM206.172 193.222C206.16 192.59 205.932 192.087 205.487 191.712C205.042 191.326 204.498 191.133 203.854 191.133C203.245 191.133 202.73 191.32 202.309 191.695C201.899 192.058 201.647 192.567 201.554 193.222H206.172ZM212.972 186.005V199H210.513V186.005H212.972ZM217.859 186.005V199H215.401V186.005H217.859ZM229.332 193.925C229.332 194.276 229.309 194.592 229.262 194.873H222.15C222.208 195.576 222.454 196.126 222.887 196.524C223.32 196.922 223.853 197.121 224.485 197.121C225.398 197.121 226.048 196.729 226.435 195.944H229.086C228.805 196.881 228.267 197.654 227.471 198.262C226.675 198.86 225.697 199.158 224.538 199.158C223.601 199.158 222.758 198.953 222.009 198.543C221.272 198.122 220.692 197.531 220.271 196.77C219.861 196.009 219.656 195.131 219.656 194.136C219.656 193.129 219.861 192.245 220.271 191.484C220.68 190.723 221.254 190.138 221.992 189.728C222.729 189.318 223.578 189.113 224.538 189.113C225.463 189.113 226.288 189.312 227.014 189.71C227.752 190.108 228.319 190.676 228.717 191.414C229.127 192.14 229.332 192.977 229.332 193.925ZM226.786 193.222C226.774 192.59 226.546 192.087 226.101 191.712C225.656 191.326 225.112 191.133 224.468 191.133C223.859 191.133 223.344 191.32 222.922 191.695C222.513 192.058 222.261 192.567 222.167 193.222H226.786ZM236.518 189.131C237.677 189.131 238.613 189.5 239.328 190.237C240.042 190.963 240.399 191.981 240.399 193.293V199H237.94V193.626C237.94 192.854 237.747 192.262 237.361 191.853C236.974 191.431 236.448 191.22 235.78 191.22C235.101 191.22 234.563 191.431 234.165 191.853C233.778 192.262 233.585 192.854 233.585 193.626V199H231.127V189.271H233.585V190.483C233.913 190.061 234.329 189.734 234.832 189.5C235.347 189.254 235.909 189.131 236.518 189.131ZM242.105 194.136C242.105 193.129 242.309 192.251 242.719 191.501C243.129 190.74 243.697 190.155 244.423 189.745C245.148 189.324 245.98 189.113 246.916 189.113C248.122 189.113 249.117 189.418 249.902 190.026C250.698 190.623 251.23 191.466 251.5 192.555H248.848C248.707 192.134 248.467 191.806 248.128 191.572C247.8 191.326 247.39 191.203 246.899 191.203C246.196 191.203 245.64 191.46 245.23 191.976C244.821 192.479 244.616 193.199 244.616 194.136C244.616 195.06 244.821 195.78 245.23 196.296C245.64 196.799 246.196 197.051 246.899 197.051C247.894 197.051 248.544 196.606 248.848 195.716H251.5C251.23 196.77 250.698 197.607 249.902 198.227C249.106 198.848 248.11 199.158 246.916 199.158C245.98 199.158 245.148 198.953 244.423 198.543C243.697 198.122 243.129 197.537 242.719 196.787C242.309 196.026 242.105 195.142 242.105 194.136ZM262.345 193.925C262.345 194.276 262.321 194.592 262.274 194.873H255.162C255.221 195.576 255.467 196.126 255.9 196.524C256.333 196.922 256.866 197.121 257.498 197.121C258.411 197.121 259.061 196.729 259.447 195.944H262.099C261.818 196.881 261.279 197.654 260.483 198.262C259.687 198.86 258.71 199.158 257.551 199.158C256.614 199.158 255.771 198.953 255.022 198.543C254.284 198.122 253.705 197.531 253.283 196.77C252.873 196.009 252.669 195.131 252.669 194.136C252.669 193.129 252.873 192.245 253.283 191.484C253.693 190.723 254.267 190.138 255.004 189.728C255.742 189.318 256.591 189.113 257.551 189.113C258.475 189.113 259.301 189.312 260.027 189.71C260.764 190.108 261.332 190.676 261.73 191.414C262.14 192.14 262.345 192.977 262.345 193.925ZM259.798 193.222C259.787 192.59 259.558 192.087 259.113 191.712C258.669 191.326 258.124 191.133 257.48 191.133C256.872 191.133 256.356 191.32 255.935 191.695C255.525 192.058 255.273 192.567 255.18 193.222H259.798Z" fill="white"/>
<path d="M155.132 266.61C155.132 265.404 155.402 264.327 155.94 263.379C156.49 262.419 157.234 261.675 158.17 261.148C159.119 260.61 160.178 260.34 161.349 260.34C162.719 260.34 163.919 260.692 164.949 261.394C165.979 262.097 166.699 263.068 167.109 264.309H164.282C164.001 263.724 163.603 263.285 163.087 262.992C162.584 262.7 161.999 262.553 161.331 262.553C160.617 262.553 159.979 262.723 159.417 263.062C158.867 263.39 158.434 263.859 158.118 264.467C157.813 265.076 157.661 265.79 157.661 266.61C157.661 267.418 157.813 268.132 158.118 268.752C158.434 269.361 158.867 269.835 159.417 270.175C159.979 270.502 160.617 270.666 161.331 270.666C161.999 270.666 162.584 270.52 163.087 270.227C163.603 269.923 164.001 269.478 164.282 268.893H167.109C166.699 270.145 165.979 271.123 164.949 271.825C163.93 272.516 162.73 272.861 161.349 272.861C160.178 272.861 159.119 272.598 158.17 272.071C157.234 271.533 156.49 270.789 155.94 269.841C155.402 268.893 155.132 267.816 155.132 266.61ZM173.529 272.914C172.592 272.914 171.749 272.709 171 272.3C170.251 271.878 169.659 271.287 169.226 270.526C168.805 269.765 168.594 268.887 168.594 267.892C168.594 266.897 168.811 266.019 169.244 265.258C169.689 264.497 170.292 263.911 171.053 263.501C171.814 263.08 172.662 262.869 173.599 262.869C174.536 262.869 175.384 263.08 176.145 263.501C176.906 263.911 177.503 264.497 177.937 265.258C178.381 266.019 178.604 266.897 178.604 267.892C178.604 268.887 178.376 269.765 177.919 270.526C177.474 271.287 176.865 271.878 176.093 272.3C175.332 272.709 174.477 272.914 173.529 272.914ZM173.529 270.772C173.974 270.772 174.389 270.666 174.776 270.456C175.174 270.233 175.49 269.905 175.724 269.472C175.958 269.039 176.075 268.512 176.075 267.892C176.075 266.967 175.829 266.259 175.338 265.767C174.858 265.263 174.266 265.012 173.564 265.012C172.861 265.012 172.27 265.263 171.79 265.767C171.322 266.259 171.088 266.967 171.088 267.892C171.088 268.817 171.316 269.531 171.773 270.034C172.241 270.526 172.826 270.772 173.529 270.772ZM182.866 259.761V272.756H180.407V259.761H182.866ZM187.753 259.761V272.756H185.295V259.761H187.753ZM189.55 267.857C189.55 266.873 189.743 266.001 190.13 265.24C190.528 264.479 191.061 263.894 191.728 263.484C192.407 263.074 193.162 262.869 193.993 262.869C194.719 262.869 195.351 263.016 195.89 263.308C196.44 263.601 196.879 263.97 197.207 264.415V263.027H199.683V272.756H197.207V271.334C196.891 271.79 196.452 272.171 195.89 272.475C195.34 272.768 194.701 272.914 193.976 272.914C193.156 272.914 192.407 272.703 191.728 272.282C191.061 271.86 190.528 271.269 190.13 270.508C189.743 269.736 189.55 268.852 189.55 267.857ZM197.207 267.892C197.207 267.295 197.09 266.785 196.856 266.364C196.621 265.931 196.305 265.603 195.907 265.38C195.509 265.146 195.082 265.029 194.625 265.029C194.169 265.029 193.747 265.14 193.361 265.363C192.975 265.585 192.659 265.913 192.413 266.346C192.179 266.768 192.061 267.271 192.061 267.857C192.061 268.442 192.179 268.957 192.413 269.402C192.659 269.835 192.975 270.169 193.361 270.403C193.759 270.637 194.181 270.754 194.625 270.754C195.082 270.754 195.509 270.643 195.907 270.42C196.305 270.186 196.621 269.859 196.856 269.437C197.09 269.004 197.207 268.489 197.207 267.892ZM204.543 264.45C204.859 263.981 205.292 263.601 205.842 263.308C206.404 263.016 207.042 262.869 207.756 262.869C208.588 262.869 209.337 263.074 210.004 263.484C210.683 263.894 211.216 264.479 211.602 265.24C212 265.989 212.199 266.861 212.199 267.857C212.199 268.852 212 269.736 211.602 270.508C211.216 271.269 210.683 271.86 210.004 272.282C209.337 272.703 208.588 272.914 207.756 272.914C207.03 272.914 206.392 272.774 205.842 272.493C205.304 272.2 204.87 271.825 204.543 271.369V272.756H202.084V259.761H204.543V264.45ZM209.688 267.857C209.688 267.271 209.565 266.768 209.319 266.346C209.085 265.913 208.769 265.585 208.371 265.363C207.985 265.14 207.563 265.029 207.107 265.029C206.662 265.029 206.24 265.146 205.842 265.38C205.456 265.603 205.14 265.931 204.894 266.364C204.66 266.797 204.543 267.306 204.543 267.892C204.543 268.477 204.66 268.986 204.894 269.42C205.14 269.853 205.456 270.186 205.842 270.42C206.24 270.643 206.662 270.754 207.107 270.754C207.563 270.754 207.985 270.637 208.371 270.403C208.769 270.169 209.085 269.835 209.319 269.402C209.565 268.969 209.688 268.454 209.688 267.857ZM218.306 272.914C217.369 272.914 216.526 272.709 215.777 272.3C215.028 271.878 214.437 271.287 214.003 270.526C213.582 269.765 213.371 268.887 213.371 267.892C213.371 266.897 213.588 266.019 214.021 265.258C214.466 264.497 215.069 263.911 215.83 263.501C216.591 263.08 217.439 262.869 218.376 262.869C219.313 262.869 220.161 263.08 220.922 263.501C221.683 263.911 222.28 264.497 222.714 265.258C223.158 266.019 223.381 266.897 223.381 267.892C223.381 268.887 223.153 269.765 222.696 270.526C222.251 271.287 221.642 271.878 220.87 272.3C220.109 272.709 219.254 272.914 218.306 272.914ZM218.306 270.772C218.751 270.772 219.166 270.666 219.553 270.456C219.951 270.233 220.267 269.905 220.501 269.472C220.735 269.039 220.852 268.512 220.852 267.892C220.852 266.967 220.606 266.259 220.115 265.767C219.635 265.263 219.043 265.012 218.341 265.012C217.638 265.012 217.047 265.263 216.567 265.767C216.099 266.259 215.865 266.967 215.865 267.892C215.865 268.817 216.093 269.531 216.55 270.034C217.018 270.526 217.603 270.772 218.306 270.772ZM227.643 264.538C227.959 264.022 228.369 263.619 228.872 263.326C229.387 263.033 229.973 262.887 230.628 262.887V265.468H229.979C229.206 265.468 228.62 265.65 228.222 266.013C227.836 266.376 227.643 267.008 227.643 267.909V272.756H225.184V263.027H227.643V264.538ZM231.652 267.857C231.652 266.873 231.845 266.001 232.232 265.24C232.63 264.479 233.162 263.894 233.83 263.484C234.509 263.074 235.264 262.869 236.095 262.869C236.821 262.869 237.453 263.016 237.992 263.308C238.542 263.601 238.981 263.97 239.309 264.415V263.027H241.785V272.756H239.309V271.334C238.993 271.79 238.553 272.171 237.992 272.475C237.441 272.768 236.803 272.914 236.077 272.914C235.258 272.914 234.509 272.703 233.83 272.282C233.162 271.86 232.63 271.269 232.232 270.508C231.845 269.736 231.652 268.852 231.652 267.857ZM239.309 267.892C239.309 267.295 239.192 266.785 238.957 266.364C238.723 265.931 238.407 265.603 238.009 265.38C237.611 265.146 237.184 265.029 236.727 265.029C236.271 265.029 235.849 265.14 235.463 265.363C235.076 265.585 234.76 265.913 234.514 266.346C234.28 266.768 234.163 267.271 234.163 267.857C234.163 268.442 234.28 268.957 234.514 269.402C234.76 269.835 235.076 270.169 235.463 270.403C235.861 270.637 236.282 270.754 236.727 270.754C237.184 270.754 237.611 270.643 238.009 270.42C238.407 270.186 238.723 269.859 238.957 269.437C239.192 269.004 239.309 268.489 239.309 267.892ZM247.048 265.047V269.753C247.048 270.081 247.124 270.321 247.277 270.473C247.441 270.614 247.71 270.684 248.084 270.684H249.226V272.756H247.681C245.608 272.756 244.572 271.749 244.572 269.736V265.047H243.413V263.027H244.572V260.621H247.048V263.027H249.226V265.047H247.048ZM252.241 261.868C251.808 261.868 251.445 261.734 251.152 261.464C250.871 261.183 250.731 260.838 250.731 260.428C250.731 260.019 250.871 259.679 251.152 259.41C251.445 259.129 251.808 258.988 252.241 258.988C252.674 258.988 253.031 259.129 253.312 259.41C253.605 259.679 253.751 260.019 253.751 260.428C253.751 260.838 253.605 261.183 253.312 261.464C253.031 261.734 252.674 261.868 252.241 261.868ZM253.453 263.027V272.756H250.994V263.027H253.453ZM260.202 272.914C259.265 272.914 258.422 272.709 257.673 272.3C256.924 271.878 256.333 271.287 255.899 270.526C255.478 269.765 255.267 268.887 255.267 267.892C255.267 266.897 255.484 266.019 255.917 265.258C256.362 264.497 256.965 263.911 257.726 263.501C258.487 263.08 259.335 262.869 260.272 262.869C261.209 262.869 262.057 263.08 262.818 263.501C263.579 263.911 264.176 264.497 264.61 265.258C265.054 266.019 265.277 266.897 265.277 267.892C265.277 268.887 265.049 269.765 264.592 270.526C264.147 271.287 263.538 271.878 262.766 272.3C262.005 272.709 261.15 272.914 260.202 272.914ZM260.202 270.772C260.647 270.772 261.062 270.666 261.449 270.456C261.847 270.233 262.163 269.905 262.397 269.472C262.631 269.039 262.748 268.512 262.748 267.892C262.748 266.967 262.502 266.259 262.011 265.767C261.531 265.263 260.939 265.012 260.237 265.012C259.534 265.012 258.943 265.263 258.463 265.767C257.995 266.259 257.761 266.967 257.761 267.892C257.761 268.817 257.989 269.531 258.446 270.034C258.914 270.526 259.499 270.772 260.202 270.772ZM272.472 262.887C273.631 262.887 274.567 263.256 275.281 263.993C275.995 264.719 276.353 265.738 276.353 267.049V272.756H273.894V267.382C273.894 266.61 273.701 266.019 273.314 265.609C272.928 265.187 272.401 264.977 271.734 264.977C271.055 264.977 270.516 265.187 270.118 265.609C269.732 266.019 269.539 266.61 269.539 267.382V272.756H267.08V263.027H269.539V264.239C269.867 263.818 270.282 263.49 270.786 263.256C271.301 263.01 271.863 262.887 272.472 262.887Z" fill="white"/>
<path d="M193.241 351.991C192.96 351.476 192.573 351.084 192.082 350.815C191.59 350.545 191.016 350.411 190.361 350.411C189.635 350.411 188.991 350.575 188.429 350.902C187.867 351.23 187.428 351.698 187.112 352.307C186.796 352.916 186.638 353.618 186.638 354.415C186.638 355.234 186.796 355.948 187.112 356.557C187.44 357.166 187.89 357.634 188.464 357.962C189.038 358.29 189.705 358.454 190.466 358.454C191.403 358.454 192.169 358.208 192.767 357.716C193.364 357.213 193.756 356.516 193.943 355.626H189.729V353.747H196.367V355.89C196.203 356.744 195.851 357.535 195.313 358.26C194.774 358.986 194.078 359.572 193.223 360.017C192.38 360.45 191.432 360.666 190.378 360.666C189.196 360.666 188.125 360.403 187.165 359.876C186.216 359.337 185.467 358.594 184.917 357.646C184.378 356.697 184.109 355.62 184.109 354.415C184.109 353.209 184.378 352.132 184.917 351.183C185.467 350.223 186.216 349.48 187.165 348.953C188.125 348.415 189.19 348.145 190.361 348.145C191.742 348.145 192.942 348.485 193.961 349.164C194.979 349.831 195.682 350.774 196.068 351.991H193.241ZM200.644 352.342C200.96 351.827 201.37 351.423 201.873 351.131C202.388 350.838 202.974 350.692 203.629 350.692V353.273H202.98C202.207 353.273 201.622 353.455 201.224 353.817C200.837 354.18 200.644 354.813 200.644 355.714V360.561H198.186V350.832H200.644V352.342ZM209.605 360.719C208.669 360.719 207.826 360.514 207.077 360.104C206.327 359.683 205.736 359.092 205.303 358.331C204.881 357.57 204.671 356.692 204.671 355.697C204.671 354.701 204.887 353.823 205.32 353.062C205.765 352.301 206.368 351.716 207.129 351.306C207.89 350.885 208.739 350.674 209.676 350.674C210.612 350.674 211.461 350.885 212.222 351.306C212.983 351.716 213.58 352.301 214.013 353.062C214.458 353.823 214.68 354.701 214.68 355.697C214.68 356.692 214.452 357.57 213.996 358.331C213.551 359.092 212.942 359.683 212.169 360.104C211.408 360.514 210.554 360.719 209.605 360.719ZM209.605 358.577C210.05 358.577 210.466 358.471 210.852 358.26C211.25 358.038 211.566 357.71 211.8 357.277C212.035 356.844 212.152 356.317 212.152 355.697C212.152 354.772 211.906 354.063 211.414 353.572C210.934 353.068 210.343 352.817 209.64 352.817C208.938 352.817 208.347 353.068 207.867 353.572C207.399 354.063 207.164 354.772 207.164 355.697C207.164 356.621 207.393 357.336 207.849 357.839C208.318 358.331 208.903 358.577 209.605 358.577ZM229.971 350.832L227.126 360.561H224.474L222.7 353.765L220.927 360.561H218.258L215.395 350.832H217.889L219.61 358.243L221.471 350.832H224.07L225.897 358.225L227.618 350.832H229.971ZM234.163 352.852V357.558C234.163 357.886 234.24 358.126 234.392 358.278C234.556 358.418 234.825 358.489 235.2 358.489H236.341V360.561H234.796C232.723 360.561 231.687 359.554 231.687 357.54V352.852H230.528V350.832H231.687V348.426H234.163V350.832H236.341V352.852H234.163ZM243.588 350.692C244.326 350.692 244.981 350.856 245.555 351.183C246.129 351.499 246.574 351.974 246.89 352.606C247.218 353.226 247.381 353.976 247.381 354.854V360.561H244.923V355.187C244.923 354.415 244.73 353.823 244.343 353.414C243.957 352.992 243.43 352.781 242.763 352.781C242.084 352.781 241.545 352.992 241.147 353.414C240.761 353.823 240.568 354.415 240.568 355.187V360.561H238.109V347.566H240.568V352.044C240.884 351.622 241.305 351.295 241.832 351.06C242.359 350.815 242.944 350.692 243.588 350.692ZM194.872 374.303V386.561H192.413V378.588L189.129 386.561H187.268L183.966 378.588V386.561H181.508V374.303H184.3L188.198 383.417L192.097 374.303H194.872ZM198.549 375.673C198.116 375.673 197.753 375.538 197.46 375.269C197.179 374.988 197.039 374.643 197.039 374.233C197.039 373.823 197.179 373.484 197.46 373.215C197.753 372.934 198.116 372.793 198.549 372.793C198.982 372.793 199.339 372.934 199.62 373.215C199.913 373.484 200.059 373.823 200.059 374.233C200.059 374.643 199.913 374.988 199.62 375.269C199.339 375.538 198.982 375.673 198.549 375.673ZM199.761 376.832V386.561H197.302V376.832H199.761ZM207.581 376.692C208.74 376.692 209.677 377.06 210.391 377.798C211.105 378.524 211.462 379.542 211.462 380.854V386.561H209.004V381.187C209.004 380.415 208.81 379.823 208.424 379.414C208.038 378.992 207.511 378.781 206.844 378.781C206.165 378.781 205.626 378.992 205.228 379.414C204.842 379.823 204.648 380.415 204.648 381.187V386.561H202.19V376.832H204.648V378.044C204.976 377.622 205.392 377.295 205.895 377.06C206.41 376.815 206.972 376.692 207.581 376.692ZM213.168 381.661C213.168 380.678 213.361 379.806 213.747 379.045C214.145 378.284 214.684 377.698 215.363 377.289C216.042 376.879 216.797 376.674 217.628 376.674C218.261 376.674 218.863 376.815 219.437 377.096C220.011 377.365 220.467 377.728 220.807 378.184V373.566H223.301V386.561H220.807V385.121C220.502 385.601 220.075 385.987 219.525 386.28C218.975 386.573 218.337 386.719 217.611 386.719C216.791 386.719 216.042 386.508 215.363 386.087C214.684 385.665 214.145 385.074 213.747 384.313C213.361 383.54 213.168 382.657 213.168 381.661ZM220.824 381.697C220.824 381.099 220.707 380.59 220.473 380.169C220.239 379.736 219.923 379.408 219.525 379.185C219.127 378.951 218.7 378.834 218.243 378.834C217.786 378.834 217.365 378.945 216.979 379.168C216.592 379.39 216.276 379.718 216.03 380.151C215.796 380.573 215.679 381.076 215.679 381.661C215.679 382.247 215.796 382.762 216.03 383.207C216.276 383.64 216.592 383.974 216.979 384.208C217.377 384.442 217.798 384.559 218.243 384.559C218.7 384.559 219.127 384.448 219.525 384.225C219.923 383.991 220.239 383.663 220.473 383.242C220.707 382.809 220.824 382.294 220.824 381.697ZM229.425 386.719C228.629 386.719 227.914 386.578 227.282 386.297C226.65 386.005 226.147 385.613 225.772 385.121C225.409 384.629 225.21 384.085 225.175 383.488H227.651C227.698 383.862 227.879 384.173 228.195 384.418C228.523 384.664 228.927 384.787 229.407 384.787C229.875 384.787 230.238 384.694 230.496 384.506C230.765 384.319 230.9 384.079 230.9 383.786C230.9 383.47 230.736 383.236 230.408 383.084C230.092 382.92 229.583 382.744 228.88 382.557C228.154 382.381 227.557 382.2 227.089 382.013C226.632 381.825 226.234 381.538 225.895 381.152C225.567 380.766 225.403 380.245 225.403 379.589C225.403 379.051 225.555 378.559 225.86 378.114C226.176 377.669 226.621 377.318 227.194 377.06C227.78 376.803 228.465 376.674 229.249 376.674C230.408 376.674 231.333 376.967 232.024 377.552C232.714 378.126 233.095 378.904 233.165 379.888H230.812C230.777 379.501 230.613 379.197 230.32 378.975C230.039 378.74 229.659 378.623 229.179 378.623C228.734 378.623 228.389 378.705 228.143 378.869C227.909 379.033 227.791 379.261 227.791 379.554C227.791 379.882 227.955 380.134 228.283 380.309C228.611 380.473 229.12 380.643 229.811 380.818C230.513 380.994 231.093 381.176 231.55 381.363C232.006 381.55 232.398 381.843 232.726 382.241C233.066 382.627 233.241 383.142 233.253 383.786C233.253 384.348 233.095 384.852 232.779 385.297C232.474 385.741 232.03 386.093 231.444 386.35C230.87 386.596 230.197 386.719 229.425 386.719ZM244.315 381.486C244.315 381.837 244.292 382.153 244.245 382.434H237.133C237.191 383.137 237.437 383.687 237.87 384.085C238.303 384.483 238.836 384.682 239.468 384.682C240.381 384.682 241.031 384.29 241.417 383.505H244.069C243.788 384.442 243.25 385.215 242.454 385.823C241.657 386.42 240.68 386.719 239.521 386.719C238.584 386.719 237.741 386.514 236.992 386.104C236.254 385.683 235.675 385.092 235.254 384.331C234.844 383.57 234.639 382.692 234.639 381.697C234.639 380.69 234.844 379.806 235.254 379.045C235.663 378.284 236.237 377.698 236.974 377.289C237.712 376.879 238.561 376.674 239.521 376.674C240.446 376.674 241.271 376.873 241.997 377.271C242.734 377.669 243.302 378.237 243.7 378.975C244.11 379.7 244.315 380.537 244.315 381.486ZM241.769 380.783C241.757 380.151 241.529 379.648 241.084 379.273C240.639 378.887 240.094 378.694 239.451 378.694C238.842 378.694 238.327 378.881 237.905 379.256C237.495 379.618 237.244 380.128 237.15 380.783H241.769ZM248.972 378.852V383.558C248.972 383.886 249.048 384.126 249.2 384.278C249.364 384.418 249.633 384.489 250.008 384.489H251.149V386.561H249.604C247.532 386.561 246.496 385.554 246.496 383.54V378.852H245.337V376.832H246.496V374.426H248.972V376.832H251.149V378.852H248.972Z" fill="white"/>
<path d="M216 432C335.293 432 432 335.293 432 216C432 96.7065 335.293 0 216 0C96.7065 0 0 96.7065 0 216C0 335.176 96.8679 431.811 216 432ZM216 432C117.235 431.811 36.878 351.687 36.878 252.878C36.878 153.952 117.074 73.7561 216 73.7561C314.926 73.7561 395.122 153.952 395.122 252.878C395.122 351.804 314.926 432 216 432ZM216 432C215.883 432 216.117 432.001 216 432Z" stroke="white" stroke-width="0.878049" stroke-linecap="round" stroke-linejoin="round"/>
<path d="M216.001 432C314.927 432 395.123 351.804 395.123 252.878C395.123 153.952 314.927 73.7561 216.001 73.7561C117.075 73.7561 36.8789 153.952 36.8789 252.878C36.8789 351.687 117.236 431.811 216.001 432ZM216.001 432C137.603 431.811 73.757 368.198 73.757 289.756C73.757 211.197 137.442 147.512 216.001 147.512C294.56 147.512 358.245 211.197 358.245 289.756C358.245 368.315 294.56 432 216.001 432ZM216.001 432C215.884 432 216.118 432.001 216.001 432Z" stroke="white" stroke-width="0.878049" stroke-linecap="round" stroke-linejoin="round"/>
<path d="M216.002 432C294.561 432 358.246 368.315 358.246 289.756C358.246 211.197 294.561 147.512 216.002 147.512C137.443 147.512 73.7578 211.197 73.7578 289.756C73.7578 368.198 137.604 431.811 216.002 432ZM216.002 432C157.971 431.811 110.636 384.709 110.636 326.634C110.636 268.442 157.81 221.268 216.002 221.268C274.194 221.268 321.368 268.442 321.368 326.634C321.368 384.826 274.194 432 216.002 432ZM216.002 432C215.885 432 216.119 432.001 216.002 432Z" stroke="white" stroke-width="0.878049" stroke-linecap="round" stroke-linejoin="round"/>
<path d="M215.999 432C274.191 432 321.365 384.826 321.365 326.634C321.365 268.442 274.191 221.268 215.999 221.268C157.807 221.268 110.633 268.442 110.633 326.634C110.633 384.709 157.968 431.811 215.999 432ZM215.999 432C178.335 431.811 147.511 401.22 147.511 363.512C147.511 325.687 178.174 295.024 215.999 295.024C253.823 295.024 284.486 325.687 284.486 363.512C284.486 401.337 253.823 432 215.999 432ZM215.999 432C215.882 432 216.116 432.001 215.999 432Z" stroke="white" stroke-width="0.878049" stroke-linecap="round" stroke-linejoin="round"/>
<path d="M216 432C253.824 432 284.487 401.337 284.487 363.512C284.487 325.687 253.824 295.024 216 295.024C178.175 295.024 147.512 325.687 147.512 363.512C147.512 401.22 178.336 431.811 216 432ZM216 432C215.882 432 216.116 432.001 216 432Z" stroke="white" stroke-width="0.878049" stroke-linecap="round" stroke-linejoin="round"/>
</g>
</g>
<defs>
<clipPath id="clip0_686_2517">
<rect width="432" height="410" fill="white"/>
</clipPath>
</defs>
</svg>
