<svg width="434" height="411" viewBox="0 0 434 411" fill="none" xmlns="http://www.w3.org/2000/svg">
<g opacity="0.4">
<path fill-rule="evenodd" clip-rule="evenodd" d="M217 433C336.293 433 433 336.293 433 217C433 97.7065 336.293 1 217 1C97.7065 1 1 97.7065 1 217C1 336.177 97.8681 432.81 217 433C118.235 432.81 37.878 352.688 37.878 253.878C37.878 154.952 118.074 74.7561 217 74.7561C315.926 74.7561 396.122 154.952 396.122 253.878C396.122 352.804 315.926 433 217 433ZM217 433C216.883 433 217.117 433.001 217 433V433Z" fill="#4DB7EA"/>
<path fill-rule="evenodd" clip-rule="evenodd" d="M217.001 433C315.927 433 396.123 352.804 396.123 253.878C396.123 154.952 315.927 74.7561 217.001 74.7561C118.075 74.7561 37.8789 154.952 37.8789 253.878C37.8789 352.688 118.236 432.81 217.001 433C138.603 432.81 74.757 369.198 74.757 290.756C74.757 212.197 138.442 148.512 217.001 148.512C295.56 148.512 359.245 212.197 359.245 290.756C359.245 369.315 295.56 433 217.001 433ZM217.001 433C216.884 433 217.118 433.001 217.001 433V433Z" fill="#3FAADD"/>
<path fill-rule="evenodd" clip-rule="evenodd" d="M217.002 433C295.561 433 359.246 369.315 359.246 290.756C359.246 212.197 295.561 148.512 217.002 148.512C138.443 148.512 74.7578 212.197 74.7578 290.756C74.7578 369.198 138.604 432.81 217.002 433C158.971 432.81 111.636 385.709 111.636 327.634C111.636 269.442 158.81 222.268 217.002 222.268C275.194 222.268 322.368 269.442 322.368 327.634C322.368 385.826 275.194 433 217.002 433ZM217.002 433C216.885 433 217.118 433.001 217.002 433V433Z" fill="#389CCC"/>
<path fill-rule="evenodd" clip-rule="evenodd" d="M216.999 433C275.19 433 322.365 385.826 322.365 327.634C322.365 269.442 275.19 222.268 216.999 222.268C158.807 222.268 111.633 269.442 111.633 327.634C111.633 385.709 158.968 432.81 216.999 433C179.336 432.811 148.511 402.22 148.511 364.512C148.511 326.688 179.174 296.024 216.999 296.024C254.823 296.024 285.486 326.688 285.486 364.512C285.486 402.337 254.823 433 216.999 433ZM216.999 433C216.882 433 217.115 433.001 216.999 433V433Z" fill="#328AB4"/>
<path fill-rule="evenodd" clip-rule="evenodd" d="M285.487 364.512C285.487 402.337 254.824 433 217 433C179.337 432.811 148.512 402.22 148.512 364.512C148.512 326.688 179.175 296.024 217 296.024C254.824 296.024 285.487 326.688 285.487 364.512ZM217 433C216.883 433 217.116 433.001 217 433V433Z" fill="#27789F"/>
<path d="M172.556 42.8644V55.1219H170.097V42.8644H172.556ZM180.376 45.2527C181.535 45.2527 182.472 45.6215 183.186 46.359C183.9 47.0849 184.257 48.1034 184.257 49.4146V55.1219H181.799V49.7483C181.799 48.9756 181.605 48.3844 181.219 47.9746C180.833 47.5532 180.306 47.3424 179.639 47.3424C178.959 47.3424 178.421 47.5532 178.023 47.9746C177.637 48.3844 177.443 48.9756 177.443 49.7483V55.1219H174.985V45.3932H177.443V46.6049C177.771 46.1834 178.187 45.8556 178.69 45.6215C179.205 45.3756 179.767 45.2527 180.376 45.2527ZM191.986 45.2527C193.145 45.2527 194.082 45.6215 194.796 46.359C195.51 47.0849 195.867 48.1034 195.867 49.4146V55.1219H193.409V49.7483C193.409 48.9756 193.215 48.3844 192.829 47.9746C192.443 47.5532 191.916 47.3424 191.249 47.3424C190.57 47.3424 190.031 47.5532 189.633 47.9746C189.247 48.3844 189.054 48.9756 189.054 49.7483V55.1219H186.595V45.3932H189.054V46.6049C189.381 46.1834 189.797 45.8556 190.3 45.6215C190.815 45.3756 191.377 45.2527 191.986 45.2527ZM202.525 55.28C201.589 55.28 200.746 55.0751 199.996 54.6654C199.247 54.2439 198.656 53.6527 198.223 52.8917C197.801 52.1307 197.591 51.2527 197.591 50.2576C197.591 49.2624 197.807 48.3844 198.24 47.6234C198.685 46.8624 199.288 46.2771 200.049 45.8673C200.81 45.4459 201.659 45.2351 202.595 45.2351C203.532 45.2351 204.381 45.4459 205.142 45.8673C205.903 46.2771 206.5 46.8624 206.933 47.6234C207.378 48.3844 207.6 49.2624 207.6 50.2576C207.6 51.2527 207.372 52.1307 206.915 52.8917C206.471 53.6527 205.862 54.2439 205.089 54.6654C204.328 55.0751 203.473 55.28 202.525 55.28ZM202.525 53.1376C202.97 53.1376 203.386 53.0322 203.772 52.8215C204.17 52.599 204.486 52.2712 204.72 51.838C204.954 51.4049 205.071 50.878 205.071 50.2576C205.071 49.3327 204.826 48.6244 204.334 48.1327C203.854 47.6293 203.263 47.3776 202.56 47.3776C201.858 47.3776 201.267 47.6293 200.787 48.1327C200.318 48.6244 200.084 49.3327 200.084 50.2576C200.084 51.1824 200.312 51.8966 200.769 52.4C201.237 52.8917 201.823 53.1376 202.525 53.1376ZM213.46 52.8566L215.919 45.3932H218.535L214.935 55.1219H211.95L208.368 45.3932H211.002L213.46 52.8566ZM219.284 50.2224C219.284 49.239 219.477 48.3668 219.864 47.6058C220.262 46.8449 220.794 46.2595 221.462 45.8498C222.141 45.44 222.896 45.2351 223.727 45.2351C224.453 45.2351 225.085 45.3815 225.624 45.6741C226.174 45.9668 226.613 46.3356 226.941 46.7805V45.3932H229.417V55.1219H226.941V53.6995C226.625 54.1561 226.186 54.5366 225.624 54.841C225.073 55.1337 224.435 55.28 223.709 55.28C222.89 55.28 222.141 55.0693 221.462 54.6478C220.794 54.2263 220.262 53.6351 219.864 52.8741C219.477 52.1015 219.284 51.2176 219.284 50.2224ZM226.941 50.2576C226.941 49.6605 226.824 49.1512 226.589 48.7298C226.355 48.2966 226.039 47.9688 225.641 47.7463C225.243 47.5122 224.816 47.3951 224.359 47.3951C223.903 47.3951 223.481 47.5063 223.095 47.7288C222.708 47.9512 222.392 48.279 222.147 48.7122C221.912 49.1337 221.795 49.6371 221.795 50.2224C221.795 50.8078 221.912 51.3229 222.147 51.7678C222.392 52.201 222.708 52.5346 223.095 52.7688C223.493 53.0029 223.914 53.12 224.359 53.12C224.816 53.12 225.243 53.0088 225.641 52.7863C226.039 52.5522 226.355 52.2244 226.589 51.8029C226.824 51.3698 226.941 50.8546 226.941 50.2576ZM234.68 47.4127V52.119C234.68 52.4468 234.756 52.6868 234.909 52.839C235.073 52.9795 235.342 53.0498 235.716 53.0498H236.858V55.1219H235.313C233.24 55.1219 232.204 54.1151 232.204 52.1015V47.4127H231.045V45.3932H232.204V42.9873H234.68V45.3932H236.858V47.4127H234.68ZM239.873 44.2341C239.44 44.2341 239.077 44.0995 238.784 43.8302C238.503 43.5493 238.363 43.2039 238.363 42.7941C238.363 42.3844 238.503 42.0449 238.784 41.7756C239.077 41.4946 239.44 41.3541 239.873 41.3541C240.306 41.3541 240.663 41.4946 240.944 41.7756C241.237 42.0449 241.383 42.3844 241.383 42.7941C241.383 43.2039 241.237 43.5493 240.944 43.8302C240.663 44.0995 240.306 44.2341 239.873 44.2341ZM241.085 45.3932V55.1219H238.626V45.3932H241.085ZM247.834 55.28C246.897 55.28 246.054 55.0751 245.305 54.6654C244.556 54.2439 243.965 53.6527 243.531 52.8917C243.11 52.1307 242.899 51.2527 242.899 50.2576C242.899 49.2624 243.116 48.3844 243.549 47.6234C243.994 46.8624 244.597 46.2771 245.358 45.8673C246.119 45.4459 246.967 45.2351 247.904 45.2351C248.841 45.2351 249.689 45.4459 250.45 45.8673C251.211 46.2771 251.808 46.8624 252.242 47.6234C252.687 48.3844 252.909 49.2624 252.909 50.2576C252.909 51.2527 252.681 52.1307 252.224 52.8917C251.779 53.6527 251.17 54.2439 250.398 54.6654C249.637 55.0751 248.782 55.28 247.834 55.28ZM247.834 53.1376C248.279 53.1376 248.694 53.0322 249.081 52.8215C249.479 52.599 249.795 52.2712 250.029 51.838C250.263 51.4049 250.38 50.878 250.38 50.2576C250.38 49.3327 250.134 48.6244 249.643 48.1327C249.163 47.6293 248.571 47.3776 247.869 47.3776C247.167 47.3776 246.575 47.6293 246.095 48.1327C245.627 48.6244 245.393 49.3327 245.393 50.2576C245.393 51.1824 245.621 51.8966 246.078 52.4C246.546 52.8917 247.131 53.1376 247.834 53.1376ZM260.104 45.2527C261.263 45.2527 262.199 45.6215 262.913 46.359C263.628 47.0849 263.985 48.1034 263.985 49.4146V55.1219H261.526V49.7483C261.526 48.9756 261.333 48.3844 260.947 47.9746C260.56 47.5532 260.033 47.3424 259.366 47.3424C258.687 47.3424 258.148 47.5532 257.75 47.9746C257.364 48.3844 257.171 48.9756 257.171 49.7483V55.1219H254.712V45.3932H257.171V46.6049C257.499 46.1834 257.914 45.8556 258.418 45.6215C258.933 45.3756 259.495 45.2527 260.104 45.2527Z" fill="white"/>
<path d="M182.931 113.986V126.244H180.473V113.986H182.931ZM190.751 116.375C191.91 116.375 192.847 116.743 193.561 117.481C194.275 118.207 194.632 119.225 194.632 120.537V126.244H192.174V120.87C192.174 120.098 191.981 119.506 191.594 119.097C191.208 118.675 190.681 118.464 190.014 118.464C189.335 118.464 188.796 118.675 188.398 119.097C188.012 119.506 187.819 120.098 187.819 120.87V126.244H185.36V116.515H187.819V117.727C188.147 117.305 188.562 116.978 189.066 116.743C189.581 116.498 190.143 116.375 190.751 116.375ZM199.833 118.535V123.241C199.833 123.569 199.909 123.809 200.061 123.961C200.225 124.101 200.494 124.172 200.869 124.172H202.01V126.244H200.465C198.393 126.244 197.357 125.237 197.357 123.223V118.535H196.198V116.515H197.357V114.109H199.833V116.515H202.01V118.535H199.833ZM212.823 121.169C212.823 121.52 212.799 121.836 212.752 122.117H205.64C205.699 122.82 205.945 123.37 206.378 123.768C206.811 124.166 207.344 124.365 207.976 124.365C208.889 124.365 209.539 123.973 209.925 123.188H212.577C212.296 124.125 211.757 124.898 210.961 125.506C210.165 126.103 209.187 126.402 208.028 126.402C207.092 126.402 206.249 126.197 205.5 125.787C204.762 125.366 204.183 124.775 203.761 124.014C203.351 123.253 203.146 122.375 203.146 121.38C203.146 120.373 203.351 119.489 203.761 118.728C204.171 117.967 204.745 117.381 205.482 116.972C206.22 116.562 207.068 116.357 208.028 116.357C208.953 116.357 209.779 116.556 210.505 116.954C211.242 117.352 211.81 117.92 212.208 118.658C212.618 119.383 212.823 120.22 212.823 121.169ZM210.276 120.466C210.265 119.834 210.036 119.331 209.591 118.956C209.146 118.57 208.602 118.377 207.958 118.377C207.349 118.377 206.834 118.564 206.413 118.939C206.003 119.301 205.751 119.811 205.658 120.466H210.276ZM218.428 116.357C219.154 116.357 219.792 116.503 220.342 116.796C220.892 117.077 221.325 117.446 221.641 117.902V116.515H224.118V126.314C224.118 127.216 223.936 128.018 223.573 128.72C223.21 129.434 222.666 129.996 221.94 130.406C221.214 130.827 220.336 131.038 219.306 131.038C217.924 131.038 216.789 130.716 215.899 130.072C215.021 129.428 214.523 128.55 214.406 127.438H216.847C216.976 127.883 217.251 128.234 217.673 128.492C218.106 128.761 218.627 128.896 219.236 128.896C219.95 128.896 220.529 128.679 220.974 128.246C221.419 127.824 221.641 127.18 221.641 126.314V124.804C221.325 125.26 220.886 125.641 220.324 125.945C219.774 126.25 219.142 126.402 218.428 126.402C217.608 126.402 216.859 126.191 216.18 125.77C215.501 125.348 214.962 124.757 214.564 123.996C214.178 123.223 213.985 122.34 213.985 121.344C213.985 120.361 214.178 119.489 214.564 118.728C214.962 117.967 215.495 117.381 216.162 116.972C216.841 116.562 217.597 116.357 218.428 116.357ZM221.641 121.38C221.641 120.782 221.524 120.273 221.29 119.852C221.056 119.419 220.74 119.091 220.342 118.868C219.944 118.634 219.517 118.517 219.06 118.517C218.603 118.517 218.182 118.628 217.796 118.851C217.409 119.073 217.093 119.401 216.847 119.834C216.613 120.256 216.496 120.759 216.496 121.344C216.496 121.93 216.613 122.445 216.847 122.89C217.093 123.323 217.409 123.657 217.796 123.891C218.194 124.125 218.615 124.242 219.06 124.242C219.517 124.242 219.944 124.131 220.342 123.908C220.74 123.674 221.056 123.346 221.29 122.925C221.524 122.492 221.641 121.977 221.641 121.38ZM228.977 118.025C229.293 117.51 229.703 117.106 230.207 116.814C230.722 116.521 231.307 116.375 231.963 116.375V118.956H231.313C230.54 118.956 229.955 119.138 229.557 119.5C229.17 119.863 228.977 120.496 228.977 121.397V126.244H226.519V116.515H228.977V118.025ZM234.865 115.356C234.432 115.356 234.069 115.221 233.777 114.952C233.496 114.671 233.355 114.326 233.355 113.916C233.355 113.506 233.496 113.167 233.777 112.898C234.069 112.617 234.432 112.476 234.865 112.476C235.299 112.476 235.656 112.617 235.937 112.898C236.229 113.167 236.376 113.506 236.376 113.916C236.376 114.326 236.229 114.671 235.937 114.952C235.656 115.221 235.299 115.356 234.865 115.356ZM236.077 116.515V126.244H233.619V116.515H236.077ZM241.369 118.535V123.241C241.369 123.569 241.445 123.809 241.597 123.961C241.761 124.101 242.03 124.172 242.405 124.172H243.546V126.244H242.001C239.929 126.244 238.893 125.237 238.893 123.223V118.535H237.734V116.515H238.893V114.109H241.369V116.515H243.546V118.535H241.369ZM254.622 116.515L248.598 130.845H245.982L248.089 125.998L244.191 116.515H246.948L249.459 123.311L252.005 116.515H254.622Z" fill="white"/>
<path d="M173.739 189.727V192.8H177.866V194.749H173.739V197.998H178.393V200H171.281V187.725H178.393V189.727H173.739ZM186.001 200L183.999 196.98L182.225 200H179.591L182.769 195.118L179.556 190.271H182.33L184.315 193.274L186.106 190.271H188.74L185.544 195.118L188.775 200H186.001ZM189.478 195.136C189.478 194.129 189.683 193.251 190.093 192.501C190.503 191.741 191.071 191.155 191.796 190.745C192.522 190.324 193.354 190.113 194.29 190.113C195.496 190.113 196.491 190.418 197.276 191.026C198.072 191.623 198.604 192.466 198.874 193.555H196.222C196.081 193.134 195.841 192.806 195.502 192.572C195.174 192.326 194.764 192.203 194.273 192.203C193.57 192.203 193.014 192.461 192.604 192.976C192.195 193.479 191.99 194.199 191.99 195.136C191.99 196.061 192.195 196.781 192.604 197.296C193.014 197.799 193.57 198.051 194.273 198.051C195.268 198.051 195.917 197.606 196.222 196.716H198.874C198.604 197.77 198.072 198.607 197.276 199.227C196.479 199.848 195.484 200.158 194.29 200.158C193.354 200.158 192.522 199.953 191.796 199.543C191.071 199.122 190.503 198.537 190.093 197.787C189.683 197.026 189.478 196.142 189.478 195.136ZM209.719 194.925C209.719 195.276 209.695 195.592 209.648 195.873H202.536C202.595 196.576 202.84 197.126 203.274 197.524C203.707 197.922 204.24 198.121 204.872 198.121C205.785 198.121 206.435 197.729 206.821 196.944H209.473C209.192 197.881 208.653 198.654 207.857 199.262C207.061 199.86 206.083 200.158 204.924 200.158C203.988 200.158 203.145 199.953 202.396 199.543C201.658 199.122 201.079 198.531 200.657 197.77C200.247 197.009 200.042 196.131 200.042 195.136C200.042 194.129 200.247 193.245 200.657 192.484C201.067 191.723 201.64 191.138 202.378 190.728C203.116 190.318 203.964 190.113 204.924 190.113C205.849 190.113 206.675 190.312 207.4 190.71C208.138 191.108 208.706 191.676 209.104 192.414C209.514 193.14 209.719 193.977 209.719 194.925ZM207.172 194.222C207.16 193.59 206.932 193.087 206.487 192.712C206.042 192.326 205.498 192.133 204.854 192.133C204.245 192.133 203.73 192.32 203.309 192.695C202.899 193.058 202.647 193.567 202.554 194.222H207.172ZM213.972 187.005V200H211.513V187.005H213.972ZM218.859 187.005V200H216.401V187.005H218.859ZM230.332 194.925C230.332 195.276 230.309 195.592 230.262 195.873H223.15C223.208 196.576 223.454 197.126 223.887 197.524C224.32 197.922 224.853 198.121 225.485 198.121C226.398 198.121 227.048 197.729 227.435 196.944H230.086C229.805 197.881 229.267 198.654 228.471 199.262C227.675 199.86 226.697 200.158 225.538 200.158C224.601 200.158 223.758 199.953 223.009 199.543C222.272 199.122 221.692 198.531 221.271 197.77C220.861 197.009 220.656 196.131 220.656 195.136C220.656 194.129 220.861 193.245 221.271 192.484C221.68 191.723 222.254 191.138 222.992 190.728C223.729 190.318 224.578 190.113 225.538 190.113C226.463 190.113 227.288 190.312 228.014 190.71C228.752 191.108 229.319 191.676 229.717 192.414C230.127 193.14 230.332 193.977 230.332 194.925ZM227.786 194.222C227.774 193.59 227.546 193.087 227.101 192.712C226.656 192.326 226.112 192.133 225.468 192.133C224.859 192.133 224.344 192.32 223.922 192.695C223.513 193.058 223.261 193.567 223.167 194.222H227.786ZM237.518 190.131C238.677 190.131 239.613 190.5 240.328 191.237C241.042 191.963 241.399 192.981 241.399 194.293V200H238.94V194.626C238.94 193.854 238.747 193.262 238.361 192.853C237.974 192.431 237.448 192.221 236.78 192.221C236.101 192.221 235.563 192.431 235.165 192.853C234.778 193.262 234.585 193.854 234.585 194.626V200H232.127V190.271H234.585V191.483C234.913 191.061 235.329 190.734 235.832 190.5C236.347 190.254 236.909 190.131 237.518 190.131ZM243.105 195.136C243.105 194.129 243.309 193.251 243.719 192.501C244.129 191.741 244.697 191.155 245.423 190.745C246.148 190.324 246.98 190.113 247.916 190.113C249.122 190.113 250.117 190.418 250.902 191.026C251.698 191.623 252.23 192.466 252.5 193.555H249.848C249.707 193.134 249.467 192.806 249.128 192.572C248.8 192.326 248.39 192.203 247.899 192.203C247.196 192.203 246.64 192.461 246.23 192.976C245.821 193.479 245.616 194.199 245.616 195.136C245.616 196.061 245.821 196.781 246.23 197.296C246.64 197.799 247.196 198.051 247.899 198.051C248.894 198.051 249.544 197.606 249.848 196.716H252.5C252.23 197.77 251.698 198.607 250.902 199.227C250.106 199.848 249.11 200.158 247.916 200.158C246.98 200.158 246.148 199.953 245.423 199.543C244.697 199.122 244.129 198.537 243.719 197.787C243.309 197.026 243.105 196.142 243.105 195.136ZM263.345 194.925C263.345 195.276 263.321 195.592 263.274 195.873H256.162C256.221 196.576 256.467 197.126 256.9 197.524C257.333 197.922 257.866 198.121 258.498 198.121C259.411 198.121 260.061 197.729 260.447 196.944H263.099C262.818 197.881 262.279 198.654 261.483 199.262C260.687 199.86 259.71 200.158 258.551 200.158C257.614 200.158 256.771 199.953 256.022 199.543C255.284 199.122 254.705 198.531 254.283 197.77C253.873 197.009 253.669 196.131 253.669 195.136C253.669 194.129 253.873 193.245 254.283 192.484C254.693 191.723 255.267 191.138 256.004 190.728C256.742 190.318 257.591 190.113 258.551 190.113C259.475 190.113 260.301 190.312 261.027 190.71C261.764 191.108 262.332 191.676 262.73 192.414C263.14 193.14 263.345 193.977 263.345 194.925ZM260.798 194.222C260.787 193.59 260.558 193.087 260.113 192.712C259.669 192.326 259.124 192.133 258.48 192.133C257.872 192.133 257.356 192.32 256.935 192.695C256.525 193.058 256.273 193.567 256.18 194.222H260.798Z" fill="white"/>
<path d="M156.132 267.61C156.132 266.404 156.402 265.327 156.94 264.379C157.49 263.419 158.234 262.675 159.17 262.148C160.119 261.61 161.178 261.34 162.349 261.34C163.719 261.34 164.919 261.692 165.949 262.394C166.979 263.097 167.699 264.068 168.109 265.309H165.282C165.001 264.724 164.603 264.285 164.087 263.992C163.584 263.7 162.999 263.553 162.331 263.553C161.617 263.553 160.979 263.723 160.417 264.062C159.867 264.39 159.434 264.859 159.118 265.467C158.813 266.076 158.661 266.79 158.661 267.61C158.661 268.418 158.813 269.132 159.118 269.752C159.434 270.361 159.867 270.835 160.417 271.175C160.979 271.502 161.617 271.666 162.331 271.666C162.999 271.666 163.584 271.52 164.087 271.227C164.603 270.923 165.001 270.478 165.282 269.893H168.109C167.699 271.145 166.979 272.123 165.949 272.825C164.93 273.516 163.73 273.861 162.349 273.861C161.178 273.861 160.119 273.598 159.17 273.071C158.234 272.533 157.49 271.789 156.94 270.841C156.402 269.893 156.132 268.816 156.132 267.61ZM174.529 273.914C173.592 273.914 172.749 273.709 172 273.3C171.251 272.878 170.659 272.287 170.226 271.526C169.805 270.765 169.594 269.887 169.594 268.892C169.594 267.897 169.811 267.019 170.244 266.258C170.689 265.497 171.292 264.911 172.053 264.501C172.814 264.08 173.662 263.869 174.599 263.869C175.536 263.869 176.384 264.08 177.145 264.501C177.906 264.911 178.503 265.497 178.937 266.258C179.381 267.019 179.604 267.897 179.604 268.892C179.604 269.887 179.376 270.765 178.919 271.526C178.474 272.287 177.865 272.878 177.093 273.3C176.332 273.709 175.477 273.914 174.529 273.914ZM174.529 271.772C174.974 271.772 175.389 271.666 175.776 271.456C176.174 271.233 176.49 270.905 176.724 270.472C176.958 270.039 177.075 269.512 177.075 268.892C177.075 267.967 176.829 267.259 176.338 266.767C175.858 266.263 175.266 266.012 174.564 266.012C173.861 266.012 173.27 266.263 172.79 266.767C172.322 267.259 172.088 267.967 172.088 268.892C172.088 269.817 172.316 270.531 172.773 271.034C173.241 271.526 173.826 271.772 174.529 271.772ZM183.866 260.761V273.756H181.407V260.761H183.866ZM188.753 260.761V273.756H186.295V260.761H188.753ZM190.55 268.857C190.55 267.873 190.743 267.001 191.13 266.24C191.528 265.479 192.061 264.894 192.728 264.484C193.407 264.074 194.162 263.869 194.993 263.869C195.719 263.869 196.351 264.016 196.89 264.308C197.44 264.601 197.879 264.97 198.207 265.415V264.027H200.683V273.756H198.207V272.334C197.891 272.79 197.452 273.171 196.89 273.475C196.34 273.768 195.701 273.914 194.976 273.914C194.156 273.914 193.407 273.703 192.728 273.282C192.061 272.86 191.528 272.269 191.13 271.508C190.743 270.736 190.55 269.852 190.55 268.857ZM198.207 268.892C198.207 268.295 198.09 267.785 197.856 267.364C197.621 266.931 197.305 266.603 196.907 266.38C196.509 266.146 196.082 266.029 195.625 266.029C195.169 266.029 194.747 266.14 194.361 266.363C193.975 266.585 193.659 266.913 193.413 267.346C193.179 267.768 193.061 268.271 193.061 268.857C193.061 269.442 193.179 269.957 193.413 270.402C193.659 270.835 193.975 271.169 194.361 271.403C194.759 271.637 195.181 271.754 195.625 271.754C196.082 271.754 196.509 271.643 196.907 271.42C197.305 271.186 197.621 270.859 197.856 270.437C198.09 270.004 198.207 269.489 198.207 268.892ZM205.543 265.45C205.859 264.981 206.292 264.601 206.842 264.308C207.404 264.016 208.042 263.869 208.756 263.869C209.588 263.869 210.337 264.074 211.004 264.484C211.683 264.894 212.216 265.479 212.602 266.24C213 266.989 213.199 267.861 213.199 268.857C213.199 269.852 213 270.736 212.602 271.508C212.216 272.269 211.683 272.86 211.004 273.282C210.337 273.703 209.588 273.914 208.756 273.914C208.03 273.914 207.392 273.774 206.842 273.493C206.304 273.2 205.87 272.825 205.543 272.369V273.756H203.084V260.761H205.543V265.45ZM210.688 268.857C210.688 268.271 210.565 267.768 210.319 267.346C210.085 266.913 209.769 266.585 209.371 266.363C208.985 266.14 208.563 266.029 208.107 266.029C207.662 266.029 207.24 266.146 206.842 266.38C206.456 266.603 206.14 266.931 205.894 267.364C205.66 267.797 205.543 268.306 205.543 268.892C205.543 269.477 205.66 269.986 205.894 270.42C206.14 270.853 206.456 271.186 206.842 271.42C207.24 271.643 207.662 271.754 208.107 271.754C208.563 271.754 208.985 271.637 209.371 271.403C209.769 271.169 210.085 270.835 210.319 270.402C210.565 269.969 210.688 269.454 210.688 268.857ZM219.306 273.914C218.369 273.914 217.526 273.709 216.777 273.3C216.028 272.878 215.437 272.287 215.003 271.526C214.582 270.765 214.371 269.887 214.371 268.892C214.371 267.897 214.588 267.019 215.021 266.258C215.466 265.497 216.069 264.911 216.83 264.501C217.591 264.08 218.439 263.869 219.376 263.869C220.313 263.869 221.161 264.08 221.922 264.501C222.683 264.911 223.28 265.497 223.714 266.258C224.158 267.019 224.381 267.897 224.381 268.892C224.381 269.887 224.153 270.765 223.696 271.526C223.251 272.287 222.642 272.878 221.87 273.3C221.109 273.709 220.254 273.914 219.306 273.914ZM219.306 271.772C219.751 271.772 220.166 271.666 220.553 271.456C220.951 271.233 221.267 270.905 221.501 270.472C221.735 270.039 221.852 269.512 221.852 268.892C221.852 267.967 221.606 267.259 221.115 266.767C220.635 266.263 220.043 266.012 219.341 266.012C218.638 266.012 218.047 266.263 217.567 266.767C217.099 267.259 216.865 267.967 216.865 268.892C216.865 269.817 217.093 270.531 217.55 271.034C218.018 271.526 218.603 271.772 219.306 271.772ZM228.643 265.538C228.959 265.022 229.369 264.619 229.872 264.326C230.387 264.033 230.973 263.887 231.628 263.887V266.468H230.979C230.206 266.468 229.62 266.65 229.222 267.013C228.836 267.376 228.643 268.008 228.643 268.909V273.756H226.184V264.027H228.643V265.538ZM232.652 268.857C232.652 267.873 232.845 267.001 233.232 266.24C233.63 265.479 234.162 264.894 234.83 264.484C235.509 264.074 236.264 263.869 237.095 263.869C237.821 263.869 238.453 264.016 238.992 264.308C239.542 264.601 239.981 264.97 240.309 265.415V264.027H242.785V273.756H240.309V272.334C239.993 272.79 239.553 273.171 238.992 273.475C238.441 273.768 237.803 273.914 237.077 273.914C236.258 273.914 235.509 273.703 234.83 273.282C234.162 272.86 233.63 272.269 233.232 271.508C232.845 270.736 232.652 269.852 232.652 268.857ZM240.309 268.892C240.309 268.295 240.192 267.785 239.957 267.364C239.723 266.931 239.407 266.603 239.009 266.38C238.611 266.146 238.184 266.029 237.727 266.029C237.271 266.029 236.849 266.14 236.463 266.363C236.076 266.585 235.76 266.913 235.514 267.346C235.28 267.768 235.163 268.271 235.163 268.857C235.163 269.442 235.28 269.957 235.514 270.402C235.76 270.835 236.076 271.169 236.463 271.403C236.861 271.637 237.282 271.754 237.727 271.754C238.184 271.754 238.611 271.643 239.009 271.42C239.407 271.186 239.723 270.859 239.957 270.437C240.192 270.004 240.309 269.489 240.309 268.892ZM248.048 266.047V270.753C248.048 271.081 248.124 271.321 248.277 271.473C248.441 271.614 248.71 271.684 249.084 271.684H250.226V273.756H248.681C246.608 273.756 245.572 272.749 245.572 270.736V266.047H244.413V264.027H245.572V261.621H248.048V264.027H250.226V266.047H248.048ZM253.241 262.868C252.808 262.868 252.445 262.734 252.152 262.464C251.871 262.183 251.731 261.838 251.731 261.428C251.731 261.019 251.871 260.679 252.152 260.41C252.445 260.129 252.808 259.988 253.241 259.988C253.674 259.988 254.031 260.129 254.312 260.41C254.605 260.679 254.751 261.019 254.751 261.428C254.751 261.838 254.605 262.183 254.312 262.464C254.031 262.734 253.674 262.868 253.241 262.868ZM254.453 264.027V273.756H251.994V264.027H254.453ZM261.202 273.914C260.265 273.914 259.422 273.709 258.673 273.3C257.924 272.878 257.333 272.287 256.899 271.526C256.478 270.765 256.267 269.887 256.267 268.892C256.267 267.897 256.484 267.019 256.917 266.258C257.362 265.497 257.965 264.911 258.726 264.501C259.487 264.08 260.335 263.869 261.272 263.869C262.209 263.869 263.057 264.08 263.818 264.501C264.579 264.911 265.176 265.497 265.61 266.258C266.054 267.019 266.277 267.897 266.277 268.892C266.277 269.887 266.049 270.765 265.592 271.526C265.147 272.287 264.538 272.878 263.766 273.3C263.005 273.709 262.15 273.914 261.202 273.914ZM261.202 271.772C261.647 271.772 262.062 271.666 262.449 271.456C262.847 271.233 263.163 270.905 263.397 270.472C263.631 270.039 263.748 269.512 263.748 268.892C263.748 267.967 263.502 267.259 263.011 266.767C262.531 266.263 261.939 266.012 261.237 266.012C260.534 266.012 259.943 266.263 259.463 266.767C258.995 267.259 258.761 267.967 258.761 268.892C258.761 269.817 258.989 270.531 259.446 271.034C259.914 271.526 260.499 271.772 261.202 271.772ZM273.472 263.887C274.631 263.887 275.567 264.256 276.281 264.993C276.995 265.719 277.353 266.738 277.353 268.049V273.756H274.894V268.382C274.894 267.61 274.701 267.019 274.314 266.609C273.928 266.187 273.401 265.977 272.734 265.977C272.055 265.977 271.516 266.187 271.118 266.609C270.732 267.019 270.539 267.61 270.539 268.382V273.756H268.08V264.027H270.539V265.239C270.867 264.818 271.282 264.49 271.786 264.256C272.301 264.01 272.863 263.887 273.472 263.887Z" fill="white"/>
<path d="M194.241 352.991C193.96 352.476 193.573 352.084 193.082 351.815C192.59 351.545 192.016 351.411 191.361 351.411C190.635 351.411 189.991 351.575 189.429 351.902C188.867 352.23 188.428 352.698 188.112 353.307C187.796 353.916 187.638 354.618 187.638 355.415C187.638 356.234 187.796 356.948 188.112 357.557C188.44 358.166 188.89 358.634 189.464 358.962C190.038 359.29 190.705 359.454 191.466 359.454C192.403 359.454 193.169 359.208 193.767 358.716C194.364 358.213 194.756 357.516 194.943 356.626H190.729V354.747H197.367V356.89C197.203 357.744 196.851 358.535 196.313 359.26C195.774 359.986 195.078 360.572 194.223 361.017C193.38 361.45 192.432 361.666 191.378 361.666C190.196 361.666 189.125 361.403 188.165 360.876C187.216 360.337 186.467 359.594 185.917 358.646C185.378 357.697 185.109 356.62 185.109 355.415C185.109 354.209 185.378 353.132 185.917 352.183C186.467 351.223 187.216 350.48 188.165 349.953C189.125 349.415 190.19 349.145 191.361 349.145C192.742 349.145 193.942 349.485 194.961 350.164C195.979 350.831 196.682 351.774 197.068 352.991H194.241ZM201.644 353.342C201.96 352.827 202.37 352.423 202.873 352.131C203.388 351.838 203.974 351.692 204.629 351.692V354.273H203.98C203.207 354.273 202.622 354.455 202.224 354.817C201.837 355.18 201.644 355.813 201.644 356.714V361.561H199.186V351.832H201.644V353.342ZM210.605 361.719C209.669 361.719 208.826 361.514 208.077 361.104C207.327 360.683 206.736 360.092 206.303 359.331C205.881 358.57 205.671 357.692 205.671 356.697C205.671 355.701 205.887 354.823 206.32 354.062C206.765 353.301 207.368 352.716 208.129 352.306C208.89 351.885 209.739 351.674 210.676 351.674C211.612 351.674 212.461 351.885 213.222 352.306C213.983 352.716 214.58 353.301 215.013 354.062C215.458 354.823 215.68 355.701 215.68 356.697C215.68 357.692 215.452 358.57 214.996 359.331C214.551 360.092 213.942 360.683 213.169 361.104C212.408 361.514 211.554 361.719 210.605 361.719ZM210.605 359.577C211.05 359.577 211.466 359.471 211.852 359.26C212.25 359.038 212.566 358.71 212.8 358.277C213.035 357.844 213.152 357.317 213.152 356.697C213.152 355.772 212.906 355.063 212.414 354.572C211.934 354.068 211.343 353.817 210.64 353.817C209.938 353.817 209.347 354.068 208.867 354.572C208.399 355.063 208.164 355.772 208.164 356.697C208.164 357.621 208.393 358.336 208.849 358.839C209.318 359.331 209.903 359.577 210.605 359.577ZM230.971 351.832L228.126 361.561H225.474L223.7 354.765L221.927 361.561H219.258L216.395 351.832H218.889L220.61 359.243L222.471 351.832H225.07L226.897 359.225L228.618 351.832H230.971ZM235.163 353.852V358.558C235.163 358.886 235.24 359.126 235.392 359.278C235.556 359.418 235.825 359.489 236.2 359.489H237.341V361.561H235.796C233.723 361.561 232.687 360.554 232.687 358.54V353.852H231.528V351.832H232.687V349.426H235.163V351.832H237.341V353.852H235.163ZM244.588 351.692C245.326 351.692 245.981 351.856 246.555 352.183C247.129 352.499 247.574 352.974 247.89 353.606C248.218 354.226 248.381 354.976 248.381 355.854V361.561H245.923V356.187C245.923 355.415 245.73 354.823 245.343 354.414C244.957 353.992 244.43 353.781 243.763 353.781C243.084 353.781 242.545 353.992 242.147 354.414C241.761 354.823 241.568 355.415 241.568 356.187V361.561H239.109V348.566H241.568V353.044C241.884 352.622 242.305 352.295 242.832 352.06C243.359 351.815 243.944 351.692 244.588 351.692ZM195.872 375.303V387.561H193.413V379.588L190.129 387.561H188.268L184.966 379.588V387.561H182.508V375.303H185.3L189.198 384.417L193.097 375.303H195.872ZM199.549 376.673C199.116 376.673 198.753 376.538 198.46 376.269C198.179 375.988 198.039 375.643 198.039 375.233C198.039 374.823 198.179 374.484 198.46 374.215C198.753 373.934 199.116 373.793 199.549 373.793C199.982 373.793 200.339 373.934 200.62 374.215C200.913 374.484 201.059 374.823 201.059 375.233C201.059 375.643 200.913 375.988 200.62 376.269C200.339 376.538 199.982 376.673 199.549 376.673ZM200.761 377.832V387.561H198.302V377.832H200.761ZM208.581 377.692C209.74 377.692 210.677 378.06 211.391 378.798C212.105 379.524 212.462 380.542 212.462 381.854V387.561H210.004V382.187C210.004 381.415 209.81 380.823 209.424 380.414C209.038 379.992 208.511 379.781 207.844 379.781C207.165 379.781 206.626 379.992 206.228 380.414C205.842 380.823 205.648 381.415 205.648 382.187V387.561H203.19V377.832H205.648V379.044C205.976 378.622 206.392 378.295 206.895 378.06C207.41 377.815 207.972 377.692 208.581 377.692ZM214.168 382.661C214.168 381.678 214.361 380.806 214.747 380.045C215.145 379.284 215.684 378.698 216.363 378.289C217.042 377.879 217.797 377.674 218.628 377.674C219.261 377.674 219.863 377.815 220.437 378.096C221.011 378.365 221.467 378.728 221.807 379.184V374.566H224.301V387.561H221.807V386.121C221.502 386.601 221.075 386.987 220.525 387.28C219.975 387.573 219.337 387.719 218.611 387.719C217.791 387.719 217.042 387.508 216.363 387.087C215.684 386.665 215.145 386.074 214.747 385.313C214.361 384.54 214.168 383.657 214.168 382.661ZM221.824 382.697C221.824 382.099 221.707 381.59 221.473 381.169C221.239 380.736 220.923 380.408 220.525 380.185C220.127 379.951 219.7 379.834 219.243 379.834C218.786 379.834 218.365 379.945 217.979 380.168C217.592 380.39 217.276 380.718 217.03 381.151C216.796 381.573 216.679 382.076 216.679 382.661C216.679 383.247 216.796 383.762 217.03 384.207C217.276 384.64 217.592 384.974 217.979 385.208C218.377 385.442 218.798 385.559 219.243 385.559C219.7 385.559 220.127 385.448 220.525 385.225C220.923 384.991 221.239 384.663 221.473 384.242C221.707 383.809 221.824 383.294 221.824 382.697ZM230.425 387.719C229.629 387.719 228.914 387.578 228.282 387.297C227.65 387.005 227.147 386.613 226.772 386.121C226.409 385.629 226.21 385.085 226.175 384.488H228.651C228.698 384.862 228.879 385.173 229.195 385.418C229.523 385.664 229.927 385.787 230.407 385.787C230.875 385.787 231.238 385.694 231.496 385.506C231.765 385.319 231.9 385.079 231.9 384.786C231.9 384.47 231.736 384.236 231.408 384.084C231.092 383.92 230.583 383.744 229.88 383.557C229.154 383.381 228.557 383.2 228.089 383.013C227.632 382.825 227.234 382.538 226.895 382.152C226.567 381.766 226.403 381.245 226.403 380.589C226.403 380.051 226.555 379.559 226.86 379.114C227.176 378.669 227.621 378.318 228.194 378.06C228.78 377.803 229.465 377.674 230.249 377.674C231.408 377.674 232.333 377.967 233.024 378.552C233.714 379.126 234.095 379.904 234.165 380.888H231.812C231.777 380.501 231.613 380.197 231.32 379.975C231.039 379.74 230.659 379.623 230.179 379.623C229.734 379.623 229.389 379.705 229.143 379.869C228.909 380.033 228.791 380.261 228.791 380.554C228.791 380.882 228.955 381.134 229.283 381.309C229.611 381.473 230.12 381.643 230.811 381.818C231.513 381.994 232.093 382.176 232.55 382.363C233.006 382.55 233.398 382.843 233.726 383.241C234.066 383.627 234.241 384.142 234.253 384.786C234.253 385.348 234.095 385.852 233.779 386.297C233.474 386.741 233.03 387.093 232.444 387.35C231.87 387.596 231.197 387.719 230.425 387.719ZM245.315 382.486C245.315 382.837 245.292 383.153 245.245 383.434H238.133C238.191 384.137 238.437 384.687 238.87 385.085C239.303 385.483 239.836 385.682 240.468 385.682C241.381 385.682 242.031 385.29 242.417 384.505H245.069C244.788 385.442 244.25 386.215 243.454 386.823C242.657 387.42 241.68 387.719 240.521 387.719C239.584 387.719 238.741 387.514 237.992 387.104C237.254 386.683 236.675 386.092 236.254 385.331C235.844 384.57 235.639 383.692 235.639 382.697C235.639 381.69 235.844 380.806 236.254 380.045C236.663 379.284 237.237 378.698 237.974 378.289C238.712 377.879 239.561 377.674 240.521 377.674C241.446 377.674 242.271 377.873 242.997 378.271C243.734 378.669 244.302 379.237 244.7 379.975C245.11 380.7 245.315 381.537 245.315 382.486ZM242.769 381.783C242.757 381.151 242.529 380.648 242.084 380.273C241.639 379.887 241.094 379.694 240.451 379.694C239.842 379.694 239.327 379.881 238.905 380.256C238.495 380.618 238.244 381.128 238.15 381.783H242.769ZM249.972 379.852V384.558C249.972 384.886 250.048 385.126 250.2 385.278C250.364 385.418 250.633 385.489 251.008 385.489H252.149V387.561H250.604C248.532 387.561 247.496 386.554 247.496 384.54V379.852H246.337V377.832H247.496V375.426H249.972V377.832H252.149V379.852H249.972Z" fill="white"/>
<path d="M217 433C336.293 433 433 336.293 433 217C433 97.7065 336.293 1 217 1C97.7065 1 1 97.7065 1 217C1 336.176 97.8679 432.811 217 433ZM217 433C118.235 432.811 37.878 352.687 37.878 253.878C37.878 154.952 118.074 74.7561 217 74.7561C315.926 74.7561 396.122 154.952 396.122 253.878C396.122 352.804 315.926 433 217 433ZM217 433C216.883 433 217.117 433.001 217 433Z" stroke="white" stroke-width="0.878049" stroke-linecap="round" stroke-linejoin="round"/>
<path d="M217.001 433C315.927 433 396.123 352.804 396.123 253.878C396.123 154.952 315.927 74.7561 217.001 74.7561C118.075 74.7561 37.8789 154.952 37.8789 253.878C37.8789 352.687 118.236 432.811 217.001 433ZM217.001 433C138.603 432.811 74.757 369.198 74.757 290.756C74.757 212.197 138.442 148.512 217.001 148.512C295.56 148.512 359.245 212.197 359.245 290.756C359.245 369.315 295.56 433 217.001 433ZM217.001 433C216.884 433 217.118 433.001 217.001 433Z" stroke="white" stroke-width="0.878049" stroke-linecap="round" stroke-linejoin="round"/>
<path d="M217.002 433C295.561 433 359.246 369.315 359.246 290.756C359.246 212.197 295.561 148.512 217.002 148.512C138.443 148.512 74.7578 212.197 74.7578 290.756C74.7578 369.198 138.604 432.811 217.002 433ZM217.002 433C158.971 432.811 111.636 385.709 111.636 327.634C111.636 269.442 158.81 222.268 217.002 222.268C275.194 222.268 322.368 269.442 322.368 327.634C322.368 385.826 275.194 433 217.002 433ZM217.002 433C216.885 433 217.119 433.001 217.002 433Z" stroke="white" stroke-width="0.878049" stroke-linecap="round" stroke-linejoin="round"/>
<path d="M216.999 433C275.191 433 322.365 385.826 322.365 327.634C322.365 269.442 275.191 222.268 216.999 222.268C158.807 222.268 111.633 269.442 111.633 327.634C111.633 385.709 158.968 432.811 216.999 433ZM216.999 433C179.335 432.811 148.511 402.22 148.511 364.512C148.511 326.687 179.174 296.024 216.999 296.024C254.823 296.024 285.486 326.687 285.486 364.512C285.486 402.337 254.823 433 216.999 433ZM216.999 433C216.882 433 217.116 433.001 216.999 433Z" stroke="white" stroke-width="0.878049" stroke-linecap="round" stroke-linejoin="round"/>
<path d="M217 433C254.824 433 285.487 402.337 285.487 364.512C285.487 326.687 254.824 296.024 217 296.024C179.175 296.024 148.512 326.687 148.512 364.512C148.512 402.22 179.336 432.811 217 433ZM217 433C216.882 433 217.116 433.001 217 433Z" stroke="white" stroke-width="0.878049" stroke-linecap="round" stroke-linejoin="round"/>
</g>
</svg>
